M48
; DRILL file {KiCad (5.1.5)-3} date 06/25/20 10:52:03
; FORMAT={-:-/ absolute / inch / decimal}
; #@! TF.CreationDate,2020-06-25T10:52:03+02:00
; #@! TF.GenerationSoftware,Kicad,Pcbnew,(5.1.5)-3
; #@! TF.FileFunction,Plated,1,2,PTH
FMAT,2
INCH
T1C0.0157
T2C0.0197
T3C0.0394
T4C0.0512
T5C0.1260
%
G90
G05
T1
X5.45Y-3.425
X5.519Y-3.281
X5.6Y-3.525
X5.875Y-3.225
X5.925Y-3.275
X5.925Y-4.5
X5.925Y-4.5
X5.975Y-4.5
X6.025Y-4.5
X6.05Y-3.15
X6.225Y-3.05
X6.375Y-3.9
T2
X4.9555Y-4.7
X4.9832Y-4.6332
X4.9832Y-4.7668
X5.05Y-4.6055
X5.05Y-4.7945
X5.1168Y-4.6332
X5.1168Y-4.7668
X5.1445Y-4.7
X6.6305Y-3.0
X6.6582Y-2.9332
X6.6582Y-3.0668
X6.725Y-2.9055
X6.725Y-3.0945
X6.7918Y-2.9332
X6.7918Y-3.0668
X6.8195Y-3.0
T3
X5.875Y-2.925
X5.975Y-2.925
X6.075Y-2.925
X6.175Y-2.925
X6.275Y-2.925
X6.375Y-2.925
T4
X6.675Y-4.0781
X6.675Y-4.275
X5.1Y-4.0781
X5.1Y-4.275
X6.675Y-4.5531
X6.675Y-4.75
X5.1Y-3.6031
X5.1Y-3.8
X5.1Y-2.9313
X5.1Y-3.1281
X5.1Y-3.325
X6.675Y-3.6031
X6.675Y-3.8
T5
X5.05Y-4.7
X6.725Y-3.0
T0
M30
