G04 #@! TF.GenerationSoftware,KiCad,Pcbnew,(5.1.5)-3*
G04 #@! TF.CreationDate,2020-06-25T10:52:07+02:00*
G04 #@! TF.ProjectId,VacTool,56616354-6f6f-46c2-9e6b-696361645f70,v0.0*
G04 #@! TF.SameCoordinates,Original*
G04 #@! TF.FileFunction,Soldermask,Top*
G04 #@! TF.FilePolarity,Negative*
%FSLAX46Y46*%
G04 Gerber Fmt 4.6, Leading zero omitted, Abs format (unit mm)*
G04 Created by KiCad (PCBNEW (5.1.5)-3) date 2020-06-25 10:52:07*
%MOMM*%
%LPD*%
G04 APERTURE LIST*
%ADD10C,0.100000*%
G04 APERTURE END LIST*
D10*
G36*
X128904239Y-116191467D02*
G01*
X129218282Y-116253934D01*
X129809926Y-116499001D01*
X130342392Y-116854784D01*
X130795216Y-117307608D01*
X131150999Y-117840074D01*
X131396066Y-118431718D01*
X131430910Y-118606891D01*
X131521000Y-119059803D01*
X131521000Y-119700197D01*
X131468315Y-119965063D01*
X131396066Y-120328282D01*
X131150999Y-120919926D01*
X130795216Y-121452392D01*
X130342392Y-121905216D01*
X129809926Y-122260999D01*
X129218282Y-122506066D01*
X128904239Y-122568533D01*
X128590197Y-122631000D01*
X127949803Y-122631000D01*
X127635761Y-122568533D01*
X127321718Y-122506066D01*
X126730074Y-122260999D01*
X126197608Y-121905216D01*
X125744784Y-121452392D01*
X125389001Y-120919926D01*
X125143934Y-120328282D01*
X125071685Y-119965063D01*
X125019000Y-119700197D01*
X125019000Y-119059803D01*
X125109090Y-118606891D01*
X125143934Y-118431718D01*
X125389001Y-117840074D01*
X125744784Y-117307608D01*
X126197608Y-116854784D01*
X126730074Y-116499001D01*
X127321718Y-116253934D01*
X127635761Y-116191467D01*
X127949803Y-116129000D01*
X128590197Y-116129000D01*
X128904239Y-116191467D01*
G37*
G36*
X159021000Y-122331000D02*
G01*
X152519000Y-122331000D01*
X152519000Y-116429000D01*
X159021000Y-116429000D01*
X159021000Y-122331000D01*
G37*
G36*
X150621000Y-122311000D02*
G01*
X148319000Y-122311000D01*
X148319000Y-121009000D01*
X150621000Y-121009000D01*
X150621000Y-122311000D01*
G37*
G36*
X169939072Y-119350918D02*
G01*
X170116523Y-119424420D01*
X170184939Y-119452759D01*
X170272928Y-119511552D01*
X170406211Y-119600609D01*
X170594391Y-119788789D01*
X170742242Y-120010063D01*
X170844082Y-120255928D01*
X170896000Y-120516937D01*
X170896000Y-120783063D01*
X170868777Y-120919924D01*
X170844082Y-121044072D01*
X170742241Y-121289939D01*
X170716141Y-121329000D01*
X170606891Y-121492504D01*
X170594390Y-121511212D01*
X170406212Y-121699390D01*
X170184939Y-121847241D01*
X170184938Y-121847242D01*
X170184937Y-121847242D01*
X169939072Y-121949082D01*
X169678063Y-122001000D01*
X169411937Y-122001000D01*
X169150928Y-121949082D01*
X168905063Y-121847242D01*
X168905062Y-121847242D01*
X168905061Y-121847241D01*
X168683788Y-121699390D01*
X168495610Y-121511212D01*
X168483110Y-121492504D01*
X168373859Y-121329000D01*
X168347759Y-121289939D01*
X168245918Y-121044072D01*
X168221223Y-120919924D01*
X168194000Y-120783063D01*
X168194000Y-120516937D01*
X168245918Y-120255928D01*
X168347758Y-120010063D01*
X168495609Y-119788789D01*
X168683789Y-119600609D01*
X168817072Y-119511552D01*
X168905061Y-119452759D01*
X168973478Y-119424420D01*
X169150928Y-119350918D01*
X169411937Y-119299000D01*
X169678063Y-119299000D01*
X169939072Y-119350918D01*
G37*
G36*
X146595997Y-118533051D02*
G01*
X146629652Y-118543261D01*
X146660665Y-118559838D01*
X146687851Y-118582149D01*
X146710162Y-118609335D01*
X146726739Y-118640348D01*
X146736949Y-118674003D01*
X146741000Y-118715138D01*
X146741000Y-120044862D01*
X146736949Y-120085997D01*
X146726739Y-120119652D01*
X146710162Y-120150665D01*
X146687851Y-120177851D01*
X146660665Y-120200162D01*
X146629652Y-120216739D01*
X146595997Y-120226949D01*
X146554862Y-120231000D01*
X143325138Y-120231000D01*
X143284003Y-120226949D01*
X143250348Y-120216739D01*
X143219335Y-120200162D01*
X143192149Y-120177851D01*
X143169838Y-120150665D01*
X143153261Y-120119652D01*
X143143051Y-120085997D01*
X143139000Y-120044862D01*
X143139000Y-118715138D01*
X143143051Y-118674003D01*
X143153261Y-118640348D01*
X143169838Y-118609335D01*
X143192149Y-118582149D01*
X143219335Y-118559838D01*
X143250348Y-118543261D01*
X143284003Y-118533051D01*
X143325138Y-118529000D01*
X146554862Y-118529000D01*
X146595997Y-118533051D01*
G37*
G36*
X141195997Y-118533051D02*
G01*
X141229652Y-118543261D01*
X141260665Y-118559838D01*
X141287851Y-118582149D01*
X141310162Y-118609335D01*
X141326739Y-118640348D01*
X141336949Y-118674003D01*
X141341000Y-118715138D01*
X141341000Y-120044862D01*
X141336949Y-120085997D01*
X141326739Y-120119652D01*
X141310162Y-120150665D01*
X141287851Y-120177851D01*
X141260665Y-120200162D01*
X141229652Y-120216739D01*
X141195997Y-120226949D01*
X141154862Y-120231000D01*
X137925138Y-120231000D01*
X137884003Y-120226949D01*
X137850348Y-120216739D01*
X137819335Y-120200162D01*
X137792149Y-120177851D01*
X137769838Y-120150665D01*
X137753261Y-120119652D01*
X137743051Y-120085997D01*
X137739000Y-120044862D01*
X137739000Y-118715138D01*
X137743051Y-118674003D01*
X137753261Y-118640348D01*
X137769838Y-118609335D01*
X137792149Y-118582149D01*
X137819335Y-118559838D01*
X137850348Y-118543261D01*
X137884003Y-118533051D01*
X137925138Y-118529000D01*
X141154862Y-118529000D01*
X141195997Y-118533051D01*
G37*
G36*
X150621000Y-117751000D02*
G01*
X148319000Y-117751000D01*
X148319000Y-116449000D01*
X150621000Y-116449000D01*
X150621000Y-117751000D01*
G37*
G36*
X170896000Y-117001000D02*
G01*
X168194000Y-117001000D01*
X168194000Y-114299000D01*
X170896000Y-114299000D01*
X170896000Y-117001000D01*
G37*
G36*
X159021000Y-110266000D02*
G01*
X152519000Y-110266000D01*
X152519000Y-104364000D01*
X159021000Y-104364000D01*
X159021000Y-110266000D01*
G37*
G36*
X150621000Y-110246000D02*
G01*
X148319000Y-110246000D01*
X148319000Y-108944000D01*
X150621000Y-108944000D01*
X150621000Y-110246000D01*
G37*
G36*
X169939072Y-107285918D02*
G01*
X170184939Y-107387759D01*
X170284675Y-107454401D01*
X170406211Y-107535609D01*
X170594391Y-107723789D01*
X170742242Y-107945063D01*
X170844082Y-108190928D01*
X170896000Y-108451937D01*
X170896000Y-108718063D01*
X170844082Y-108979072D01*
X170743746Y-109221307D01*
X170742241Y-109224939D01*
X170594390Y-109446212D01*
X170406212Y-109634390D01*
X170184939Y-109782241D01*
X170184938Y-109782242D01*
X170184937Y-109782242D01*
X169939072Y-109884082D01*
X169678063Y-109936000D01*
X169411937Y-109936000D01*
X169150928Y-109884082D01*
X168905063Y-109782242D01*
X168905062Y-109782242D01*
X168905061Y-109782241D01*
X168683788Y-109634390D01*
X168495610Y-109446212D01*
X168347759Y-109224939D01*
X168346255Y-109221307D01*
X168245918Y-108979072D01*
X168194000Y-108718063D01*
X168194000Y-108451937D01*
X168245918Y-108190928D01*
X168347758Y-107945063D01*
X168495609Y-107723789D01*
X168683789Y-107535609D01*
X168805325Y-107454401D01*
X168905061Y-107387759D01*
X169150928Y-107285918D01*
X169411937Y-107234000D01*
X169678063Y-107234000D01*
X169939072Y-107285918D01*
G37*
G36*
X130891000Y-109936000D02*
G01*
X128189000Y-109936000D01*
X128189000Y-107234000D01*
X130891000Y-107234000D01*
X130891000Y-109936000D01*
G37*
G36*
X141349591Y-108253085D02*
G01*
X141383569Y-108263393D01*
X141414890Y-108280134D01*
X141442339Y-108302661D01*
X141464866Y-108330110D01*
X141481607Y-108361431D01*
X141491915Y-108395409D01*
X141496000Y-108436890D01*
X141496000Y-109038110D01*
X141491915Y-109079591D01*
X141481607Y-109113569D01*
X141464866Y-109144890D01*
X141442339Y-109172339D01*
X141414890Y-109194866D01*
X141383569Y-109211607D01*
X141349591Y-109221915D01*
X141308110Y-109226000D01*
X140631890Y-109226000D01*
X140590409Y-109221915D01*
X140556431Y-109211607D01*
X140525110Y-109194866D01*
X140497661Y-109172339D01*
X140475134Y-109144890D01*
X140458393Y-109113569D01*
X140448085Y-109079591D01*
X140444000Y-109038110D01*
X140444000Y-108436890D01*
X140448085Y-108395409D01*
X140458393Y-108361431D01*
X140475134Y-108330110D01*
X140497661Y-108302661D01*
X140525110Y-108280134D01*
X140556431Y-108263393D01*
X140590409Y-108253085D01*
X140631890Y-108249000D01*
X141308110Y-108249000D01*
X141349591Y-108253085D01*
G37*
G36*
X141349591Y-106678085D02*
G01*
X141383569Y-106688393D01*
X141414890Y-106705134D01*
X141442339Y-106727661D01*
X141464866Y-106755110D01*
X141481607Y-106786431D01*
X141491915Y-106820409D01*
X141496000Y-106861890D01*
X141496000Y-107463110D01*
X141491915Y-107504591D01*
X141481607Y-107538569D01*
X141464866Y-107569890D01*
X141442339Y-107597339D01*
X141414890Y-107619866D01*
X141383569Y-107636607D01*
X141349591Y-107646915D01*
X141308110Y-107651000D01*
X140631890Y-107651000D01*
X140590409Y-107646915D01*
X140556431Y-107636607D01*
X140525110Y-107619866D01*
X140497661Y-107597339D01*
X140475134Y-107569890D01*
X140458393Y-107538569D01*
X140448085Y-107504591D01*
X140444000Y-107463110D01*
X140444000Y-106861890D01*
X140448085Y-106820409D01*
X140458393Y-106786431D01*
X140475134Y-106755110D01*
X140497661Y-106727661D01*
X140525110Y-106705134D01*
X140556431Y-106688393D01*
X140590409Y-106678085D01*
X140631890Y-106674000D01*
X141308110Y-106674000D01*
X141349591Y-106678085D01*
G37*
G36*
X150621000Y-105686000D02*
G01*
X148319000Y-105686000D01*
X148319000Y-104384000D01*
X150621000Y-104384000D01*
X150621000Y-105686000D01*
G37*
G36*
X170896000Y-104936000D02*
G01*
X168194000Y-104936000D01*
X168194000Y-102234000D01*
X170896000Y-102234000D01*
X170896000Y-104936000D01*
G37*
G36*
X129934072Y-102285918D02*
G01*
X130179939Y-102387759D01*
X130291328Y-102462187D01*
X130401211Y-102535609D01*
X130589391Y-102723789D01*
X130662813Y-102833672D01*
X130737241Y-102945061D01*
X130839082Y-103190928D01*
X130891000Y-103451938D01*
X130891000Y-103718062D01*
X130839082Y-103979072D01*
X130737241Y-104224939D01*
X130589390Y-104446212D01*
X130401212Y-104634390D01*
X130179939Y-104782241D01*
X130179938Y-104782242D01*
X130179937Y-104782242D01*
X129934072Y-104884082D01*
X129673063Y-104936000D01*
X129406937Y-104936000D01*
X129145928Y-104884082D01*
X128900063Y-104782242D01*
X128900062Y-104782242D01*
X128900061Y-104782241D01*
X128678788Y-104634390D01*
X128490610Y-104446212D01*
X128342759Y-104224939D01*
X128240918Y-103979072D01*
X128189000Y-103718062D01*
X128189000Y-103451938D01*
X128240918Y-103190928D01*
X128342759Y-102945061D01*
X128417187Y-102833672D01*
X128490609Y-102723789D01*
X128678789Y-102535609D01*
X128788672Y-102462187D01*
X128900061Y-102387759D01*
X129145928Y-102285918D01*
X129406937Y-102234000D01*
X129673063Y-102234000D01*
X129934072Y-102285918D01*
G37*
G36*
X157576000Y-102836000D02*
G01*
X156374000Y-102836000D01*
X156374000Y-101634000D01*
X157576000Y-101634000D01*
X157576000Y-102836000D01*
G37*
G36*
X154776000Y-102836000D02*
G01*
X153574000Y-102836000D01*
X153574000Y-101634000D01*
X154776000Y-101634000D01*
X154776000Y-102836000D01*
G37*
G36*
X150684591Y-101713085D02*
G01*
X150718569Y-101723393D01*
X150749890Y-101740134D01*
X150777339Y-101762661D01*
X150799866Y-101790110D01*
X150816607Y-101821431D01*
X150826915Y-101855409D01*
X150831000Y-101896890D01*
X150831000Y-102573110D01*
X150826915Y-102614591D01*
X150816607Y-102648569D01*
X150799866Y-102679890D01*
X150777339Y-102707339D01*
X150749890Y-102729866D01*
X150718569Y-102746607D01*
X150684591Y-102756915D01*
X150643110Y-102761000D01*
X150041890Y-102761000D01*
X150000409Y-102756915D01*
X149966431Y-102746607D01*
X149935110Y-102729866D01*
X149907661Y-102707339D01*
X149885134Y-102679890D01*
X149868393Y-102648569D01*
X149858085Y-102614591D01*
X149854000Y-102573110D01*
X149854000Y-101896890D01*
X149858085Y-101855409D01*
X149868393Y-101821431D01*
X149885134Y-101790110D01*
X149907661Y-101762661D01*
X149935110Y-101740134D01*
X149966431Y-101723393D01*
X150000409Y-101713085D01*
X150041890Y-101709000D01*
X150643110Y-101709000D01*
X150684591Y-101713085D01*
G37*
G36*
X152259591Y-101713085D02*
G01*
X152293569Y-101723393D01*
X152324890Y-101740134D01*
X152352339Y-101762661D01*
X152374866Y-101790110D01*
X152391607Y-101821431D01*
X152401915Y-101855409D01*
X152406000Y-101896890D01*
X152406000Y-102573110D01*
X152401915Y-102614591D01*
X152391607Y-102648569D01*
X152374866Y-102679890D01*
X152352339Y-102707339D01*
X152324890Y-102729866D01*
X152293569Y-102746607D01*
X152259591Y-102756915D01*
X152218110Y-102761000D01*
X151616890Y-102761000D01*
X151575409Y-102756915D01*
X151541431Y-102746607D01*
X151510110Y-102729866D01*
X151482661Y-102707339D01*
X151460134Y-102679890D01*
X151443393Y-102648569D01*
X151433085Y-102614591D01*
X151429000Y-102573110D01*
X151429000Y-101896890D01*
X151433085Y-101855409D01*
X151443393Y-101821431D01*
X151460134Y-101790110D01*
X151482661Y-101762661D01*
X151510110Y-101740134D01*
X151541431Y-101723393D01*
X151575409Y-101713085D01*
X151616890Y-101709000D01*
X152218110Y-101709000D01*
X152259591Y-101713085D01*
G37*
G36*
X145431000Y-98671000D02*
G01*
X144129000Y-98671000D01*
X144129000Y-97669000D01*
X145431000Y-97669000D01*
X145431000Y-98671000D01*
G37*
G36*
X159021000Y-98201000D02*
G01*
X152519000Y-98201000D01*
X152519000Y-92299000D01*
X159021000Y-92299000D01*
X159021000Y-98201000D01*
G37*
G36*
X150621000Y-98181000D02*
G01*
X148319000Y-98181000D01*
X148319000Y-96879000D01*
X150621000Y-96879000D01*
X150621000Y-98181000D01*
G37*
G36*
X169939072Y-95220918D02*
G01*
X170167509Y-95315539D01*
X170184939Y-95322759D01*
X170188457Y-95325110D01*
X170406211Y-95470609D01*
X170594391Y-95658789D01*
X170742242Y-95880063D01*
X170844082Y-96125928D01*
X170896000Y-96386937D01*
X170896000Y-96653063D01*
X170860130Y-96833393D01*
X170844082Y-96914072D01*
X170742241Y-97159939D01*
X170594390Y-97381212D01*
X170406212Y-97569390D01*
X170184939Y-97717241D01*
X170184938Y-97717242D01*
X170184937Y-97717242D01*
X169939072Y-97819082D01*
X169678063Y-97871000D01*
X169411937Y-97871000D01*
X169150928Y-97819082D01*
X168905063Y-97717242D01*
X168905062Y-97717242D01*
X168905061Y-97717241D01*
X168683788Y-97569390D01*
X168495610Y-97381212D01*
X168347759Y-97159939D01*
X168245918Y-96914072D01*
X168229870Y-96833393D01*
X168194000Y-96653063D01*
X168194000Y-96386937D01*
X168245918Y-96125928D01*
X168347758Y-95880063D01*
X168495609Y-95658789D01*
X168683789Y-95470609D01*
X168901543Y-95325110D01*
X168905061Y-95322759D01*
X168922492Y-95315539D01*
X169150928Y-95220918D01*
X169411937Y-95169000D01*
X169678063Y-95169000D01*
X169939072Y-95220918D01*
G37*
G36*
X130891000Y-97871000D02*
G01*
X128189000Y-97871000D01*
X128189000Y-95169000D01*
X130891000Y-95169000D01*
X130891000Y-97871000D01*
G37*
G36*
X142619591Y-96823085D02*
G01*
X142653569Y-96833393D01*
X142684890Y-96850134D01*
X142712339Y-96872661D01*
X142734866Y-96900110D01*
X142751607Y-96931431D01*
X142761915Y-96965409D01*
X142766000Y-97006890D01*
X142766000Y-97608110D01*
X142761915Y-97649591D01*
X142751607Y-97683569D01*
X142734866Y-97714890D01*
X142712339Y-97742339D01*
X142684890Y-97764866D01*
X142653569Y-97781607D01*
X142619591Y-97791915D01*
X142578110Y-97796000D01*
X141901890Y-97796000D01*
X141860409Y-97791915D01*
X141826431Y-97781607D01*
X141795110Y-97764866D01*
X141767661Y-97742339D01*
X141745134Y-97714890D01*
X141728393Y-97683569D01*
X141718085Y-97649591D01*
X141714000Y-97608110D01*
X141714000Y-97006890D01*
X141718085Y-96965409D01*
X141728393Y-96931431D01*
X141745134Y-96900110D01*
X141767661Y-96872661D01*
X141795110Y-96850134D01*
X141826431Y-96833393D01*
X141860409Y-96823085D01*
X141901890Y-96819000D01*
X142578110Y-96819000D01*
X142619591Y-96823085D01*
G37*
G36*
X142619591Y-95248085D02*
G01*
X142653569Y-95258393D01*
X142684890Y-95275134D01*
X142712339Y-95297661D01*
X142734866Y-95325110D01*
X142751607Y-95356431D01*
X142761915Y-95390409D01*
X142766000Y-95431890D01*
X142766000Y-96033110D01*
X142761915Y-96074591D01*
X142751607Y-96108569D01*
X142734866Y-96139890D01*
X142712339Y-96167339D01*
X142684890Y-96189866D01*
X142653569Y-96206607D01*
X142619591Y-96216915D01*
X142578110Y-96221000D01*
X141901890Y-96221000D01*
X141860409Y-96216915D01*
X141826431Y-96206607D01*
X141795110Y-96189866D01*
X141767661Y-96167339D01*
X141745134Y-96139890D01*
X141728393Y-96108569D01*
X141718085Y-96074591D01*
X141714000Y-96033110D01*
X141714000Y-95431890D01*
X141718085Y-95390409D01*
X141728393Y-95356431D01*
X141745134Y-95325110D01*
X141767661Y-95297661D01*
X141795110Y-95275134D01*
X141826431Y-95258393D01*
X141860409Y-95248085D01*
X141901890Y-95244000D01*
X142578110Y-95244000D01*
X142619591Y-95248085D01*
G37*
G36*
X145431000Y-95371000D02*
G01*
X144129000Y-95371000D01*
X144129000Y-94369000D01*
X145431000Y-94369000D01*
X145431000Y-95371000D01*
G37*
G36*
X150621000Y-93621000D02*
G01*
X148319000Y-93621000D01*
X148319000Y-92319000D01*
X150621000Y-92319000D01*
X150621000Y-93621000D01*
G37*
G36*
X145431000Y-93591000D02*
G01*
X144129000Y-93591000D01*
X144129000Y-92589000D01*
X145431000Y-92589000D01*
X145431000Y-93591000D01*
G37*
G36*
X170896000Y-92871000D02*
G01*
X168194000Y-92871000D01*
X168194000Y-90169000D01*
X170896000Y-90169000D01*
X170896000Y-92871000D01*
G37*
G36*
X129934072Y-90220918D02*
G01*
X130150124Y-90310409D01*
X130179939Y-90322759D01*
X130223536Y-90351890D01*
X130401211Y-90470609D01*
X130589391Y-90658789D01*
X130737242Y-90880063D01*
X130839082Y-91125928D01*
X130891000Y-91386937D01*
X130891000Y-91653063D01*
X130839082Y-91914072D01*
X130737242Y-92159937D01*
X130589391Y-92381211D01*
X130401211Y-92569391D01*
X130371864Y-92589000D01*
X130179939Y-92717241D01*
X130179938Y-92717242D01*
X130179937Y-92717242D01*
X129934072Y-92819082D01*
X129673063Y-92871000D01*
X129406937Y-92871000D01*
X129145928Y-92819082D01*
X128900063Y-92717242D01*
X128900062Y-92717242D01*
X128900061Y-92717241D01*
X128708136Y-92589000D01*
X128678789Y-92569391D01*
X128490609Y-92381211D01*
X128342758Y-92159937D01*
X128240918Y-91914072D01*
X128189000Y-91653063D01*
X128189000Y-91386937D01*
X128240918Y-91125928D01*
X128342758Y-90880063D01*
X128490609Y-90658789D01*
X128678789Y-90470609D01*
X128856464Y-90351890D01*
X128900061Y-90322759D01*
X128929877Y-90310409D01*
X129145928Y-90220918D01*
X129406937Y-90169000D01*
X129673063Y-90169000D01*
X129934072Y-90220918D01*
G37*
G36*
X142619591Y-91743085D02*
G01*
X142653569Y-91753393D01*
X142684890Y-91770134D01*
X142712339Y-91792661D01*
X142734866Y-91820110D01*
X142751607Y-91851431D01*
X142761915Y-91885409D01*
X142766000Y-91926890D01*
X142766000Y-92528110D01*
X142761915Y-92569591D01*
X142751607Y-92603569D01*
X142734866Y-92634890D01*
X142712339Y-92662339D01*
X142684890Y-92684866D01*
X142653569Y-92701607D01*
X142619591Y-92711915D01*
X142578110Y-92716000D01*
X141901890Y-92716000D01*
X141860409Y-92711915D01*
X141826431Y-92701607D01*
X141795110Y-92684866D01*
X141767661Y-92662339D01*
X141745134Y-92634890D01*
X141728393Y-92603569D01*
X141718085Y-92569591D01*
X141714000Y-92528110D01*
X141714000Y-91926890D01*
X141718085Y-91885409D01*
X141728393Y-91851431D01*
X141745134Y-91820110D01*
X141767661Y-91792661D01*
X141795110Y-91770134D01*
X141826431Y-91753393D01*
X141860409Y-91743085D01*
X141901890Y-91739000D01*
X142578110Y-91739000D01*
X142619591Y-91743085D01*
G37*
G36*
X142619591Y-90168085D02*
G01*
X142653569Y-90178393D01*
X142684890Y-90195134D01*
X142712339Y-90217661D01*
X142734866Y-90245110D01*
X142751607Y-90276431D01*
X142761915Y-90310409D01*
X142766000Y-90351890D01*
X142766000Y-90953110D01*
X142761915Y-90994591D01*
X142751607Y-91028569D01*
X142734866Y-91059890D01*
X142712339Y-91087339D01*
X142684890Y-91109866D01*
X142653569Y-91126607D01*
X142619591Y-91136915D01*
X142578110Y-91141000D01*
X141901890Y-91141000D01*
X141860409Y-91136915D01*
X141826431Y-91126607D01*
X141795110Y-91109866D01*
X141767661Y-91087339D01*
X141745134Y-91059890D01*
X141728393Y-91028569D01*
X141718085Y-90994591D01*
X141714000Y-90953110D01*
X141714000Y-90351890D01*
X141718085Y-90310409D01*
X141728393Y-90276431D01*
X141745134Y-90245110D01*
X141767661Y-90217661D01*
X141795110Y-90195134D01*
X141826431Y-90178393D01*
X141860409Y-90168085D01*
X141901890Y-90164000D01*
X142578110Y-90164000D01*
X142619591Y-90168085D01*
G37*
G36*
X154776000Y-90771000D02*
G01*
X153574000Y-90771000D01*
X153574000Y-89569000D01*
X154776000Y-89569000D01*
X154776000Y-90771000D01*
G37*
G36*
X157576000Y-90771000D02*
G01*
X156374000Y-90771000D01*
X156374000Y-89569000D01*
X157576000Y-89569000D01*
X157576000Y-90771000D01*
G37*
G36*
X150684591Y-89648085D02*
G01*
X150718569Y-89658393D01*
X150749890Y-89675134D01*
X150777339Y-89697661D01*
X150799866Y-89725110D01*
X150816607Y-89756431D01*
X150826915Y-89790409D01*
X150831000Y-89831890D01*
X150831000Y-90508110D01*
X150826915Y-90549591D01*
X150816607Y-90583569D01*
X150799866Y-90614890D01*
X150777339Y-90642339D01*
X150749890Y-90664866D01*
X150718569Y-90681607D01*
X150684591Y-90691915D01*
X150643110Y-90696000D01*
X150041890Y-90696000D01*
X150000409Y-90691915D01*
X149966431Y-90681607D01*
X149935110Y-90664866D01*
X149907661Y-90642339D01*
X149885134Y-90614890D01*
X149868393Y-90583569D01*
X149858085Y-90549591D01*
X149854000Y-90508110D01*
X149854000Y-89831890D01*
X149858085Y-89790409D01*
X149868393Y-89756431D01*
X149885134Y-89725110D01*
X149907661Y-89697661D01*
X149935110Y-89675134D01*
X149966431Y-89658393D01*
X150000409Y-89648085D01*
X150041890Y-89644000D01*
X150643110Y-89644000D01*
X150684591Y-89648085D01*
G37*
G36*
X152259591Y-89648085D02*
G01*
X152293569Y-89658393D01*
X152324890Y-89675134D01*
X152352339Y-89697661D01*
X152374866Y-89725110D01*
X152391607Y-89756431D01*
X152401915Y-89790409D01*
X152406000Y-89831890D01*
X152406000Y-90508110D01*
X152401915Y-90549591D01*
X152391607Y-90583569D01*
X152374866Y-90614890D01*
X152352339Y-90642339D01*
X152324890Y-90664866D01*
X152293569Y-90681607D01*
X152259591Y-90691915D01*
X152218110Y-90696000D01*
X151616890Y-90696000D01*
X151575409Y-90691915D01*
X151541431Y-90681607D01*
X151510110Y-90664866D01*
X151482661Y-90642339D01*
X151460134Y-90614890D01*
X151443393Y-90583569D01*
X151433085Y-90549591D01*
X151429000Y-90508110D01*
X151429000Y-89831890D01*
X151433085Y-89790409D01*
X151443393Y-89756431D01*
X151460134Y-89725110D01*
X151482661Y-89697661D01*
X151510110Y-89675134D01*
X151541431Y-89658393D01*
X151575409Y-89648085D01*
X151616890Y-89644000D01*
X152218110Y-89644000D01*
X152259591Y-89648085D01*
G37*
G36*
X145431000Y-90291000D02*
G01*
X144129000Y-90291000D01*
X144129000Y-89289000D01*
X145431000Y-89289000D01*
X145431000Y-90291000D01*
G37*
G36*
X152024928Y-84001764D02*
G01*
X152046009Y-84008160D01*
X152065445Y-84018548D01*
X152082476Y-84032524D01*
X152096452Y-84049555D01*
X152106840Y-84068991D01*
X152113236Y-84090072D01*
X152116000Y-84118140D01*
X152116000Y-85931860D01*
X152113236Y-85959928D01*
X152106840Y-85981009D01*
X152096452Y-86000445D01*
X152082476Y-86017476D01*
X152065445Y-86031452D01*
X152046009Y-86041840D01*
X152024928Y-86048236D01*
X151996860Y-86051000D01*
X151533140Y-86051000D01*
X151505072Y-86048236D01*
X151483991Y-86041840D01*
X151464555Y-86031452D01*
X151447524Y-86017476D01*
X151433548Y-86000445D01*
X151423160Y-85981009D01*
X151416764Y-85959928D01*
X151414000Y-85931860D01*
X151414000Y-84118140D01*
X151416764Y-84090072D01*
X151423160Y-84068991D01*
X151433548Y-84049555D01*
X151447524Y-84032524D01*
X151464555Y-84018548D01*
X151483991Y-84008160D01*
X151505072Y-84001764D01*
X151533140Y-83999000D01*
X151996860Y-83999000D01*
X152024928Y-84001764D01*
G37*
G36*
X148214928Y-84001764D02*
G01*
X148236009Y-84008160D01*
X148255445Y-84018548D01*
X148272476Y-84032524D01*
X148286452Y-84049555D01*
X148296840Y-84068991D01*
X148303236Y-84090072D01*
X148306000Y-84118140D01*
X148306000Y-85931860D01*
X148303236Y-85959928D01*
X148296840Y-85981009D01*
X148286452Y-86000445D01*
X148272476Y-86017476D01*
X148255445Y-86031452D01*
X148236009Y-86041840D01*
X148214928Y-86048236D01*
X148186860Y-86051000D01*
X147723140Y-86051000D01*
X147695072Y-86048236D01*
X147673991Y-86041840D01*
X147654555Y-86031452D01*
X147637524Y-86017476D01*
X147623548Y-86000445D01*
X147613160Y-85981009D01*
X147606764Y-85959928D01*
X147604000Y-85931860D01*
X147604000Y-84118140D01*
X147606764Y-84090072D01*
X147613160Y-84068991D01*
X147623548Y-84049555D01*
X147637524Y-84032524D01*
X147654555Y-84018548D01*
X147673991Y-84008160D01*
X147695072Y-84001764D01*
X147723140Y-83999000D01*
X148186860Y-83999000D01*
X148214928Y-84001764D01*
G37*
G36*
X149484928Y-84001764D02*
G01*
X149506009Y-84008160D01*
X149525445Y-84018548D01*
X149542476Y-84032524D01*
X149556452Y-84049555D01*
X149566840Y-84068991D01*
X149573236Y-84090072D01*
X149576000Y-84118140D01*
X149576000Y-85931860D01*
X149573236Y-85959928D01*
X149566840Y-85981009D01*
X149556452Y-86000445D01*
X149542476Y-86017476D01*
X149525445Y-86031452D01*
X149506009Y-86041840D01*
X149484928Y-86048236D01*
X149456860Y-86051000D01*
X148993140Y-86051000D01*
X148965072Y-86048236D01*
X148943991Y-86041840D01*
X148924555Y-86031452D01*
X148907524Y-86017476D01*
X148893548Y-86000445D01*
X148883160Y-85981009D01*
X148876764Y-85959928D01*
X148874000Y-85931860D01*
X148874000Y-84118140D01*
X148876764Y-84090072D01*
X148883160Y-84068991D01*
X148893548Y-84049555D01*
X148907524Y-84032524D01*
X148924555Y-84018548D01*
X148943991Y-84008160D01*
X148965072Y-84001764D01*
X148993140Y-83999000D01*
X149456860Y-83999000D01*
X149484928Y-84001764D01*
G37*
G36*
X150754928Y-84001764D02*
G01*
X150776009Y-84008160D01*
X150795445Y-84018548D01*
X150812476Y-84032524D01*
X150826452Y-84049555D01*
X150836840Y-84068991D01*
X150843236Y-84090072D01*
X150846000Y-84118140D01*
X150846000Y-85931860D01*
X150843236Y-85959928D01*
X150836840Y-85981009D01*
X150826452Y-86000445D01*
X150812476Y-86017476D01*
X150795445Y-86031452D01*
X150776009Y-86041840D01*
X150754928Y-86048236D01*
X150726860Y-86051000D01*
X150263140Y-86051000D01*
X150235072Y-86048236D01*
X150213991Y-86041840D01*
X150194555Y-86031452D01*
X150177524Y-86017476D01*
X150163548Y-86000445D01*
X150153160Y-85981009D01*
X150146764Y-85959928D01*
X150144000Y-85931860D01*
X150144000Y-84118140D01*
X150146764Y-84090072D01*
X150153160Y-84068991D01*
X150163548Y-84049555D01*
X150177524Y-84032524D01*
X150194555Y-84018548D01*
X150213991Y-84008160D01*
X150235072Y-84001764D01*
X150263140Y-83999000D01*
X150726860Y-83999000D01*
X150754928Y-84001764D01*
G37*
G36*
X130891000Y-85806000D02*
G01*
X128189000Y-85806000D01*
X128189000Y-83104000D01*
X130891000Y-83104000D01*
X130891000Y-85806000D01*
G37*
G36*
X145159591Y-82853085D02*
G01*
X145193569Y-82863393D01*
X145224890Y-82880134D01*
X145252339Y-82902661D01*
X145274866Y-82930110D01*
X145291607Y-82961431D01*
X145301915Y-82995409D01*
X145306000Y-83036890D01*
X145306000Y-83638110D01*
X145301915Y-83679591D01*
X145291607Y-83713569D01*
X145274866Y-83744890D01*
X145252339Y-83772339D01*
X145224890Y-83794866D01*
X145193569Y-83811607D01*
X145159591Y-83821915D01*
X145118110Y-83826000D01*
X144441890Y-83826000D01*
X144400409Y-83821915D01*
X144366431Y-83811607D01*
X144335110Y-83794866D01*
X144307661Y-83772339D01*
X144285134Y-83744890D01*
X144268393Y-83713569D01*
X144258085Y-83679591D01*
X144254000Y-83638110D01*
X144254000Y-83036890D01*
X144258085Y-82995409D01*
X144268393Y-82961431D01*
X144285134Y-82930110D01*
X144307661Y-82902661D01*
X144335110Y-82880134D01*
X144366431Y-82863393D01*
X144400409Y-82853085D01*
X144441890Y-82849000D01*
X145118110Y-82849000D01*
X145159591Y-82853085D01*
G37*
G36*
X142619591Y-82853085D02*
G01*
X142653569Y-82863393D01*
X142684890Y-82880134D01*
X142712339Y-82902661D01*
X142734866Y-82930110D01*
X142751607Y-82961431D01*
X142761915Y-82995409D01*
X142766000Y-83036890D01*
X142766000Y-83638110D01*
X142761915Y-83679591D01*
X142751607Y-83713569D01*
X142734866Y-83744890D01*
X142712339Y-83772339D01*
X142684890Y-83794866D01*
X142653569Y-83811607D01*
X142619591Y-83821915D01*
X142578110Y-83826000D01*
X141901890Y-83826000D01*
X141860409Y-83821915D01*
X141826431Y-83811607D01*
X141795110Y-83794866D01*
X141767661Y-83772339D01*
X141745134Y-83744890D01*
X141728393Y-83713569D01*
X141718085Y-83679591D01*
X141714000Y-83638110D01*
X141714000Y-83036890D01*
X141718085Y-82995409D01*
X141728393Y-82961431D01*
X141745134Y-82930110D01*
X141767661Y-82902661D01*
X141795110Y-82880134D01*
X141826431Y-82863393D01*
X141860409Y-82853085D01*
X141901890Y-82849000D01*
X142578110Y-82849000D01*
X142619591Y-82853085D01*
G37*
G36*
X145159591Y-81278085D02*
G01*
X145193569Y-81288393D01*
X145224890Y-81305134D01*
X145252339Y-81327661D01*
X145274866Y-81355110D01*
X145291607Y-81386431D01*
X145301915Y-81420409D01*
X145306000Y-81461890D01*
X145306000Y-82063110D01*
X145301915Y-82104591D01*
X145291607Y-82138569D01*
X145274866Y-82169890D01*
X145252339Y-82197339D01*
X145224890Y-82219866D01*
X145193569Y-82236607D01*
X145159591Y-82246915D01*
X145118110Y-82251000D01*
X144441890Y-82251000D01*
X144400409Y-82246915D01*
X144366431Y-82236607D01*
X144335110Y-82219866D01*
X144307661Y-82197339D01*
X144285134Y-82169890D01*
X144268393Y-82138569D01*
X144258085Y-82104591D01*
X144254000Y-82063110D01*
X144254000Y-81461890D01*
X144258085Y-81420409D01*
X144268393Y-81386431D01*
X144285134Y-81355110D01*
X144307661Y-81327661D01*
X144335110Y-81305134D01*
X144366431Y-81288393D01*
X144400409Y-81278085D01*
X144441890Y-81274000D01*
X145118110Y-81274000D01*
X145159591Y-81278085D01*
G37*
G36*
X142619591Y-81278085D02*
G01*
X142653569Y-81288393D01*
X142684890Y-81305134D01*
X142712339Y-81327661D01*
X142734866Y-81355110D01*
X142751607Y-81386431D01*
X142761915Y-81420409D01*
X142766000Y-81461890D01*
X142766000Y-82063110D01*
X142761915Y-82104591D01*
X142751607Y-82138569D01*
X142734866Y-82169890D01*
X142712339Y-82197339D01*
X142684890Y-82219866D01*
X142653569Y-82236607D01*
X142619591Y-82246915D01*
X142578110Y-82251000D01*
X141901890Y-82251000D01*
X141860409Y-82246915D01*
X141826431Y-82236607D01*
X141795110Y-82219866D01*
X141767661Y-82197339D01*
X141745134Y-82169890D01*
X141728393Y-82138569D01*
X141718085Y-82104591D01*
X141714000Y-82063110D01*
X141714000Y-81461890D01*
X141718085Y-81420409D01*
X141728393Y-81386431D01*
X141745134Y-81355110D01*
X141767661Y-81327661D01*
X141795110Y-81305134D01*
X141826431Y-81288393D01*
X141860409Y-81278085D01*
X141901890Y-81274000D01*
X142578110Y-81274000D01*
X142619591Y-81278085D01*
G37*
G36*
X152024928Y-79051764D02*
G01*
X152046009Y-79058160D01*
X152065445Y-79068548D01*
X152082476Y-79082524D01*
X152096452Y-79099555D01*
X152106840Y-79118991D01*
X152113236Y-79140072D01*
X152116000Y-79168140D01*
X152116000Y-80981860D01*
X152113236Y-81009928D01*
X152106840Y-81031009D01*
X152096452Y-81050445D01*
X152082476Y-81067476D01*
X152065445Y-81081452D01*
X152046009Y-81091840D01*
X152024928Y-81098236D01*
X151996860Y-81101000D01*
X151533140Y-81101000D01*
X151505072Y-81098236D01*
X151483991Y-81091840D01*
X151464555Y-81081452D01*
X151447524Y-81067476D01*
X151433548Y-81050445D01*
X151423160Y-81031009D01*
X151416764Y-81009928D01*
X151414000Y-80981860D01*
X151414000Y-79168140D01*
X151416764Y-79140072D01*
X151423160Y-79118991D01*
X151433548Y-79099555D01*
X151447524Y-79082524D01*
X151464555Y-79068548D01*
X151483991Y-79058160D01*
X151505072Y-79051764D01*
X151533140Y-79049000D01*
X151996860Y-79049000D01*
X152024928Y-79051764D01*
G37*
G36*
X150754928Y-79051764D02*
G01*
X150776009Y-79058160D01*
X150795445Y-79068548D01*
X150812476Y-79082524D01*
X150826452Y-79099555D01*
X150836840Y-79118991D01*
X150843236Y-79140072D01*
X150846000Y-79168140D01*
X150846000Y-80981860D01*
X150843236Y-81009928D01*
X150836840Y-81031009D01*
X150826452Y-81050445D01*
X150812476Y-81067476D01*
X150795445Y-81081452D01*
X150776009Y-81091840D01*
X150754928Y-81098236D01*
X150726860Y-81101000D01*
X150263140Y-81101000D01*
X150235072Y-81098236D01*
X150213991Y-81091840D01*
X150194555Y-81081452D01*
X150177524Y-81067476D01*
X150163548Y-81050445D01*
X150153160Y-81031009D01*
X150146764Y-81009928D01*
X150144000Y-80981860D01*
X150144000Y-79168140D01*
X150146764Y-79140072D01*
X150153160Y-79118991D01*
X150163548Y-79099555D01*
X150177524Y-79082524D01*
X150194555Y-79068548D01*
X150213991Y-79058160D01*
X150235072Y-79051764D01*
X150263140Y-79049000D01*
X150726860Y-79049000D01*
X150754928Y-79051764D01*
G37*
G36*
X149484928Y-79051764D02*
G01*
X149506009Y-79058160D01*
X149525445Y-79068548D01*
X149542476Y-79082524D01*
X149556452Y-79099555D01*
X149566840Y-79118991D01*
X149573236Y-79140072D01*
X149576000Y-79168140D01*
X149576000Y-80981860D01*
X149573236Y-81009928D01*
X149566840Y-81031009D01*
X149556452Y-81050445D01*
X149542476Y-81067476D01*
X149525445Y-81081452D01*
X149506009Y-81091840D01*
X149484928Y-81098236D01*
X149456860Y-81101000D01*
X148993140Y-81101000D01*
X148965072Y-81098236D01*
X148943991Y-81091840D01*
X148924555Y-81081452D01*
X148907524Y-81067476D01*
X148893548Y-81050445D01*
X148883160Y-81031009D01*
X148876764Y-81009928D01*
X148874000Y-80981860D01*
X148874000Y-79168140D01*
X148876764Y-79140072D01*
X148883160Y-79118991D01*
X148893548Y-79099555D01*
X148907524Y-79082524D01*
X148924555Y-79068548D01*
X148943991Y-79058160D01*
X148965072Y-79051764D01*
X148993140Y-79049000D01*
X149456860Y-79049000D01*
X149484928Y-79051764D01*
G37*
G36*
X148214928Y-79051764D02*
G01*
X148236009Y-79058160D01*
X148255445Y-79068548D01*
X148272476Y-79082524D01*
X148286452Y-79099555D01*
X148296840Y-79118991D01*
X148303236Y-79140072D01*
X148306000Y-79168140D01*
X148306000Y-80981860D01*
X148303236Y-81009928D01*
X148296840Y-81031009D01*
X148286452Y-81050445D01*
X148272476Y-81067476D01*
X148255445Y-81081452D01*
X148236009Y-81091840D01*
X148214928Y-81098236D01*
X148186860Y-81101000D01*
X147723140Y-81101000D01*
X147695072Y-81098236D01*
X147673991Y-81091840D01*
X147654555Y-81081452D01*
X147637524Y-81067476D01*
X147623548Y-81050445D01*
X147613160Y-81031009D01*
X147606764Y-81009928D01*
X147604000Y-80981860D01*
X147604000Y-79168140D01*
X147606764Y-79140072D01*
X147613160Y-79118991D01*
X147623548Y-79099555D01*
X147637524Y-79082524D01*
X147654555Y-79068548D01*
X147673991Y-79058160D01*
X147695072Y-79051764D01*
X147723140Y-79049000D01*
X148186860Y-79049000D01*
X148214928Y-79051764D01*
G37*
G36*
X129899293Y-78149000D02*
G01*
X129934072Y-78155918D01*
X130179939Y-78257759D01*
X130238258Y-78296727D01*
X130401211Y-78405609D01*
X130589391Y-78593789D01*
X130737242Y-78815063D01*
X130839082Y-79060928D01*
X130871619Y-79224500D01*
X130891000Y-79321938D01*
X130891000Y-79588062D01*
X130839082Y-79849072D01*
X130737241Y-80094939D01*
X130589390Y-80316212D01*
X130401212Y-80504390D01*
X130179939Y-80652241D01*
X130179938Y-80652242D01*
X130179937Y-80652242D01*
X129934072Y-80754082D01*
X129673063Y-80806000D01*
X129406937Y-80806000D01*
X129145928Y-80754082D01*
X128900063Y-80652242D01*
X128900062Y-80652242D01*
X128900061Y-80652241D01*
X128678788Y-80504390D01*
X128490610Y-80316212D01*
X128342759Y-80094939D01*
X128240918Y-79849072D01*
X128189000Y-79588062D01*
X128189000Y-79321938D01*
X128208382Y-79224500D01*
X128240918Y-79060928D01*
X128342758Y-78815063D01*
X128490609Y-78593789D01*
X128678789Y-78405609D01*
X128841742Y-78296727D01*
X128900061Y-78257759D01*
X129145928Y-78155918D01*
X129180707Y-78149000D01*
X129406937Y-78104000D01*
X129673063Y-78104000D01*
X129899293Y-78149000D01*
G37*
G36*
X171449239Y-73011467D02*
G01*
X171763282Y-73073934D01*
X172354926Y-73319001D01*
X172887392Y-73674784D01*
X173340216Y-74127608D01*
X173695999Y-74660074D01*
X173941066Y-75251718D01*
X173991326Y-75504390D01*
X174066000Y-75879803D01*
X174066000Y-76520197D01*
X174003533Y-76834239D01*
X173941066Y-77148282D01*
X173695999Y-77739926D01*
X173452732Y-78104000D01*
X173349994Y-78257759D01*
X173340216Y-78272392D01*
X172887392Y-78725216D01*
X172354926Y-79080999D01*
X171763282Y-79326066D01*
X171449239Y-79388533D01*
X171135197Y-79451000D01*
X170494803Y-79451000D01*
X170180761Y-79388533D01*
X169866718Y-79326066D01*
X169275074Y-79080999D01*
X168742608Y-78725216D01*
X168289784Y-78272392D01*
X168280007Y-78257759D01*
X168177268Y-78104000D01*
X167934001Y-77739926D01*
X167688934Y-77148282D01*
X167626467Y-76834239D01*
X167564000Y-76520197D01*
X167564000Y-75879803D01*
X167638674Y-75504390D01*
X167688934Y-75251718D01*
X167934001Y-74660074D01*
X168289784Y-74127608D01*
X168742608Y-73674784D01*
X169275074Y-73319001D01*
X169866718Y-73073934D01*
X170180761Y-73011467D01*
X170494803Y-72949000D01*
X171135197Y-72949000D01*
X171449239Y-73011467D01*
G37*
G36*
X129934072Y-73155918D02*
G01*
X130179939Y-73257759D01*
X130271593Y-73319001D01*
X130401211Y-73405609D01*
X130589391Y-73593789D01*
X130737242Y-73815063D01*
X130839082Y-74060928D01*
X130891000Y-74321937D01*
X130891000Y-74588063D01*
X130864401Y-74721784D01*
X130839082Y-74849072D01*
X130737241Y-75094939D01*
X130589390Y-75316212D01*
X130401212Y-75504390D01*
X130179939Y-75652241D01*
X130179938Y-75652242D01*
X130179937Y-75652242D01*
X129934072Y-75754082D01*
X129673063Y-75806000D01*
X129406937Y-75806000D01*
X129145928Y-75754082D01*
X128900063Y-75652242D01*
X128900062Y-75652242D01*
X128900061Y-75652241D01*
X128678788Y-75504390D01*
X128490610Y-75316212D01*
X128342759Y-75094939D01*
X128240918Y-74849072D01*
X128215599Y-74721784D01*
X128189000Y-74588063D01*
X128189000Y-74321937D01*
X128240918Y-74060928D01*
X128342758Y-73815063D01*
X128490609Y-73593789D01*
X128678789Y-73405609D01*
X128808407Y-73319001D01*
X128900061Y-73257759D01*
X129145928Y-73155918D01*
X129406937Y-73104000D01*
X129673063Y-73104000D01*
X129934072Y-73155918D01*
G37*
G36*
X162038512Y-73398927D02*
G01*
X162187812Y-73428624D01*
X162351784Y-73496544D01*
X162499354Y-73595147D01*
X162624853Y-73720646D01*
X162723456Y-73868216D01*
X162791376Y-74032188D01*
X162826000Y-74206259D01*
X162826000Y-74383741D01*
X162791376Y-74557812D01*
X162723456Y-74721784D01*
X162624853Y-74869354D01*
X162499354Y-74994853D01*
X162351784Y-75093456D01*
X162187812Y-75161376D01*
X162038512Y-75191073D01*
X162013742Y-75196000D01*
X161836258Y-75196000D01*
X161811488Y-75191073D01*
X161662188Y-75161376D01*
X161498216Y-75093456D01*
X161350646Y-74994853D01*
X161225147Y-74869354D01*
X161126544Y-74721784D01*
X161058624Y-74557812D01*
X161024000Y-74383741D01*
X161024000Y-74206259D01*
X161058624Y-74032188D01*
X161126544Y-73868216D01*
X161225147Y-73720646D01*
X161350646Y-73595147D01*
X161498216Y-73496544D01*
X161662188Y-73428624D01*
X161811488Y-73398927D01*
X161836258Y-73394000D01*
X162013742Y-73394000D01*
X162038512Y-73398927D01*
G37*
G36*
X150126000Y-75196000D02*
G01*
X148324000Y-75196000D01*
X148324000Y-73394000D01*
X150126000Y-73394000D01*
X150126000Y-75196000D01*
G37*
G36*
X151878512Y-73398927D02*
G01*
X152027812Y-73428624D01*
X152191784Y-73496544D01*
X152339354Y-73595147D01*
X152464853Y-73720646D01*
X152563456Y-73868216D01*
X152631376Y-74032188D01*
X152666000Y-74206259D01*
X152666000Y-74383741D01*
X152631376Y-74557812D01*
X152563456Y-74721784D01*
X152464853Y-74869354D01*
X152339354Y-74994853D01*
X152191784Y-75093456D01*
X152027812Y-75161376D01*
X151878512Y-75191073D01*
X151853742Y-75196000D01*
X151676258Y-75196000D01*
X151651488Y-75191073D01*
X151502188Y-75161376D01*
X151338216Y-75093456D01*
X151190646Y-74994853D01*
X151065147Y-74869354D01*
X150966544Y-74721784D01*
X150898624Y-74557812D01*
X150864000Y-74383741D01*
X150864000Y-74206259D01*
X150898624Y-74032188D01*
X150966544Y-73868216D01*
X151065147Y-73720646D01*
X151190646Y-73595147D01*
X151338216Y-73496544D01*
X151502188Y-73428624D01*
X151651488Y-73398927D01*
X151676258Y-73394000D01*
X151853742Y-73394000D01*
X151878512Y-73398927D01*
G37*
G36*
X154418512Y-73398927D02*
G01*
X154567812Y-73428624D01*
X154731784Y-73496544D01*
X154879354Y-73595147D01*
X155004853Y-73720646D01*
X155103456Y-73868216D01*
X155171376Y-74032188D01*
X155206000Y-74206259D01*
X155206000Y-74383741D01*
X155171376Y-74557812D01*
X155103456Y-74721784D01*
X155004853Y-74869354D01*
X154879354Y-74994853D01*
X154731784Y-75093456D01*
X154567812Y-75161376D01*
X154418512Y-75191073D01*
X154393742Y-75196000D01*
X154216258Y-75196000D01*
X154191488Y-75191073D01*
X154042188Y-75161376D01*
X153878216Y-75093456D01*
X153730646Y-74994853D01*
X153605147Y-74869354D01*
X153506544Y-74721784D01*
X153438624Y-74557812D01*
X153404000Y-74383741D01*
X153404000Y-74206259D01*
X153438624Y-74032188D01*
X153506544Y-73868216D01*
X153605147Y-73720646D01*
X153730646Y-73595147D01*
X153878216Y-73496544D01*
X154042188Y-73428624D01*
X154191488Y-73398927D01*
X154216258Y-73394000D01*
X154393742Y-73394000D01*
X154418512Y-73398927D01*
G37*
G36*
X156958512Y-73398927D02*
G01*
X157107812Y-73428624D01*
X157271784Y-73496544D01*
X157419354Y-73595147D01*
X157544853Y-73720646D01*
X157643456Y-73868216D01*
X157711376Y-74032188D01*
X157746000Y-74206259D01*
X157746000Y-74383741D01*
X157711376Y-74557812D01*
X157643456Y-74721784D01*
X157544853Y-74869354D01*
X157419354Y-74994853D01*
X157271784Y-75093456D01*
X157107812Y-75161376D01*
X156958512Y-75191073D01*
X156933742Y-75196000D01*
X156756258Y-75196000D01*
X156731488Y-75191073D01*
X156582188Y-75161376D01*
X156418216Y-75093456D01*
X156270646Y-74994853D01*
X156145147Y-74869354D01*
X156046544Y-74721784D01*
X155978624Y-74557812D01*
X155944000Y-74383741D01*
X155944000Y-74206259D01*
X155978624Y-74032188D01*
X156046544Y-73868216D01*
X156145147Y-73720646D01*
X156270646Y-73595147D01*
X156418216Y-73496544D01*
X156582188Y-73428624D01*
X156731488Y-73398927D01*
X156756258Y-73394000D01*
X156933742Y-73394000D01*
X156958512Y-73398927D01*
G37*
G36*
X159498512Y-73398927D02*
G01*
X159647812Y-73428624D01*
X159811784Y-73496544D01*
X159959354Y-73595147D01*
X160084853Y-73720646D01*
X160183456Y-73868216D01*
X160251376Y-74032188D01*
X160286000Y-74206259D01*
X160286000Y-74383741D01*
X160251376Y-74557812D01*
X160183456Y-74721784D01*
X160084853Y-74869354D01*
X159959354Y-74994853D01*
X159811784Y-75093456D01*
X159647812Y-75161376D01*
X159498512Y-75191073D01*
X159473742Y-75196000D01*
X159296258Y-75196000D01*
X159271488Y-75191073D01*
X159122188Y-75161376D01*
X158958216Y-75093456D01*
X158810646Y-74994853D01*
X158685147Y-74869354D01*
X158586544Y-74721784D01*
X158518624Y-74557812D01*
X158484000Y-74383741D01*
X158484000Y-74206259D01*
X158518624Y-74032188D01*
X158586544Y-73868216D01*
X158685147Y-73720646D01*
X158810646Y-73595147D01*
X158958216Y-73496544D01*
X159122188Y-73428624D01*
X159271488Y-73398927D01*
X159296258Y-73394000D01*
X159473742Y-73394000D01*
X159498512Y-73398927D01*
G37*
M02*
