G04 #@! TF.GenerationSoftware,KiCad,Pcbnew,(5.1.5)-3*
G04 #@! TF.CreationDate,2020-06-25T10:52:07+02:00*
G04 #@! TF.ProjectId,VacTool,56616354-6f6f-46c2-9e6b-696361645f70,v0.0*
G04 #@! TF.SameCoordinates,Original*
G04 #@! TF.FileFunction,Legend,Top*
G04 #@! TF.FilePolarity,Positive*
%FSLAX46Y46*%
G04 Gerber Fmt 4.6, Leading zero omitted, Abs format (unit mm)*
G04 Created by KiCad (PCBNEW (5.1.5)-3) date 2020-06-25 10:52:07*
%MOMM*%
%LPD*%
G04 APERTURE LIST*
%ADD10C,0.300000*%
%ADD11C,0.100000*%
%ADD12C,0.120000*%
%ADD13C,0.150000*%
G04 APERTURE END LIST*
D10*
X131842142Y-122233571D02*
X132199285Y-123233571D01*
X132556428Y-122233571D01*
X133413571Y-121733571D02*
X133556428Y-121733571D01*
X133699285Y-121805000D01*
X133770714Y-121876428D01*
X133842142Y-122019285D01*
X133913571Y-122305000D01*
X133913571Y-122662142D01*
X133842142Y-122947857D01*
X133770714Y-123090714D01*
X133699285Y-123162142D01*
X133556428Y-123233571D01*
X133413571Y-123233571D01*
X133270714Y-123162142D01*
X133199285Y-123090714D01*
X133127857Y-122947857D01*
X133056428Y-122662142D01*
X133056428Y-122305000D01*
X133127857Y-122019285D01*
X133199285Y-121876428D01*
X133270714Y-121805000D01*
X133413571Y-121733571D01*
X134556428Y-123090714D02*
X134627857Y-123162142D01*
X134556428Y-123233571D01*
X134485000Y-123162142D01*
X134556428Y-123090714D01*
X134556428Y-123233571D01*
X135556428Y-121733571D02*
X135699285Y-121733571D01*
X135842142Y-121805000D01*
X135913571Y-121876428D01*
X135985000Y-122019285D01*
X136056428Y-122305000D01*
X136056428Y-122662142D01*
X135985000Y-122947857D01*
X135913571Y-123090714D01*
X135842142Y-123162142D01*
X135699285Y-123233571D01*
X135556428Y-123233571D01*
X135413571Y-123162142D01*
X135342142Y-123090714D01*
X135270714Y-122947857D01*
X135199285Y-122662142D01*
X135199285Y-122305000D01*
X135270714Y-122019285D01*
X135342142Y-121876428D01*
X135413571Y-121805000D01*
X135556428Y-121733571D01*
X161257142Y-109223571D02*
X161328571Y-109009285D01*
X161328571Y-108652142D01*
X161257142Y-108509285D01*
X161185714Y-108437857D01*
X161042857Y-108366428D01*
X160900000Y-108366428D01*
X160757142Y-108437857D01*
X160685714Y-108509285D01*
X160614285Y-108652142D01*
X160542857Y-108937857D01*
X160471428Y-109080714D01*
X160400000Y-109152142D01*
X160257142Y-109223571D01*
X160114285Y-109223571D01*
X159971428Y-109152142D01*
X159900000Y-109080714D01*
X159828571Y-108937857D01*
X159828571Y-108580714D01*
X159900000Y-108366428D01*
X161328571Y-107509285D02*
X161257142Y-107652142D01*
X161185714Y-107723571D01*
X161042857Y-107795000D01*
X160614285Y-107795000D01*
X160471428Y-107723571D01*
X160400000Y-107652142D01*
X160328571Y-107509285D01*
X160328571Y-107295000D01*
X160400000Y-107152142D01*
X160471428Y-107080714D01*
X160614285Y-107009285D01*
X161042857Y-107009285D01*
X161185714Y-107080714D01*
X161257142Y-107152142D01*
X161328571Y-107295000D01*
X161328571Y-107509285D01*
X161328571Y-106152142D02*
X161257142Y-106295000D01*
X161114285Y-106366428D01*
X159828571Y-106366428D01*
X161257142Y-105009285D02*
X161328571Y-105152142D01*
X161328571Y-105437857D01*
X161257142Y-105580714D01*
X161114285Y-105652142D01*
X160542857Y-105652142D01*
X160400000Y-105580714D01*
X160328571Y-105437857D01*
X160328571Y-105152142D01*
X160400000Y-105009285D01*
X160542857Y-104937857D01*
X160685714Y-104937857D01*
X160828571Y-105652142D01*
X160328571Y-104295000D02*
X161328571Y-104295000D01*
X160471428Y-104295000D02*
X160400000Y-104223571D01*
X160328571Y-104080714D01*
X160328571Y-103866428D01*
X160400000Y-103723571D01*
X160542857Y-103652142D01*
X161328571Y-103652142D01*
X161185714Y-102937857D02*
X161257142Y-102866428D01*
X161328571Y-102937857D01*
X161257142Y-103009285D01*
X161185714Y-102937857D01*
X161328571Y-102937857D01*
X163307142Y-108116428D02*
X163307142Y-106973571D01*
X163307142Y-105116428D02*
X163307142Y-103973571D01*
X163878571Y-104545000D02*
X162735714Y-104545000D01*
X161328571Y-96730000D02*
X159828571Y-96730000D01*
X159828571Y-96158571D01*
X159900000Y-96015714D01*
X159971428Y-95944285D01*
X160114285Y-95872857D01*
X160328571Y-95872857D01*
X160471428Y-95944285D01*
X160542857Y-96015714D01*
X160614285Y-96158571D01*
X160614285Y-96730000D01*
X160328571Y-94587142D02*
X161328571Y-94587142D01*
X160328571Y-95230000D02*
X161114285Y-95230000D01*
X161257142Y-95158571D01*
X161328571Y-95015714D01*
X161328571Y-94801428D01*
X161257142Y-94658571D01*
X161185714Y-94587142D01*
X161328571Y-93872857D02*
X160328571Y-93872857D01*
X160471428Y-93872857D02*
X160400000Y-93801428D01*
X160328571Y-93658571D01*
X160328571Y-93444285D01*
X160400000Y-93301428D01*
X160542857Y-93230000D01*
X161328571Y-93230000D01*
X160542857Y-93230000D02*
X160400000Y-93158571D01*
X160328571Y-93015714D01*
X160328571Y-92801428D01*
X160400000Y-92658571D01*
X160542857Y-92587142D01*
X161328571Y-92587142D01*
X160328571Y-91872857D02*
X161828571Y-91872857D01*
X160400000Y-91872857D02*
X160328571Y-91730000D01*
X160328571Y-91444285D01*
X160400000Y-91301428D01*
X160471428Y-91230000D01*
X160614285Y-91158571D01*
X161042857Y-91158571D01*
X161185714Y-91230000D01*
X161257142Y-91301428D01*
X161328571Y-91444285D01*
X161328571Y-91730000D01*
X161257142Y-91872857D01*
X163307142Y-96051428D02*
X163307142Y-94908571D01*
X163307142Y-93051428D02*
X163307142Y-91908571D01*
X163878571Y-92480000D02*
X162735714Y-92480000D01*
X140660714Y-74973571D02*
X140660714Y-73473571D01*
X142232142Y-74830714D02*
X142160714Y-74902142D01*
X141946428Y-74973571D01*
X141803571Y-74973571D01*
X141589285Y-74902142D01*
X141446428Y-74759285D01*
X141375000Y-74616428D01*
X141303571Y-74330714D01*
X141303571Y-74116428D01*
X141375000Y-73830714D01*
X141446428Y-73687857D01*
X141589285Y-73545000D01*
X141803571Y-73473571D01*
X141946428Y-73473571D01*
X142160714Y-73545000D01*
X142232142Y-73616428D01*
X142803571Y-74902142D02*
X143017857Y-74973571D01*
X143375000Y-74973571D01*
X143517857Y-74902142D01*
X143589285Y-74830714D01*
X143660714Y-74687857D01*
X143660714Y-74545000D01*
X143589285Y-74402142D01*
X143517857Y-74330714D01*
X143375000Y-74259285D01*
X143089285Y-74187857D01*
X142946428Y-74116428D01*
X142875000Y-74045000D01*
X142803571Y-73902142D01*
X142803571Y-73759285D01*
X142875000Y-73616428D01*
X142946428Y-73545000D01*
X143089285Y-73473571D01*
X143446428Y-73473571D01*
X143660714Y-73545000D01*
X144303571Y-74973571D02*
X144303571Y-73473571D01*
X144875000Y-73473571D01*
X145017857Y-73545000D01*
X145089285Y-73616428D01*
X145160714Y-73759285D01*
X145160714Y-73973571D01*
X145089285Y-74116428D01*
X145017857Y-74187857D01*
X144875000Y-74259285D01*
X144303571Y-74259285D01*
X137756428Y-105080714D02*
X137756428Y-104366428D01*
X139256428Y-104366428D01*
X138542142Y-105580714D02*
X138542142Y-106080714D01*
X137756428Y-106295000D02*
X137756428Y-105580714D01*
X139256428Y-105580714D01*
X139256428Y-106295000D01*
X137756428Y-106937857D02*
X139256428Y-106937857D01*
X139256428Y-107295000D01*
X139185000Y-107509285D01*
X139042142Y-107652142D01*
X138899285Y-107723571D01*
X138613571Y-107795000D01*
X138399285Y-107795000D01*
X138113571Y-107723571D01*
X137970714Y-107652142D01*
X137827857Y-107509285D01*
X137756428Y-107295000D01*
X137756428Y-106937857D01*
X135777857Y-103973571D02*
X135777857Y-105116428D01*
X135206428Y-104545000D02*
X136349285Y-104545000D01*
X135777857Y-106973571D02*
X135777857Y-108116428D01*
X138537142Y-92408571D02*
X138537142Y-91908571D01*
X137751428Y-91908571D02*
X139251428Y-91908571D01*
X139251428Y-92622857D01*
X137751428Y-93408571D02*
X137822857Y-93265714D01*
X137894285Y-93194285D01*
X138037142Y-93122857D01*
X138465714Y-93122857D01*
X138608571Y-93194285D01*
X138680000Y-93265714D01*
X138751428Y-93408571D01*
X138751428Y-93622857D01*
X138680000Y-93765714D01*
X138608571Y-93837142D01*
X138465714Y-93908571D01*
X138037142Y-93908571D01*
X137894285Y-93837142D01*
X137822857Y-93765714D01*
X137751428Y-93622857D01*
X137751428Y-93408571D01*
X137751428Y-94765714D02*
X137822857Y-94622857D01*
X137894285Y-94551428D01*
X138037142Y-94480000D01*
X138465714Y-94480000D01*
X138608571Y-94551428D01*
X138680000Y-94622857D01*
X138751428Y-94765714D01*
X138751428Y-94980000D01*
X138680000Y-95122857D01*
X138608571Y-95194285D01*
X138465714Y-95265714D01*
X138037142Y-95265714D01*
X137894285Y-95194285D01*
X137822857Y-95122857D01*
X137751428Y-94980000D01*
X137751428Y-94765714D01*
X138751428Y-95694285D02*
X138751428Y-96265714D01*
X139251428Y-95908571D02*
X137965714Y-95908571D01*
X137822857Y-95980000D01*
X137751428Y-96122857D01*
X137751428Y-96265714D01*
X139026428Y-77160714D02*
X140526428Y-77160714D01*
X140526428Y-77732142D01*
X140455000Y-77875000D01*
X140383571Y-77946428D01*
X140240714Y-78017857D01*
X140026428Y-78017857D01*
X139883571Y-77946428D01*
X139812142Y-77875000D01*
X139740714Y-77732142D01*
X139740714Y-77160714D01*
X139026428Y-78875000D02*
X139097857Y-78732142D01*
X139169285Y-78660714D01*
X139312142Y-78589285D01*
X139740714Y-78589285D01*
X139883571Y-78660714D01*
X139955000Y-78732142D01*
X140026428Y-78875000D01*
X140026428Y-79089285D01*
X139955000Y-79232142D01*
X139883571Y-79303571D01*
X139740714Y-79375000D01*
X139312142Y-79375000D01*
X139169285Y-79303571D01*
X139097857Y-79232142D01*
X139026428Y-79089285D01*
X139026428Y-78875000D01*
X140026428Y-79803571D02*
X140026428Y-80375000D01*
X140526428Y-80017857D02*
X139240714Y-80017857D01*
X139097857Y-80089285D01*
X139026428Y-80232142D01*
X139026428Y-80375000D01*
X139026428Y-80875000D02*
X140026428Y-80875000D01*
X140526428Y-80875000D02*
X140455000Y-80803571D01*
X140383571Y-80875000D01*
X140455000Y-80946428D01*
X140526428Y-80875000D01*
X140383571Y-80875000D01*
X139169285Y-81589285D02*
X139097857Y-81660714D01*
X139026428Y-81589285D01*
X139097857Y-81517857D01*
X139169285Y-81589285D01*
X139026428Y-81589285D01*
X137047857Y-76017857D02*
X137047857Y-77160714D01*
X136476428Y-76589285D02*
X137619285Y-76589285D01*
X136547857Y-78946428D02*
X136476428Y-79160714D01*
X136476428Y-79517857D01*
X136547857Y-79660714D01*
X136619285Y-79732142D01*
X136762142Y-79803571D01*
X136905000Y-79803571D01*
X137047857Y-79732142D01*
X137119285Y-79660714D01*
X137190714Y-79517857D01*
X137262142Y-79232142D01*
X137333571Y-79089285D01*
X137405000Y-79017857D01*
X137547857Y-78946428D01*
X137690714Y-78946428D01*
X137833571Y-79017857D01*
X137905000Y-79089285D01*
X137976428Y-79232142D01*
X137976428Y-79589285D01*
X137905000Y-79803571D01*
X137047857Y-81589285D02*
X137047857Y-82732142D01*
X163826904Y-81074761D02*
X164493571Y-83074761D01*
X165160238Y-81074761D01*
X166684047Y-83074761D02*
X166684047Y-82027142D01*
X166588809Y-81836666D01*
X166398333Y-81741428D01*
X166017380Y-81741428D01*
X165826904Y-81836666D01*
X166684047Y-82979523D02*
X166493571Y-83074761D01*
X166017380Y-83074761D01*
X165826904Y-82979523D01*
X165731666Y-82789047D01*
X165731666Y-82598571D01*
X165826904Y-82408095D01*
X166017380Y-82312857D01*
X166493571Y-82312857D01*
X166684047Y-82217619D01*
X168493571Y-82979523D02*
X168303095Y-83074761D01*
X167922142Y-83074761D01*
X167731666Y-82979523D01*
X167636428Y-82884285D01*
X167541190Y-82693809D01*
X167541190Y-82122380D01*
X167636428Y-81931904D01*
X167731666Y-81836666D01*
X167922142Y-81741428D01*
X168303095Y-81741428D01*
X168493571Y-81836666D01*
X169065000Y-81074761D02*
X170207857Y-81074761D01*
X169636428Y-83074761D02*
X169636428Y-81074761D01*
X171160238Y-83074761D02*
X170969761Y-82979523D01*
X170874523Y-82884285D01*
X170779285Y-82693809D01*
X170779285Y-82122380D01*
X170874523Y-81931904D01*
X170969761Y-81836666D01*
X171160238Y-81741428D01*
X171445952Y-81741428D01*
X171636428Y-81836666D01*
X171731666Y-81931904D01*
X171826904Y-82122380D01*
X171826904Y-82693809D01*
X171731666Y-82884285D01*
X171636428Y-82979523D01*
X171445952Y-83074761D01*
X171160238Y-83074761D01*
X172969761Y-83074761D02*
X172779285Y-82979523D01*
X172684047Y-82884285D01*
X172588809Y-82693809D01*
X172588809Y-82122380D01*
X172684047Y-81931904D01*
X172779285Y-81836666D01*
X172969761Y-81741428D01*
X173255476Y-81741428D01*
X173445952Y-81836666D01*
X173541190Y-81931904D01*
X173636428Y-82122380D01*
X173636428Y-82693809D01*
X173541190Y-82884285D01*
X173445952Y-82979523D01*
X173255476Y-83074761D01*
X172969761Y-83074761D01*
X174779285Y-83074761D02*
X174588809Y-82979523D01*
X174493571Y-82789047D01*
X174493571Y-81074761D01*
X164874523Y-86279523D02*
X165160238Y-86374761D01*
X165636428Y-86374761D01*
X165826904Y-86279523D01*
X165922142Y-86184285D01*
X166017380Y-85993809D01*
X166017380Y-85803333D01*
X165922142Y-85612857D01*
X165826904Y-85517619D01*
X165636428Y-85422380D01*
X165255476Y-85327142D01*
X165065000Y-85231904D01*
X164969761Y-85136666D01*
X164874523Y-84946190D01*
X164874523Y-84755714D01*
X164969761Y-84565238D01*
X165065000Y-84470000D01*
X165255476Y-84374761D01*
X165731666Y-84374761D01*
X166017380Y-84470000D01*
X168017380Y-86184285D02*
X167922142Y-86279523D01*
X167636428Y-86374761D01*
X167445952Y-86374761D01*
X167160238Y-86279523D01*
X166969761Y-86089047D01*
X166874523Y-85898571D01*
X166779285Y-85517619D01*
X166779285Y-85231904D01*
X166874523Y-84850952D01*
X166969761Y-84660476D01*
X167160238Y-84470000D01*
X167445952Y-84374761D01*
X167636428Y-84374761D01*
X167922142Y-84470000D01*
X168017380Y-84565238D01*
X168874523Y-86374761D02*
X168874523Y-84374761D01*
X168874523Y-85327142D02*
X170017380Y-85327142D01*
X170017380Y-86374761D02*
X170017380Y-84374761D01*
X170969761Y-86374761D02*
X170969761Y-84374761D01*
X172874523Y-86374761D02*
X171922142Y-86374761D01*
X171922142Y-84374761D01*
X173541190Y-86374761D02*
X173541190Y-84374761D01*
X174684047Y-86374761D02*
X173826904Y-85231904D01*
X174684047Y-84374761D02*
X173541190Y-85517619D01*
D11*
G36*
X147320000Y-74295000D02*
G01*
X146050000Y-74930000D01*
X146050000Y-73660000D01*
X147320000Y-74295000D01*
G37*
X147320000Y-74295000D02*
X146050000Y-74930000D01*
X146050000Y-73660000D01*
X147320000Y-74295000D01*
D10*
X161328571Y-120360000D02*
X161328571Y-121217142D01*
X161328571Y-120788571D02*
X159828571Y-120788571D01*
X160042857Y-120931428D01*
X160185714Y-121074285D01*
X160257142Y-121217142D01*
X159971428Y-119788571D02*
X159900000Y-119717142D01*
X159828571Y-119574285D01*
X159828571Y-119217142D01*
X159900000Y-119074285D01*
X159971428Y-119002857D01*
X160114285Y-118931428D01*
X160257142Y-118931428D01*
X160471428Y-119002857D01*
X161328571Y-119860000D01*
X161328571Y-118931428D01*
X159828571Y-118502857D02*
X161328571Y-118002857D01*
X159828571Y-117502857D01*
X161328571Y-116360000D02*
X159828571Y-116360000D01*
X161257142Y-116360000D02*
X161328571Y-116502857D01*
X161328571Y-116788571D01*
X161257142Y-116931428D01*
X161185714Y-117002857D01*
X161042857Y-117074285D01*
X160614285Y-117074285D01*
X160471428Y-117002857D01*
X160400000Y-116931428D01*
X160328571Y-116788571D01*
X160328571Y-116502857D01*
X160400000Y-116360000D01*
X161257142Y-115002857D02*
X161328571Y-115145714D01*
X161328571Y-115431428D01*
X161257142Y-115574285D01*
X161185714Y-115645714D01*
X161042857Y-115717142D01*
X160614285Y-115717142D01*
X160471428Y-115645714D01*
X160400000Y-115574285D01*
X160328571Y-115431428D01*
X160328571Y-115145714D01*
X160400000Y-115002857D01*
X163307142Y-120181428D02*
X163307142Y-119038571D01*
X163307142Y-117181428D02*
X163307142Y-116038571D01*
X163878571Y-116610000D02*
X162735714Y-116610000D01*
D12*
X134440000Y-87255000D02*
X134440000Y-86755000D01*
X133700000Y-87255000D02*
X134440000Y-87255000D01*
X130563000Y-75682000D02*
X130609000Y-75729000D01*
X128265000Y-73385000D02*
X128301000Y-73420000D01*
X130779000Y-75489000D02*
X130814000Y-75524000D01*
X128471000Y-73180000D02*
X128517000Y-73227000D01*
X130563000Y-80682000D02*
X130609000Y-80729000D01*
X128265000Y-78385000D02*
X128301000Y-78420000D01*
X130779000Y-80489000D02*
X130814000Y-80524000D01*
X128471000Y-78180000D02*
X128517000Y-78227000D01*
X124279000Y-71895000D02*
X134200000Y-71895000D01*
X124279000Y-87015000D02*
X134200000Y-87015000D01*
X134200000Y-87015000D02*
X134200000Y-71895000D01*
X124279000Y-87015000D02*
X124279000Y-71895000D01*
X127239000Y-87015000D02*
X127239000Y-71895000D01*
X132140000Y-87015000D02*
X132140000Y-71895000D01*
X133640000Y-87015000D02*
X133640000Y-71895000D01*
X131220000Y-74455000D02*
G75*
G03X131220000Y-74455000I-1680000J0D01*
G01*
X131220000Y-79455000D02*
G75*
G03X131220000Y-79455000I-1680000J0D01*
G01*
X131220253Y-84426195D02*
G75*
G02X131075000Y-85139000I-1680253J-28805D01*
G01*
X130223042Y-85990426D02*
G75*
G02X128856000Y-85990000I-683042J1535426D01*
G01*
X128004574Y-85138042D02*
G75*
G02X128005000Y-83771000I1535426J683042D01*
G01*
X128856958Y-82919574D02*
G75*
G02X130224000Y-82920000I683042J-1535426D01*
G01*
X131074756Y-83771682D02*
G75*
G02X131220000Y-84455000I-1534756J-683318D01*
G01*
X164645000Y-100785000D02*
X164645000Y-101285000D01*
X165385000Y-100785000D02*
X164645000Y-100785000D01*
X168522000Y-107358000D02*
X168476000Y-107311000D01*
X170820000Y-109655000D02*
X170784000Y-109620000D01*
X168306000Y-107551000D02*
X168271000Y-107516000D01*
X170614000Y-109860000D02*
X170568000Y-109813000D01*
X174806000Y-111145000D02*
X164885000Y-111145000D01*
X174806000Y-101025000D02*
X164885000Y-101025000D01*
X164885000Y-101025000D02*
X164885000Y-111145000D01*
X174806000Y-101025000D02*
X174806000Y-111145000D01*
X171846000Y-101025000D02*
X171846000Y-111145000D01*
X166945000Y-101025000D02*
X166945000Y-111145000D01*
X165445000Y-101025000D02*
X165445000Y-111145000D01*
X171225000Y-108585000D02*
G75*
G03X171225000Y-108585000I-1680000J0D01*
G01*
X167864747Y-103613805D02*
G75*
G02X168010000Y-102901000I1680253J28805D01*
G01*
X168861958Y-102049574D02*
G75*
G02X170229000Y-102050000I683042J-1535426D01*
G01*
X171080426Y-102901958D02*
G75*
G02X171080000Y-104269000I-1535426J-683042D01*
G01*
X170228042Y-105120426D02*
G75*
G02X168861000Y-105120000I-683042J1535426D01*
G01*
X168010244Y-104268318D02*
G75*
G02X167865000Y-103585000I1534756J683318D01*
G01*
X134440000Y-99320000D02*
X134440000Y-98820000D01*
X133700000Y-99320000D02*
X134440000Y-99320000D01*
X130563000Y-92747000D02*
X130609000Y-92794000D01*
X128265000Y-90450000D02*
X128301000Y-90485000D01*
X130779000Y-92554000D02*
X130814000Y-92589000D01*
X128471000Y-90245000D02*
X128517000Y-90292000D01*
X124279000Y-88960000D02*
X134200000Y-88960000D01*
X124279000Y-99080000D02*
X134200000Y-99080000D01*
X134200000Y-99080000D02*
X134200000Y-88960000D01*
X124279000Y-99080000D02*
X124279000Y-88960000D01*
X127239000Y-99080000D02*
X127239000Y-88960000D01*
X132140000Y-99080000D02*
X132140000Y-88960000D01*
X133640000Y-99080000D02*
X133640000Y-88960000D01*
X131220000Y-91520000D02*
G75*
G03X131220000Y-91520000I-1680000J0D01*
G01*
X131220253Y-96491195D02*
G75*
G02X131075000Y-97204000I-1680253J-28805D01*
G01*
X130223042Y-98055426D02*
G75*
G02X128856000Y-98055000I-683042J1535426D01*
G01*
X128004574Y-97203042D02*
G75*
G02X128005000Y-95836000I1535426J683042D01*
G01*
X128856958Y-94984574D02*
G75*
G02X130224000Y-94985000I683042J-1535426D01*
G01*
X131074756Y-95836682D02*
G75*
G02X131220000Y-96520000I-1534756J-683318D01*
G01*
X134440000Y-111385000D02*
X134440000Y-110885000D01*
X133700000Y-111385000D02*
X134440000Y-111385000D01*
X130563000Y-104812000D02*
X130609000Y-104859000D01*
X128265000Y-102515000D02*
X128301000Y-102550000D01*
X130779000Y-104619000D02*
X130814000Y-104654000D01*
X128471000Y-102310000D02*
X128517000Y-102357000D01*
X124279000Y-101025000D02*
X134200000Y-101025000D01*
X124279000Y-111145000D02*
X134200000Y-111145000D01*
X134200000Y-111145000D02*
X134200000Y-101025000D01*
X124279000Y-111145000D02*
X124279000Y-101025000D01*
X127239000Y-111145000D02*
X127239000Y-101025000D01*
X132140000Y-111145000D02*
X132140000Y-101025000D01*
X133640000Y-111145000D02*
X133640000Y-101025000D01*
X131220000Y-103585000D02*
G75*
G03X131220000Y-103585000I-1680000J0D01*
G01*
X131220253Y-108556195D02*
G75*
G02X131075000Y-109269000I-1680253J-28805D01*
G01*
X130223042Y-110120426D02*
G75*
G02X128856000Y-110120000I-683042J1535426D01*
G01*
X128004574Y-109268042D02*
G75*
G02X128005000Y-107901000I1535426J683042D01*
G01*
X128856958Y-107049574D02*
G75*
G02X130224000Y-107050000I683042J-1535426D01*
G01*
X131074756Y-107901682D02*
G75*
G02X131220000Y-108585000I-1534756J-683318D01*
G01*
X164645000Y-88720000D02*
X164645000Y-89220000D01*
X165385000Y-88720000D02*
X164645000Y-88720000D01*
X168522000Y-95293000D02*
X168476000Y-95246000D01*
X170820000Y-97590000D02*
X170784000Y-97555000D01*
X168306000Y-95486000D02*
X168271000Y-95451000D01*
X170614000Y-97795000D02*
X170568000Y-97748000D01*
X174806000Y-99080000D02*
X164885000Y-99080000D01*
X174806000Y-88960000D02*
X164885000Y-88960000D01*
X164885000Y-88960000D02*
X164885000Y-99080000D01*
X174806000Y-88960000D02*
X174806000Y-99080000D01*
X171846000Y-88960000D02*
X171846000Y-99080000D01*
X166945000Y-88960000D02*
X166945000Y-99080000D01*
X165445000Y-88960000D02*
X165445000Y-99080000D01*
X171225000Y-96520000D02*
G75*
G03X171225000Y-96520000I-1680000J0D01*
G01*
X167864747Y-91548805D02*
G75*
G02X168010000Y-90836000I1680253J28805D01*
G01*
X168861958Y-89984574D02*
G75*
G02X170229000Y-89985000I683042J-1535426D01*
G01*
X171080426Y-90836958D02*
G75*
G02X171080000Y-92204000I-1535426J-683042D01*
G01*
X170228042Y-93055426D02*
G75*
G02X168861000Y-93055000I-683042J1535426D01*
G01*
X168010244Y-92203318D02*
G75*
G02X167865000Y-91520000I1534756J683318D01*
G01*
X164645000Y-112850000D02*
X164645000Y-113350000D01*
X165385000Y-112850000D02*
X164645000Y-112850000D01*
X168522000Y-119423000D02*
X168476000Y-119376000D01*
X170820000Y-121720000D02*
X170784000Y-121685000D01*
X168306000Y-119616000D02*
X168271000Y-119581000D01*
X170614000Y-121925000D02*
X170568000Y-121878000D01*
X174806000Y-123210000D02*
X164885000Y-123210000D01*
X174806000Y-113090000D02*
X164885000Y-113090000D01*
X164885000Y-113090000D02*
X164885000Y-123210000D01*
X174806000Y-113090000D02*
X174806000Y-123210000D01*
X171846000Y-113090000D02*
X171846000Y-123210000D01*
X166945000Y-113090000D02*
X166945000Y-123210000D01*
X165445000Y-113090000D02*
X165445000Y-123210000D01*
X171225000Y-120650000D02*
G75*
G03X171225000Y-120650000I-1680000J0D01*
G01*
X167864747Y-115678805D02*
G75*
G02X168010000Y-114966000I1680253J28805D01*
G01*
X168861958Y-114114574D02*
G75*
G02X170229000Y-114115000I683042J-1535426D01*
G01*
X171080426Y-114966958D02*
G75*
G02X171080000Y-116334000I-1535426J-683042D01*
G01*
X170228042Y-117185426D02*
G75*
G02X168861000Y-117185000I-683042J1535426D01*
G01*
X168010244Y-116333318D02*
G75*
G02X167865000Y-115650000I1534756J683318D01*
G01*
X147300000Y-82550000D02*
X147300000Y-86000000D01*
X147300000Y-82550000D02*
X147300000Y-80600000D01*
X152420000Y-82550000D02*
X152420000Y-84500000D01*
X152420000Y-82550000D02*
X152420000Y-80600000D01*
X151200000Y-122560000D02*
X150100000Y-122560000D01*
X151200000Y-122830000D02*
X151200000Y-122560000D01*
X152700000Y-122830000D02*
X151200000Y-122830000D01*
X151200000Y-116200000D02*
X148370000Y-116200000D01*
X151200000Y-115930000D02*
X151200000Y-116200000D01*
X152700000Y-115930000D02*
X151200000Y-115930000D01*
X142750000Y-91602779D02*
X142750000Y-91277221D01*
X141730000Y-91602779D02*
X141730000Y-91277221D01*
X141730000Y-96357221D02*
X141730000Y-96682779D01*
X142750000Y-96357221D02*
X142750000Y-96682779D01*
X151292779Y-101725000D02*
X150967221Y-101725000D01*
X151292779Y-102745000D02*
X150967221Y-102745000D01*
X141480000Y-108112779D02*
X141480000Y-107787221D01*
X140460000Y-108112779D02*
X140460000Y-107787221D01*
X151292779Y-89660000D02*
X150967221Y-89660000D01*
X151292779Y-90680000D02*
X150967221Y-90680000D01*
X151200000Y-110495000D02*
X150100000Y-110495000D01*
X151200000Y-110765000D02*
X151200000Y-110495000D01*
X152700000Y-110765000D02*
X151200000Y-110765000D01*
X151200000Y-104135000D02*
X148370000Y-104135000D01*
X151200000Y-103865000D02*
X151200000Y-104135000D01*
X152700000Y-103865000D02*
X151200000Y-103865000D01*
X151200000Y-98430000D02*
X150100000Y-98430000D01*
X151200000Y-98700000D02*
X151200000Y-98430000D01*
X152700000Y-98700000D02*
X151200000Y-98700000D01*
X151200000Y-92070000D02*
X148370000Y-92070000D01*
X151200000Y-91800000D02*
X151200000Y-92070000D01*
X152700000Y-91800000D02*
X151200000Y-91800000D01*
X147895000Y-75625000D02*
X147895000Y-74295000D01*
X149225000Y-75625000D02*
X147895000Y-75625000D01*
X150495000Y-75625000D02*
X150495000Y-72965000D01*
X150495000Y-72965000D02*
X163255000Y-72965000D01*
X150495000Y-75625000D02*
X163255000Y-75625000D01*
X163255000Y-75625000D02*
X163255000Y-72965000D01*
X157775000Y-103235000D02*
X153925000Y-103235000D01*
X157775000Y-101235000D02*
X153925000Y-101235000D01*
X157775000Y-103235000D02*
X157775000Y-101235000D01*
X143780000Y-93690000D02*
X143780000Y-89790000D01*
X145780000Y-93690000D02*
X145780000Y-89790000D01*
X143780000Y-93690000D02*
X145780000Y-93690000D01*
X143780000Y-98770000D02*
X143780000Y-94870000D01*
X145780000Y-98770000D02*
X145780000Y-94870000D01*
X143780000Y-98770000D02*
X145780000Y-98770000D01*
X157775000Y-91170000D02*
X153925000Y-91170000D01*
X157775000Y-89170000D02*
X153925000Y-89170000D01*
X157775000Y-91170000D02*
X157775000Y-89170000D01*
X145290000Y-82712779D02*
X145290000Y-82387221D01*
X144270000Y-82712779D02*
X144270000Y-82387221D01*
X142750000Y-82712779D02*
X142750000Y-82387221D01*
X141730000Y-82712779D02*
X141730000Y-82387221D01*
X146283750Y-121621250D02*
X146283750Y-120833750D01*
X146677500Y-121227500D02*
X145890000Y-121227500D01*
X145650000Y-117034437D02*
X144585563Y-115970000D01*
X145650000Y-121725563D02*
X144585563Y-122790000D01*
X145650000Y-121725563D02*
X145650000Y-120440000D01*
X145650000Y-117034437D02*
X145650000Y-118320000D01*
X144585563Y-115970000D02*
X138830000Y-115970000D01*
X144585563Y-122790000D02*
X138830000Y-122790000D01*
X138830000Y-122790000D02*
X138830000Y-120440000D01*
X138830000Y-115970000D02*
X138830000Y-118320000D01*
D13*
X134707380Y-86693333D02*
X135421666Y-86693333D01*
X135564523Y-86740952D01*
X135659761Y-86836190D01*
X135707380Y-86979047D01*
X135707380Y-87074285D01*
X134707380Y-86312380D02*
X134707380Y-85693333D01*
X135088333Y-86026666D01*
X135088333Y-85883809D01*
X135135952Y-85788571D01*
X135183571Y-85740952D01*
X135278809Y-85693333D01*
X135516904Y-85693333D01*
X135612142Y-85740952D01*
X135659761Y-85788571D01*
X135707380Y-85883809D01*
X135707380Y-86169523D01*
X135659761Y-86264761D01*
X135612142Y-86312380D01*
X163282380Y-110903333D02*
X163996666Y-110903333D01*
X164139523Y-110950952D01*
X164234761Y-111046190D01*
X164282380Y-111189047D01*
X164282380Y-111284285D01*
X163282380Y-110522380D02*
X163282380Y-109855714D01*
X164282380Y-110284285D01*
X134707380Y-98758333D02*
X135421666Y-98758333D01*
X135564523Y-98805952D01*
X135659761Y-98901190D01*
X135707380Y-99044047D01*
X135707380Y-99139285D01*
X134707380Y-97853571D02*
X134707380Y-98044047D01*
X134755000Y-98139285D01*
X134802619Y-98186904D01*
X134945476Y-98282142D01*
X135135952Y-98329761D01*
X135516904Y-98329761D01*
X135612142Y-98282142D01*
X135659761Y-98234523D01*
X135707380Y-98139285D01*
X135707380Y-97948809D01*
X135659761Y-97853571D01*
X135612142Y-97805952D01*
X135516904Y-97758333D01*
X135278809Y-97758333D01*
X135183571Y-97805952D01*
X135135952Y-97853571D01*
X135088333Y-97948809D01*
X135088333Y-98139285D01*
X135135952Y-98234523D01*
X135183571Y-98282142D01*
X135278809Y-98329761D01*
X134707380Y-110823333D02*
X135421666Y-110823333D01*
X135564523Y-110870952D01*
X135659761Y-110966190D01*
X135707380Y-111109047D01*
X135707380Y-111204285D01*
X135040714Y-109918571D02*
X135707380Y-109918571D01*
X134659761Y-110156666D02*
X135374047Y-110394761D01*
X135374047Y-109775714D01*
X163282380Y-98838333D02*
X163996666Y-98838333D01*
X164139523Y-98885952D01*
X164234761Y-98981190D01*
X164282380Y-99124047D01*
X164282380Y-99219285D01*
X163377619Y-98409761D02*
X163330000Y-98362142D01*
X163282380Y-98266904D01*
X163282380Y-98028809D01*
X163330000Y-97933571D01*
X163377619Y-97885952D01*
X163472857Y-97838333D01*
X163568095Y-97838333D01*
X163710952Y-97885952D01*
X164282380Y-98457380D01*
X164282380Y-97838333D01*
X163282380Y-122968333D02*
X163996666Y-122968333D01*
X164139523Y-123015952D01*
X164234761Y-123111190D01*
X164282380Y-123254047D01*
X164282380Y-123349285D01*
X164282380Y-121968333D02*
X164282380Y-122539761D01*
X164282380Y-122254047D02*
X163282380Y-122254047D01*
X163425238Y-122349285D01*
X163520476Y-122444523D01*
X163568095Y-122539761D01*
X170053095Y-72452380D02*
X170053095Y-71452380D01*
X170053095Y-71928571D02*
X170624523Y-71928571D01*
X170624523Y-72452380D02*
X170624523Y-71452380D01*
X171053095Y-71547619D02*
X171100714Y-71500000D01*
X171195952Y-71452380D01*
X171434047Y-71452380D01*
X171529285Y-71500000D01*
X171576904Y-71547619D01*
X171624523Y-71642857D01*
X171624523Y-71738095D01*
X171576904Y-71880952D01*
X171005476Y-72452380D01*
X171624523Y-72452380D01*
X127508095Y-115632380D02*
X127508095Y-114632380D01*
X127508095Y-115108571D02*
X128079523Y-115108571D01*
X128079523Y-115632380D02*
X128079523Y-114632380D01*
X129079523Y-115632380D02*
X128508095Y-115632380D01*
X128793809Y-115632380D02*
X128793809Y-114632380D01*
X128698571Y-114775238D01*
X128603333Y-114870476D01*
X128508095Y-114918095D01*
X153122380Y-85851904D02*
X153931904Y-85851904D01*
X154027142Y-85804285D01*
X154074761Y-85756666D01*
X154122380Y-85661428D01*
X154122380Y-85470952D01*
X154074761Y-85375714D01*
X154027142Y-85328095D01*
X153931904Y-85280476D01*
X153122380Y-85280476D01*
X153217619Y-84851904D02*
X153170000Y-84804285D01*
X153122380Y-84709047D01*
X153122380Y-84470952D01*
X153170000Y-84375714D01*
X153217619Y-84328095D01*
X153312857Y-84280476D01*
X153408095Y-84280476D01*
X153550952Y-84328095D01*
X154122380Y-84899523D01*
X154122380Y-84280476D01*
X157353095Y-114387380D02*
X157353095Y-115196904D01*
X157400714Y-115292142D01*
X157448333Y-115339761D01*
X157543571Y-115387380D01*
X157734047Y-115387380D01*
X157829285Y-115339761D01*
X157876904Y-115292142D01*
X157924523Y-115196904D01*
X157924523Y-114387380D01*
X158924523Y-115387380D02*
X158353095Y-115387380D01*
X158638809Y-115387380D02*
X158638809Y-114387380D01*
X158543571Y-114530238D01*
X158448333Y-114625476D01*
X158353095Y-114673095D01*
X141262380Y-91606666D02*
X140786190Y-91940000D01*
X141262380Y-92178095D02*
X140262380Y-92178095D01*
X140262380Y-91797142D01*
X140310000Y-91701904D01*
X140357619Y-91654285D01*
X140452857Y-91606666D01*
X140595714Y-91606666D01*
X140690952Y-91654285D01*
X140738571Y-91701904D01*
X140786190Y-91797142D01*
X140786190Y-92178095D01*
X140262380Y-90701904D02*
X140262380Y-91178095D01*
X140738571Y-91225714D01*
X140690952Y-91178095D01*
X140643333Y-91082857D01*
X140643333Y-90844761D01*
X140690952Y-90749523D01*
X140738571Y-90701904D01*
X140833809Y-90654285D01*
X141071904Y-90654285D01*
X141167142Y-90701904D01*
X141214761Y-90749523D01*
X141262380Y-90844761D01*
X141262380Y-91082857D01*
X141214761Y-91178095D01*
X141167142Y-91225714D01*
X141422380Y-96686666D02*
X140946190Y-97020000D01*
X141422380Y-97258095D02*
X140422380Y-97258095D01*
X140422380Y-96877142D01*
X140470000Y-96781904D01*
X140517619Y-96734285D01*
X140612857Y-96686666D01*
X140755714Y-96686666D01*
X140850952Y-96734285D01*
X140898571Y-96781904D01*
X140946190Y-96877142D01*
X140946190Y-97258095D01*
X140755714Y-95829523D02*
X141422380Y-95829523D01*
X140374761Y-96067619D02*
X141089047Y-96305714D01*
X141089047Y-95686666D01*
X149042380Y-102401666D02*
X148566190Y-102735000D01*
X149042380Y-102973095D02*
X148042380Y-102973095D01*
X148042380Y-102592142D01*
X148090000Y-102496904D01*
X148137619Y-102449285D01*
X148232857Y-102401666D01*
X148375714Y-102401666D01*
X148470952Y-102449285D01*
X148518571Y-102496904D01*
X148566190Y-102592142D01*
X148566190Y-102973095D01*
X148042380Y-102068333D02*
X148042380Y-101449285D01*
X148423333Y-101782619D01*
X148423333Y-101639761D01*
X148470952Y-101544523D01*
X148518571Y-101496904D01*
X148613809Y-101449285D01*
X148851904Y-101449285D01*
X148947142Y-101496904D01*
X148994761Y-101544523D01*
X149042380Y-101639761D01*
X149042380Y-101925476D01*
X148994761Y-102020714D01*
X148947142Y-102068333D01*
X142692380Y-108116666D02*
X142216190Y-108450000D01*
X142692380Y-108688095D02*
X141692380Y-108688095D01*
X141692380Y-108307142D01*
X141740000Y-108211904D01*
X141787619Y-108164285D01*
X141882857Y-108116666D01*
X142025714Y-108116666D01*
X142120952Y-108164285D01*
X142168571Y-108211904D01*
X142216190Y-108307142D01*
X142216190Y-108688095D01*
X141787619Y-107735714D02*
X141740000Y-107688095D01*
X141692380Y-107592857D01*
X141692380Y-107354761D01*
X141740000Y-107259523D01*
X141787619Y-107211904D01*
X141882857Y-107164285D01*
X141978095Y-107164285D01*
X142120952Y-107211904D01*
X142692380Y-107783333D01*
X142692380Y-107164285D01*
X149042380Y-90336666D02*
X148566190Y-90670000D01*
X149042380Y-90908095D02*
X148042380Y-90908095D01*
X148042380Y-90527142D01*
X148090000Y-90431904D01*
X148137619Y-90384285D01*
X148232857Y-90336666D01*
X148375714Y-90336666D01*
X148470952Y-90384285D01*
X148518571Y-90431904D01*
X148566190Y-90527142D01*
X148566190Y-90908095D01*
X149042380Y-89384285D02*
X149042380Y-89955714D01*
X149042380Y-89670000D02*
X148042380Y-89670000D01*
X148185238Y-89765238D01*
X148280476Y-89860476D01*
X148328095Y-89955714D01*
X149129761Y-112307619D02*
X149034523Y-112260000D01*
X148939285Y-112164761D01*
X148796428Y-112021904D01*
X148701190Y-111974285D01*
X148605952Y-111974285D01*
X148653571Y-112212380D02*
X148558333Y-112164761D01*
X148463095Y-112069523D01*
X148415476Y-111879047D01*
X148415476Y-111545714D01*
X148463095Y-111355238D01*
X148558333Y-111260000D01*
X148653571Y-111212380D01*
X148844047Y-111212380D01*
X148939285Y-111260000D01*
X149034523Y-111355238D01*
X149082142Y-111545714D01*
X149082142Y-111879047D01*
X149034523Y-112069523D01*
X148939285Y-112164761D01*
X148844047Y-112212380D01*
X148653571Y-112212380D01*
X149463095Y-111307619D02*
X149510714Y-111260000D01*
X149605952Y-111212380D01*
X149844047Y-111212380D01*
X149939285Y-111260000D01*
X149986904Y-111307619D01*
X150034523Y-111402857D01*
X150034523Y-111498095D01*
X149986904Y-111640952D01*
X149415476Y-112212380D01*
X150034523Y-112212380D01*
X149129761Y-100242619D02*
X149034523Y-100195000D01*
X148939285Y-100099761D01*
X148796428Y-99956904D01*
X148701190Y-99909285D01*
X148605952Y-99909285D01*
X148653571Y-100147380D02*
X148558333Y-100099761D01*
X148463095Y-100004523D01*
X148415476Y-99814047D01*
X148415476Y-99480714D01*
X148463095Y-99290238D01*
X148558333Y-99195000D01*
X148653571Y-99147380D01*
X148844047Y-99147380D01*
X148939285Y-99195000D01*
X149034523Y-99290238D01*
X149082142Y-99480714D01*
X149082142Y-99814047D01*
X149034523Y-100004523D01*
X148939285Y-100099761D01*
X148844047Y-100147380D01*
X148653571Y-100147380D01*
X150034523Y-100147380D02*
X149463095Y-100147380D01*
X149748809Y-100147380D02*
X149748809Y-99147380D01*
X149653571Y-99290238D01*
X149558333Y-99385476D01*
X149463095Y-99433095D01*
X163917380Y-74628333D02*
X164631666Y-74628333D01*
X164774523Y-74675952D01*
X164869761Y-74771190D01*
X164917380Y-74914047D01*
X164917380Y-75009285D01*
X163917380Y-73675952D02*
X163917380Y-74152142D01*
X164393571Y-74199761D01*
X164345952Y-74152142D01*
X164298333Y-74056904D01*
X164298333Y-73818809D01*
X164345952Y-73723571D01*
X164393571Y-73675952D01*
X164488809Y-73628333D01*
X164726904Y-73628333D01*
X164822142Y-73675952D01*
X164869761Y-73723571D01*
X164917380Y-73818809D01*
X164917380Y-74056904D01*
X164869761Y-74152142D01*
X164822142Y-74199761D01*
X159202380Y-102973095D02*
X158202380Y-102973095D01*
X158202380Y-102735000D01*
X158250000Y-102592142D01*
X158345238Y-102496904D01*
X158440476Y-102449285D01*
X158630952Y-102401666D01*
X158773809Y-102401666D01*
X158964285Y-102449285D01*
X159059523Y-102496904D01*
X159154761Y-102592142D01*
X159202380Y-102735000D01*
X159202380Y-102973095D01*
X158535714Y-101544523D02*
X159202380Y-101544523D01*
X158154761Y-101782619D02*
X158869047Y-102020714D01*
X158869047Y-101401666D01*
X147137380Y-92178095D02*
X146137380Y-92178095D01*
X146137380Y-91940000D01*
X146185000Y-91797142D01*
X146280238Y-91701904D01*
X146375476Y-91654285D01*
X146565952Y-91606666D01*
X146708809Y-91606666D01*
X146899285Y-91654285D01*
X146994523Y-91701904D01*
X147089761Y-91797142D01*
X147137380Y-91940000D01*
X147137380Y-92178095D01*
X146137380Y-91273333D02*
X146137380Y-90654285D01*
X146518333Y-90987619D01*
X146518333Y-90844761D01*
X146565952Y-90749523D01*
X146613571Y-90701904D01*
X146708809Y-90654285D01*
X146946904Y-90654285D01*
X147042142Y-90701904D01*
X147089761Y-90749523D01*
X147137380Y-90844761D01*
X147137380Y-91130476D01*
X147089761Y-91225714D01*
X147042142Y-91273333D01*
X147137380Y-97258095D02*
X146137380Y-97258095D01*
X146137380Y-97020000D01*
X146185000Y-96877142D01*
X146280238Y-96781904D01*
X146375476Y-96734285D01*
X146565952Y-96686666D01*
X146708809Y-96686666D01*
X146899285Y-96734285D01*
X146994523Y-96781904D01*
X147089761Y-96877142D01*
X147137380Y-97020000D01*
X147137380Y-97258095D01*
X146232619Y-96305714D02*
X146185000Y-96258095D01*
X146137380Y-96162857D01*
X146137380Y-95924761D01*
X146185000Y-95829523D01*
X146232619Y-95781904D01*
X146327857Y-95734285D01*
X146423095Y-95734285D01*
X146565952Y-95781904D01*
X147137380Y-96353333D01*
X147137380Y-95734285D01*
X159202380Y-90908095D02*
X158202380Y-90908095D01*
X158202380Y-90670000D01*
X158250000Y-90527142D01*
X158345238Y-90431904D01*
X158440476Y-90384285D01*
X158630952Y-90336666D01*
X158773809Y-90336666D01*
X158964285Y-90384285D01*
X159059523Y-90431904D01*
X159154761Y-90527142D01*
X159202380Y-90670000D01*
X159202380Y-90908095D01*
X159202380Y-89384285D02*
X159202380Y-89955714D01*
X159202380Y-89670000D02*
X158202380Y-89670000D01*
X158345238Y-89765238D01*
X158440476Y-89860476D01*
X158488095Y-89955714D01*
X145137142Y-80176666D02*
X145184761Y-80224285D01*
X145232380Y-80367142D01*
X145232380Y-80462380D01*
X145184761Y-80605238D01*
X145089523Y-80700476D01*
X144994285Y-80748095D01*
X144803809Y-80795714D01*
X144660952Y-80795714D01*
X144470476Y-80748095D01*
X144375238Y-80700476D01*
X144280000Y-80605238D01*
X144232380Y-80462380D01*
X144232380Y-80367142D01*
X144280000Y-80224285D01*
X144327619Y-80176666D01*
X144232380Y-79843333D02*
X144232380Y-79224285D01*
X144613333Y-79557619D01*
X144613333Y-79414761D01*
X144660952Y-79319523D01*
X144708571Y-79271904D01*
X144803809Y-79224285D01*
X145041904Y-79224285D01*
X145137142Y-79271904D01*
X145184761Y-79319523D01*
X145232380Y-79414761D01*
X145232380Y-79700476D01*
X145184761Y-79795714D01*
X145137142Y-79843333D01*
X142597142Y-80176666D02*
X142644761Y-80224285D01*
X142692380Y-80367142D01*
X142692380Y-80462380D01*
X142644761Y-80605238D01*
X142549523Y-80700476D01*
X142454285Y-80748095D01*
X142263809Y-80795714D01*
X142120952Y-80795714D01*
X141930476Y-80748095D01*
X141835238Y-80700476D01*
X141740000Y-80605238D01*
X141692380Y-80462380D01*
X141692380Y-80367142D01*
X141740000Y-80224285D01*
X141787619Y-80176666D01*
X141787619Y-79795714D02*
X141740000Y-79748095D01*
X141692380Y-79652857D01*
X141692380Y-79414761D01*
X141740000Y-79319523D01*
X141787619Y-79271904D01*
X141882857Y-79224285D01*
X141978095Y-79224285D01*
X142120952Y-79271904D01*
X142692380Y-79843333D01*
X142692380Y-79224285D01*
X138152142Y-122086666D02*
X138199761Y-122134285D01*
X138247380Y-122277142D01*
X138247380Y-122372380D01*
X138199761Y-122515238D01*
X138104523Y-122610476D01*
X138009285Y-122658095D01*
X137818809Y-122705714D01*
X137675952Y-122705714D01*
X137485476Y-122658095D01*
X137390238Y-122610476D01*
X137295000Y-122515238D01*
X137247380Y-122372380D01*
X137247380Y-122277142D01*
X137295000Y-122134285D01*
X137342619Y-122086666D01*
X138247380Y-121134285D02*
X138247380Y-121705714D01*
X138247380Y-121420000D02*
X137247380Y-121420000D01*
X137390238Y-121515238D01*
X137485476Y-121610476D01*
X137533095Y-121705714D01*
M02*
