G04 #@! TF.GenerationSoftware,KiCad,Pcbnew,(5.1.5)-3*
G04 #@! TF.CreationDate,2020-06-25T10:52:07+02:00*
G04 #@! TF.ProjectId,VacTool,56616354-6f6f-46c2-9e6b-696361645f70,v0.0*
G04 #@! TF.SameCoordinates,Original*
G04 #@! TF.FileFunction,Paste,Top*
G04 #@! TF.FilePolarity,Positive*
%FSLAX46Y46*%
G04 Gerber Fmt 4.6, Leading zero omitted, Abs format (unit mm)*
G04 Created by KiCad (PCBNEW (5.1.5)-3) date 2020-06-25 10:52:07*
%MOMM*%
%LPD*%
G04 APERTURE LIST*
%ADD10C,0.100000*%
%ADD11R,3.050000X2.750000*%
%ADD12R,2.200000X1.200000*%
%ADD13R,1.100000X1.100000*%
%ADD14R,1.200000X0.900000*%
G04 APERTURE END LIST*
D10*
G36*
X148119703Y-79100722D02*
G01*
X148134264Y-79102882D01*
X148148543Y-79106459D01*
X148162403Y-79111418D01*
X148175710Y-79117712D01*
X148188336Y-79125280D01*
X148200159Y-79134048D01*
X148211066Y-79143934D01*
X148220952Y-79154841D01*
X148229720Y-79166664D01*
X148237288Y-79179290D01*
X148243582Y-79192597D01*
X148248541Y-79206457D01*
X148252118Y-79220736D01*
X148254278Y-79235297D01*
X148255000Y-79250000D01*
X148255000Y-80900000D01*
X148254278Y-80914703D01*
X148252118Y-80929264D01*
X148248541Y-80943543D01*
X148243582Y-80957403D01*
X148237288Y-80970710D01*
X148229720Y-80983336D01*
X148220952Y-80995159D01*
X148211066Y-81006066D01*
X148200159Y-81015952D01*
X148188336Y-81024720D01*
X148175710Y-81032288D01*
X148162403Y-81038582D01*
X148148543Y-81043541D01*
X148134264Y-81047118D01*
X148119703Y-81049278D01*
X148105000Y-81050000D01*
X147805000Y-81050000D01*
X147790297Y-81049278D01*
X147775736Y-81047118D01*
X147761457Y-81043541D01*
X147747597Y-81038582D01*
X147734290Y-81032288D01*
X147721664Y-81024720D01*
X147709841Y-81015952D01*
X147698934Y-81006066D01*
X147689048Y-80995159D01*
X147680280Y-80983336D01*
X147672712Y-80970710D01*
X147666418Y-80957403D01*
X147661459Y-80943543D01*
X147657882Y-80929264D01*
X147655722Y-80914703D01*
X147655000Y-80900000D01*
X147655000Y-79250000D01*
X147655722Y-79235297D01*
X147657882Y-79220736D01*
X147661459Y-79206457D01*
X147666418Y-79192597D01*
X147672712Y-79179290D01*
X147680280Y-79166664D01*
X147689048Y-79154841D01*
X147698934Y-79143934D01*
X147709841Y-79134048D01*
X147721664Y-79125280D01*
X147734290Y-79117712D01*
X147747597Y-79111418D01*
X147761457Y-79106459D01*
X147775736Y-79102882D01*
X147790297Y-79100722D01*
X147805000Y-79100000D01*
X148105000Y-79100000D01*
X148119703Y-79100722D01*
G37*
G36*
X149389703Y-79100722D02*
G01*
X149404264Y-79102882D01*
X149418543Y-79106459D01*
X149432403Y-79111418D01*
X149445710Y-79117712D01*
X149458336Y-79125280D01*
X149470159Y-79134048D01*
X149481066Y-79143934D01*
X149490952Y-79154841D01*
X149499720Y-79166664D01*
X149507288Y-79179290D01*
X149513582Y-79192597D01*
X149518541Y-79206457D01*
X149522118Y-79220736D01*
X149524278Y-79235297D01*
X149525000Y-79250000D01*
X149525000Y-80900000D01*
X149524278Y-80914703D01*
X149522118Y-80929264D01*
X149518541Y-80943543D01*
X149513582Y-80957403D01*
X149507288Y-80970710D01*
X149499720Y-80983336D01*
X149490952Y-80995159D01*
X149481066Y-81006066D01*
X149470159Y-81015952D01*
X149458336Y-81024720D01*
X149445710Y-81032288D01*
X149432403Y-81038582D01*
X149418543Y-81043541D01*
X149404264Y-81047118D01*
X149389703Y-81049278D01*
X149375000Y-81050000D01*
X149075000Y-81050000D01*
X149060297Y-81049278D01*
X149045736Y-81047118D01*
X149031457Y-81043541D01*
X149017597Y-81038582D01*
X149004290Y-81032288D01*
X148991664Y-81024720D01*
X148979841Y-81015952D01*
X148968934Y-81006066D01*
X148959048Y-80995159D01*
X148950280Y-80983336D01*
X148942712Y-80970710D01*
X148936418Y-80957403D01*
X148931459Y-80943543D01*
X148927882Y-80929264D01*
X148925722Y-80914703D01*
X148925000Y-80900000D01*
X148925000Y-79250000D01*
X148925722Y-79235297D01*
X148927882Y-79220736D01*
X148931459Y-79206457D01*
X148936418Y-79192597D01*
X148942712Y-79179290D01*
X148950280Y-79166664D01*
X148959048Y-79154841D01*
X148968934Y-79143934D01*
X148979841Y-79134048D01*
X148991664Y-79125280D01*
X149004290Y-79117712D01*
X149017597Y-79111418D01*
X149031457Y-79106459D01*
X149045736Y-79102882D01*
X149060297Y-79100722D01*
X149075000Y-79100000D01*
X149375000Y-79100000D01*
X149389703Y-79100722D01*
G37*
G36*
X150659703Y-79100722D02*
G01*
X150674264Y-79102882D01*
X150688543Y-79106459D01*
X150702403Y-79111418D01*
X150715710Y-79117712D01*
X150728336Y-79125280D01*
X150740159Y-79134048D01*
X150751066Y-79143934D01*
X150760952Y-79154841D01*
X150769720Y-79166664D01*
X150777288Y-79179290D01*
X150783582Y-79192597D01*
X150788541Y-79206457D01*
X150792118Y-79220736D01*
X150794278Y-79235297D01*
X150795000Y-79250000D01*
X150795000Y-80900000D01*
X150794278Y-80914703D01*
X150792118Y-80929264D01*
X150788541Y-80943543D01*
X150783582Y-80957403D01*
X150777288Y-80970710D01*
X150769720Y-80983336D01*
X150760952Y-80995159D01*
X150751066Y-81006066D01*
X150740159Y-81015952D01*
X150728336Y-81024720D01*
X150715710Y-81032288D01*
X150702403Y-81038582D01*
X150688543Y-81043541D01*
X150674264Y-81047118D01*
X150659703Y-81049278D01*
X150645000Y-81050000D01*
X150345000Y-81050000D01*
X150330297Y-81049278D01*
X150315736Y-81047118D01*
X150301457Y-81043541D01*
X150287597Y-81038582D01*
X150274290Y-81032288D01*
X150261664Y-81024720D01*
X150249841Y-81015952D01*
X150238934Y-81006066D01*
X150229048Y-80995159D01*
X150220280Y-80983336D01*
X150212712Y-80970710D01*
X150206418Y-80957403D01*
X150201459Y-80943543D01*
X150197882Y-80929264D01*
X150195722Y-80914703D01*
X150195000Y-80900000D01*
X150195000Y-79250000D01*
X150195722Y-79235297D01*
X150197882Y-79220736D01*
X150201459Y-79206457D01*
X150206418Y-79192597D01*
X150212712Y-79179290D01*
X150220280Y-79166664D01*
X150229048Y-79154841D01*
X150238934Y-79143934D01*
X150249841Y-79134048D01*
X150261664Y-79125280D01*
X150274290Y-79117712D01*
X150287597Y-79111418D01*
X150301457Y-79106459D01*
X150315736Y-79102882D01*
X150330297Y-79100722D01*
X150345000Y-79100000D01*
X150645000Y-79100000D01*
X150659703Y-79100722D01*
G37*
G36*
X151929703Y-79100722D02*
G01*
X151944264Y-79102882D01*
X151958543Y-79106459D01*
X151972403Y-79111418D01*
X151985710Y-79117712D01*
X151998336Y-79125280D01*
X152010159Y-79134048D01*
X152021066Y-79143934D01*
X152030952Y-79154841D01*
X152039720Y-79166664D01*
X152047288Y-79179290D01*
X152053582Y-79192597D01*
X152058541Y-79206457D01*
X152062118Y-79220736D01*
X152064278Y-79235297D01*
X152065000Y-79250000D01*
X152065000Y-80900000D01*
X152064278Y-80914703D01*
X152062118Y-80929264D01*
X152058541Y-80943543D01*
X152053582Y-80957403D01*
X152047288Y-80970710D01*
X152039720Y-80983336D01*
X152030952Y-80995159D01*
X152021066Y-81006066D01*
X152010159Y-81015952D01*
X151998336Y-81024720D01*
X151985710Y-81032288D01*
X151972403Y-81038582D01*
X151958543Y-81043541D01*
X151944264Y-81047118D01*
X151929703Y-81049278D01*
X151915000Y-81050000D01*
X151615000Y-81050000D01*
X151600297Y-81049278D01*
X151585736Y-81047118D01*
X151571457Y-81043541D01*
X151557597Y-81038582D01*
X151544290Y-81032288D01*
X151531664Y-81024720D01*
X151519841Y-81015952D01*
X151508934Y-81006066D01*
X151499048Y-80995159D01*
X151490280Y-80983336D01*
X151482712Y-80970710D01*
X151476418Y-80957403D01*
X151471459Y-80943543D01*
X151467882Y-80929264D01*
X151465722Y-80914703D01*
X151465000Y-80900000D01*
X151465000Y-79250000D01*
X151465722Y-79235297D01*
X151467882Y-79220736D01*
X151471459Y-79206457D01*
X151476418Y-79192597D01*
X151482712Y-79179290D01*
X151490280Y-79166664D01*
X151499048Y-79154841D01*
X151508934Y-79143934D01*
X151519841Y-79134048D01*
X151531664Y-79125280D01*
X151544290Y-79117712D01*
X151557597Y-79111418D01*
X151571457Y-79106459D01*
X151585736Y-79102882D01*
X151600297Y-79100722D01*
X151615000Y-79100000D01*
X151915000Y-79100000D01*
X151929703Y-79100722D01*
G37*
G36*
X151929703Y-84050722D02*
G01*
X151944264Y-84052882D01*
X151958543Y-84056459D01*
X151972403Y-84061418D01*
X151985710Y-84067712D01*
X151998336Y-84075280D01*
X152010159Y-84084048D01*
X152021066Y-84093934D01*
X152030952Y-84104841D01*
X152039720Y-84116664D01*
X152047288Y-84129290D01*
X152053582Y-84142597D01*
X152058541Y-84156457D01*
X152062118Y-84170736D01*
X152064278Y-84185297D01*
X152065000Y-84200000D01*
X152065000Y-85850000D01*
X152064278Y-85864703D01*
X152062118Y-85879264D01*
X152058541Y-85893543D01*
X152053582Y-85907403D01*
X152047288Y-85920710D01*
X152039720Y-85933336D01*
X152030952Y-85945159D01*
X152021066Y-85956066D01*
X152010159Y-85965952D01*
X151998336Y-85974720D01*
X151985710Y-85982288D01*
X151972403Y-85988582D01*
X151958543Y-85993541D01*
X151944264Y-85997118D01*
X151929703Y-85999278D01*
X151915000Y-86000000D01*
X151615000Y-86000000D01*
X151600297Y-85999278D01*
X151585736Y-85997118D01*
X151571457Y-85993541D01*
X151557597Y-85988582D01*
X151544290Y-85982288D01*
X151531664Y-85974720D01*
X151519841Y-85965952D01*
X151508934Y-85956066D01*
X151499048Y-85945159D01*
X151490280Y-85933336D01*
X151482712Y-85920710D01*
X151476418Y-85907403D01*
X151471459Y-85893543D01*
X151467882Y-85879264D01*
X151465722Y-85864703D01*
X151465000Y-85850000D01*
X151465000Y-84200000D01*
X151465722Y-84185297D01*
X151467882Y-84170736D01*
X151471459Y-84156457D01*
X151476418Y-84142597D01*
X151482712Y-84129290D01*
X151490280Y-84116664D01*
X151499048Y-84104841D01*
X151508934Y-84093934D01*
X151519841Y-84084048D01*
X151531664Y-84075280D01*
X151544290Y-84067712D01*
X151557597Y-84061418D01*
X151571457Y-84056459D01*
X151585736Y-84052882D01*
X151600297Y-84050722D01*
X151615000Y-84050000D01*
X151915000Y-84050000D01*
X151929703Y-84050722D01*
G37*
G36*
X150659703Y-84050722D02*
G01*
X150674264Y-84052882D01*
X150688543Y-84056459D01*
X150702403Y-84061418D01*
X150715710Y-84067712D01*
X150728336Y-84075280D01*
X150740159Y-84084048D01*
X150751066Y-84093934D01*
X150760952Y-84104841D01*
X150769720Y-84116664D01*
X150777288Y-84129290D01*
X150783582Y-84142597D01*
X150788541Y-84156457D01*
X150792118Y-84170736D01*
X150794278Y-84185297D01*
X150795000Y-84200000D01*
X150795000Y-85850000D01*
X150794278Y-85864703D01*
X150792118Y-85879264D01*
X150788541Y-85893543D01*
X150783582Y-85907403D01*
X150777288Y-85920710D01*
X150769720Y-85933336D01*
X150760952Y-85945159D01*
X150751066Y-85956066D01*
X150740159Y-85965952D01*
X150728336Y-85974720D01*
X150715710Y-85982288D01*
X150702403Y-85988582D01*
X150688543Y-85993541D01*
X150674264Y-85997118D01*
X150659703Y-85999278D01*
X150645000Y-86000000D01*
X150345000Y-86000000D01*
X150330297Y-85999278D01*
X150315736Y-85997118D01*
X150301457Y-85993541D01*
X150287597Y-85988582D01*
X150274290Y-85982288D01*
X150261664Y-85974720D01*
X150249841Y-85965952D01*
X150238934Y-85956066D01*
X150229048Y-85945159D01*
X150220280Y-85933336D01*
X150212712Y-85920710D01*
X150206418Y-85907403D01*
X150201459Y-85893543D01*
X150197882Y-85879264D01*
X150195722Y-85864703D01*
X150195000Y-85850000D01*
X150195000Y-84200000D01*
X150195722Y-84185297D01*
X150197882Y-84170736D01*
X150201459Y-84156457D01*
X150206418Y-84142597D01*
X150212712Y-84129290D01*
X150220280Y-84116664D01*
X150229048Y-84104841D01*
X150238934Y-84093934D01*
X150249841Y-84084048D01*
X150261664Y-84075280D01*
X150274290Y-84067712D01*
X150287597Y-84061418D01*
X150301457Y-84056459D01*
X150315736Y-84052882D01*
X150330297Y-84050722D01*
X150345000Y-84050000D01*
X150645000Y-84050000D01*
X150659703Y-84050722D01*
G37*
G36*
X149389703Y-84050722D02*
G01*
X149404264Y-84052882D01*
X149418543Y-84056459D01*
X149432403Y-84061418D01*
X149445710Y-84067712D01*
X149458336Y-84075280D01*
X149470159Y-84084048D01*
X149481066Y-84093934D01*
X149490952Y-84104841D01*
X149499720Y-84116664D01*
X149507288Y-84129290D01*
X149513582Y-84142597D01*
X149518541Y-84156457D01*
X149522118Y-84170736D01*
X149524278Y-84185297D01*
X149525000Y-84200000D01*
X149525000Y-85850000D01*
X149524278Y-85864703D01*
X149522118Y-85879264D01*
X149518541Y-85893543D01*
X149513582Y-85907403D01*
X149507288Y-85920710D01*
X149499720Y-85933336D01*
X149490952Y-85945159D01*
X149481066Y-85956066D01*
X149470159Y-85965952D01*
X149458336Y-85974720D01*
X149445710Y-85982288D01*
X149432403Y-85988582D01*
X149418543Y-85993541D01*
X149404264Y-85997118D01*
X149389703Y-85999278D01*
X149375000Y-86000000D01*
X149075000Y-86000000D01*
X149060297Y-85999278D01*
X149045736Y-85997118D01*
X149031457Y-85993541D01*
X149017597Y-85988582D01*
X149004290Y-85982288D01*
X148991664Y-85974720D01*
X148979841Y-85965952D01*
X148968934Y-85956066D01*
X148959048Y-85945159D01*
X148950280Y-85933336D01*
X148942712Y-85920710D01*
X148936418Y-85907403D01*
X148931459Y-85893543D01*
X148927882Y-85879264D01*
X148925722Y-85864703D01*
X148925000Y-85850000D01*
X148925000Y-84200000D01*
X148925722Y-84185297D01*
X148927882Y-84170736D01*
X148931459Y-84156457D01*
X148936418Y-84142597D01*
X148942712Y-84129290D01*
X148950280Y-84116664D01*
X148959048Y-84104841D01*
X148968934Y-84093934D01*
X148979841Y-84084048D01*
X148991664Y-84075280D01*
X149004290Y-84067712D01*
X149017597Y-84061418D01*
X149031457Y-84056459D01*
X149045736Y-84052882D01*
X149060297Y-84050722D01*
X149075000Y-84050000D01*
X149375000Y-84050000D01*
X149389703Y-84050722D01*
G37*
G36*
X148119703Y-84050722D02*
G01*
X148134264Y-84052882D01*
X148148543Y-84056459D01*
X148162403Y-84061418D01*
X148175710Y-84067712D01*
X148188336Y-84075280D01*
X148200159Y-84084048D01*
X148211066Y-84093934D01*
X148220952Y-84104841D01*
X148229720Y-84116664D01*
X148237288Y-84129290D01*
X148243582Y-84142597D01*
X148248541Y-84156457D01*
X148252118Y-84170736D01*
X148254278Y-84185297D01*
X148255000Y-84200000D01*
X148255000Y-85850000D01*
X148254278Y-85864703D01*
X148252118Y-85879264D01*
X148248541Y-85893543D01*
X148243582Y-85907403D01*
X148237288Y-85920710D01*
X148229720Y-85933336D01*
X148220952Y-85945159D01*
X148211066Y-85956066D01*
X148200159Y-85965952D01*
X148188336Y-85974720D01*
X148175710Y-85982288D01*
X148162403Y-85988582D01*
X148148543Y-85993541D01*
X148134264Y-85997118D01*
X148119703Y-85999278D01*
X148105000Y-86000000D01*
X147805000Y-86000000D01*
X147790297Y-85999278D01*
X147775736Y-85997118D01*
X147761457Y-85993541D01*
X147747597Y-85988582D01*
X147734290Y-85982288D01*
X147721664Y-85974720D01*
X147709841Y-85965952D01*
X147698934Y-85956066D01*
X147689048Y-85945159D01*
X147680280Y-85933336D01*
X147672712Y-85920710D01*
X147666418Y-85907403D01*
X147661459Y-85893543D01*
X147657882Y-85879264D01*
X147655722Y-85864703D01*
X147655000Y-85850000D01*
X147655000Y-84200000D01*
X147655722Y-84185297D01*
X147657882Y-84170736D01*
X147661459Y-84156457D01*
X147666418Y-84142597D01*
X147672712Y-84129290D01*
X147680280Y-84116664D01*
X147689048Y-84104841D01*
X147698934Y-84093934D01*
X147709841Y-84084048D01*
X147721664Y-84075280D01*
X147734290Y-84067712D01*
X147747597Y-84061418D01*
X147761457Y-84056459D01*
X147775736Y-84052882D01*
X147790297Y-84050722D01*
X147805000Y-84050000D01*
X148105000Y-84050000D01*
X148119703Y-84050722D01*
G37*
D11*
X154095000Y-120905000D03*
X157445000Y-117855000D03*
X154095000Y-117855000D03*
X157445000Y-120905000D03*
D12*
X149470000Y-121660000D03*
X149470000Y-117100000D03*
D10*
G36*
X142517691Y-90216053D02*
G01*
X142538926Y-90219203D01*
X142559750Y-90224419D01*
X142579962Y-90231651D01*
X142599368Y-90240830D01*
X142617781Y-90251866D01*
X142635024Y-90264654D01*
X142650930Y-90279070D01*
X142665346Y-90294976D01*
X142678134Y-90312219D01*
X142689170Y-90330632D01*
X142698349Y-90350038D01*
X142705581Y-90370250D01*
X142710797Y-90391074D01*
X142713947Y-90412309D01*
X142715000Y-90433750D01*
X142715000Y-90871250D01*
X142713947Y-90892691D01*
X142710797Y-90913926D01*
X142705581Y-90934750D01*
X142698349Y-90954962D01*
X142689170Y-90974368D01*
X142678134Y-90992781D01*
X142665346Y-91010024D01*
X142650930Y-91025930D01*
X142635024Y-91040346D01*
X142617781Y-91053134D01*
X142599368Y-91064170D01*
X142579962Y-91073349D01*
X142559750Y-91080581D01*
X142538926Y-91085797D01*
X142517691Y-91088947D01*
X142496250Y-91090000D01*
X141983750Y-91090000D01*
X141962309Y-91088947D01*
X141941074Y-91085797D01*
X141920250Y-91080581D01*
X141900038Y-91073349D01*
X141880632Y-91064170D01*
X141862219Y-91053134D01*
X141844976Y-91040346D01*
X141829070Y-91025930D01*
X141814654Y-91010024D01*
X141801866Y-90992781D01*
X141790830Y-90974368D01*
X141781651Y-90954962D01*
X141774419Y-90934750D01*
X141769203Y-90913926D01*
X141766053Y-90892691D01*
X141765000Y-90871250D01*
X141765000Y-90433750D01*
X141766053Y-90412309D01*
X141769203Y-90391074D01*
X141774419Y-90370250D01*
X141781651Y-90350038D01*
X141790830Y-90330632D01*
X141801866Y-90312219D01*
X141814654Y-90294976D01*
X141829070Y-90279070D01*
X141844976Y-90264654D01*
X141862219Y-90251866D01*
X141880632Y-90240830D01*
X141900038Y-90231651D01*
X141920250Y-90224419D01*
X141941074Y-90219203D01*
X141962309Y-90216053D01*
X141983750Y-90215000D01*
X142496250Y-90215000D01*
X142517691Y-90216053D01*
G37*
G36*
X142517691Y-91791053D02*
G01*
X142538926Y-91794203D01*
X142559750Y-91799419D01*
X142579962Y-91806651D01*
X142599368Y-91815830D01*
X142617781Y-91826866D01*
X142635024Y-91839654D01*
X142650930Y-91854070D01*
X142665346Y-91869976D01*
X142678134Y-91887219D01*
X142689170Y-91905632D01*
X142698349Y-91925038D01*
X142705581Y-91945250D01*
X142710797Y-91966074D01*
X142713947Y-91987309D01*
X142715000Y-92008750D01*
X142715000Y-92446250D01*
X142713947Y-92467691D01*
X142710797Y-92488926D01*
X142705581Y-92509750D01*
X142698349Y-92529962D01*
X142689170Y-92549368D01*
X142678134Y-92567781D01*
X142665346Y-92585024D01*
X142650930Y-92600930D01*
X142635024Y-92615346D01*
X142617781Y-92628134D01*
X142599368Y-92639170D01*
X142579962Y-92648349D01*
X142559750Y-92655581D01*
X142538926Y-92660797D01*
X142517691Y-92663947D01*
X142496250Y-92665000D01*
X141983750Y-92665000D01*
X141962309Y-92663947D01*
X141941074Y-92660797D01*
X141920250Y-92655581D01*
X141900038Y-92648349D01*
X141880632Y-92639170D01*
X141862219Y-92628134D01*
X141844976Y-92615346D01*
X141829070Y-92600930D01*
X141814654Y-92585024D01*
X141801866Y-92567781D01*
X141790830Y-92549368D01*
X141781651Y-92529962D01*
X141774419Y-92509750D01*
X141769203Y-92488926D01*
X141766053Y-92467691D01*
X141765000Y-92446250D01*
X141765000Y-92008750D01*
X141766053Y-91987309D01*
X141769203Y-91966074D01*
X141774419Y-91945250D01*
X141781651Y-91925038D01*
X141790830Y-91905632D01*
X141801866Y-91887219D01*
X141814654Y-91869976D01*
X141829070Y-91854070D01*
X141844976Y-91839654D01*
X141862219Y-91826866D01*
X141880632Y-91815830D01*
X141900038Y-91806651D01*
X141920250Y-91799419D01*
X141941074Y-91794203D01*
X141962309Y-91791053D01*
X141983750Y-91790000D01*
X142496250Y-91790000D01*
X142517691Y-91791053D01*
G37*
G36*
X142517691Y-96871053D02*
G01*
X142538926Y-96874203D01*
X142559750Y-96879419D01*
X142579962Y-96886651D01*
X142599368Y-96895830D01*
X142617781Y-96906866D01*
X142635024Y-96919654D01*
X142650930Y-96934070D01*
X142665346Y-96949976D01*
X142678134Y-96967219D01*
X142689170Y-96985632D01*
X142698349Y-97005038D01*
X142705581Y-97025250D01*
X142710797Y-97046074D01*
X142713947Y-97067309D01*
X142715000Y-97088750D01*
X142715000Y-97526250D01*
X142713947Y-97547691D01*
X142710797Y-97568926D01*
X142705581Y-97589750D01*
X142698349Y-97609962D01*
X142689170Y-97629368D01*
X142678134Y-97647781D01*
X142665346Y-97665024D01*
X142650930Y-97680930D01*
X142635024Y-97695346D01*
X142617781Y-97708134D01*
X142599368Y-97719170D01*
X142579962Y-97728349D01*
X142559750Y-97735581D01*
X142538926Y-97740797D01*
X142517691Y-97743947D01*
X142496250Y-97745000D01*
X141983750Y-97745000D01*
X141962309Y-97743947D01*
X141941074Y-97740797D01*
X141920250Y-97735581D01*
X141900038Y-97728349D01*
X141880632Y-97719170D01*
X141862219Y-97708134D01*
X141844976Y-97695346D01*
X141829070Y-97680930D01*
X141814654Y-97665024D01*
X141801866Y-97647781D01*
X141790830Y-97629368D01*
X141781651Y-97609962D01*
X141774419Y-97589750D01*
X141769203Y-97568926D01*
X141766053Y-97547691D01*
X141765000Y-97526250D01*
X141765000Y-97088750D01*
X141766053Y-97067309D01*
X141769203Y-97046074D01*
X141774419Y-97025250D01*
X141781651Y-97005038D01*
X141790830Y-96985632D01*
X141801866Y-96967219D01*
X141814654Y-96949976D01*
X141829070Y-96934070D01*
X141844976Y-96919654D01*
X141862219Y-96906866D01*
X141880632Y-96895830D01*
X141900038Y-96886651D01*
X141920250Y-96879419D01*
X141941074Y-96874203D01*
X141962309Y-96871053D01*
X141983750Y-96870000D01*
X142496250Y-96870000D01*
X142517691Y-96871053D01*
G37*
G36*
X142517691Y-95296053D02*
G01*
X142538926Y-95299203D01*
X142559750Y-95304419D01*
X142579962Y-95311651D01*
X142599368Y-95320830D01*
X142617781Y-95331866D01*
X142635024Y-95344654D01*
X142650930Y-95359070D01*
X142665346Y-95374976D01*
X142678134Y-95392219D01*
X142689170Y-95410632D01*
X142698349Y-95430038D01*
X142705581Y-95450250D01*
X142710797Y-95471074D01*
X142713947Y-95492309D01*
X142715000Y-95513750D01*
X142715000Y-95951250D01*
X142713947Y-95972691D01*
X142710797Y-95993926D01*
X142705581Y-96014750D01*
X142698349Y-96034962D01*
X142689170Y-96054368D01*
X142678134Y-96072781D01*
X142665346Y-96090024D01*
X142650930Y-96105930D01*
X142635024Y-96120346D01*
X142617781Y-96133134D01*
X142599368Y-96144170D01*
X142579962Y-96153349D01*
X142559750Y-96160581D01*
X142538926Y-96165797D01*
X142517691Y-96168947D01*
X142496250Y-96170000D01*
X141983750Y-96170000D01*
X141962309Y-96168947D01*
X141941074Y-96165797D01*
X141920250Y-96160581D01*
X141900038Y-96153349D01*
X141880632Y-96144170D01*
X141862219Y-96133134D01*
X141844976Y-96120346D01*
X141829070Y-96105930D01*
X141814654Y-96090024D01*
X141801866Y-96072781D01*
X141790830Y-96054368D01*
X141781651Y-96034962D01*
X141774419Y-96014750D01*
X141769203Y-95993926D01*
X141766053Y-95972691D01*
X141765000Y-95951250D01*
X141765000Y-95513750D01*
X141766053Y-95492309D01*
X141769203Y-95471074D01*
X141774419Y-95450250D01*
X141781651Y-95430038D01*
X141790830Y-95410632D01*
X141801866Y-95392219D01*
X141814654Y-95374976D01*
X141829070Y-95359070D01*
X141844976Y-95344654D01*
X141862219Y-95331866D01*
X141880632Y-95320830D01*
X141900038Y-95311651D01*
X141920250Y-95304419D01*
X141941074Y-95299203D01*
X141962309Y-95296053D01*
X141983750Y-95295000D01*
X142496250Y-95295000D01*
X142517691Y-95296053D01*
G37*
G36*
X150582691Y-101761053D02*
G01*
X150603926Y-101764203D01*
X150624750Y-101769419D01*
X150644962Y-101776651D01*
X150664368Y-101785830D01*
X150682781Y-101796866D01*
X150700024Y-101809654D01*
X150715930Y-101824070D01*
X150730346Y-101839976D01*
X150743134Y-101857219D01*
X150754170Y-101875632D01*
X150763349Y-101895038D01*
X150770581Y-101915250D01*
X150775797Y-101936074D01*
X150778947Y-101957309D01*
X150780000Y-101978750D01*
X150780000Y-102491250D01*
X150778947Y-102512691D01*
X150775797Y-102533926D01*
X150770581Y-102554750D01*
X150763349Y-102574962D01*
X150754170Y-102594368D01*
X150743134Y-102612781D01*
X150730346Y-102630024D01*
X150715930Y-102645930D01*
X150700024Y-102660346D01*
X150682781Y-102673134D01*
X150664368Y-102684170D01*
X150644962Y-102693349D01*
X150624750Y-102700581D01*
X150603926Y-102705797D01*
X150582691Y-102708947D01*
X150561250Y-102710000D01*
X150123750Y-102710000D01*
X150102309Y-102708947D01*
X150081074Y-102705797D01*
X150060250Y-102700581D01*
X150040038Y-102693349D01*
X150020632Y-102684170D01*
X150002219Y-102673134D01*
X149984976Y-102660346D01*
X149969070Y-102645930D01*
X149954654Y-102630024D01*
X149941866Y-102612781D01*
X149930830Y-102594368D01*
X149921651Y-102574962D01*
X149914419Y-102554750D01*
X149909203Y-102533926D01*
X149906053Y-102512691D01*
X149905000Y-102491250D01*
X149905000Y-101978750D01*
X149906053Y-101957309D01*
X149909203Y-101936074D01*
X149914419Y-101915250D01*
X149921651Y-101895038D01*
X149930830Y-101875632D01*
X149941866Y-101857219D01*
X149954654Y-101839976D01*
X149969070Y-101824070D01*
X149984976Y-101809654D01*
X150002219Y-101796866D01*
X150020632Y-101785830D01*
X150040038Y-101776651D01*
X150060250Y-101769419D01*
X150081074Y-101764203D01*
X150102309Y-101761053D01*
X150123750Y-101760000D01*
X150561250Y-101760000D01*
X150582691Y-101761053D01*
G37*
G36*
X152157691Y-101761053D02*
G01*
X152178926Y-101764203D01*
X152199750Y-101769419D01*
X152219962Y-101776651D01*
X152239368Y-101785830D01*
X152257781Y-101796866D01*
X152275024Y-101809654D01*
X152290930Y-101824070D01*
X152305346Y-101839976D01*
X152318134Y-101857219D01*
X152329170Y-101875632D01*
X152338349Y-101895038D01*
X152345581Y-101915250D01*
X152350797Y-101936074D01*
X152353947Y-101957309D01*
X152355000Y-101978750D01*
X152355000Y-102491250D01*
X152353947Y-102512691D01*
X152350797Y-102533926D01*
X152345581Y-102554750D01*
X152338349Y-102574962D01*
X152329170Y-102594368D01*
X152318134Y-102612781D01*
X152305346Y-102630024D01*
X152290930Y-102645930D01*
X152275024Y-102660346D01*
X152257781Y-102673134D01*
X152239368Y-102684170D01*
X152219962Y-102693349D01*
X152199750Y-102700581D01*
X152178926Y-102705797D01*
X152157691Y-102708947D01*
X152136250Y-102710000D01*
X151698750Y-102710000D01*
X151677309Y-102708947D01*
X151656074Y-102705797D01*
X151635250Y-102700581D01*
X151615038Y-102693349D01*
X151595632Y-102684170D01*
X151577219Y-102673134D01*
X151559976Y-102660346D01*
X151544070Y-102645930D01*
X151529654Y-102630024D01*
X151516866Y-102612781D01*
X151505830Y-102594368D01*
X151496651Y-102574962D01*
X151489419Y-102554750D01*
X151484203Y-102533926D01*
X151481053Y-102512691D01*
X151480000Y-102491250D01*
X151480000Y-101978750D01*
X151481053Y-101957309D01*
X151484203Y-101936074D01*
X151489419Y-101915250D01*
X151496651Y-101895038D01*
X151505830Y-101875632D01*
X151516866Y-101857219D01*
X151529654Y-101839976D01*
X151544070Y-101824070D01*
X151559976Y-101809654D01*
X151577219Y-101796866D01*
X151595632Y-101785830D01*
X151615038Y-101776651D01*
X151635250Y-101769419D01*
X151656074Y-101764203D01*
X151677309Y-101761053D01*
X151698750Y-101760000D01*
X152136250Y-101760000D01*
X152157691Y-101761053D01*
G37*
G36*
X141247691Y-106726053D02*
G01*
X141268926Y-106729203D01*
X141289750Y-106734419D01*
X141309962Y-106741651D01*
X141329368Y-106750830D01*
X141347781Y-106761866D01*
X141365024Y-106774654D01*
X141380930Y-106789070D01*
X141395346Y-106804976D01*
X141408134Y-106822219D01*
X141419170Y-106840632D01*
X141428349Y-106860038D01*
X141435581Y-106880250D01*
X141440797Y-106901074D01*
X141443947Y-106922309D01*
X141445000Y-106943750D01*
X141445000Y-107381250D01*
X141443947Y-107402691D01*
X141440797Y-107423926D01*
X141435581Y-107444750D01*
X141428349Y-107464962D01*
X141419170Y-107484368D01*
X141408134Y-107502781D01*
X141395346Y-107520024D01*
X141380930Y-107535930D01*
X141365024Y-107550346D01*
X141347781Y-107563134D01*
X141329368Y-107574170D01*
X141309962Y-107583349D01*
X141289750Y-107590581D01*
X141268926Y-107595797D01*
X141247691Y-107598947D01*
X141226250Y-107600000D01*
X140713750Y-107600000D01*
X140692309Y-107598947D01*
X140671074Y-107595797D01*
X140650250Y-107590581D01*
X140630038Y-107583349D01*
X140610632Y-107574170D01*
X140592219Y-107563134D01*
X140574976Y-107550346D01*
X140559070Y-107535930D01*
X140544654Y-107520024D01*
X140531866Y-107502781D01*
X140520830Y-107484368D01*
X140511651Y-107464962D01*
X140504419Y-107444750D01*
X140499203Y-107423926D01*
X140496053Y-107402691D01*
X140495000Y-107381250D01*
X140495000Y-106943750D01*
X140496053Y-106922309D01*
X140499203Y-106901074D01*
X140504419Y-106880250D01*
X140511651Y-106860038D01*
X140520830Y-106840632D01*
X140531866Y-106822219D01*
X140544654Y-106804976D01*
X140559070Y-106789070D01*
X140574976Y-106774654D01*
X140592219Y-106761866D01*
X140610632Y-106750830D01*
X140630038Y-106741651D01*
X140650250Y-106734419D01*
X140671074Y-106729203D01*
X140692309Y-106726053D01*
X140713750Y-106725000D01*
X141226250Y-106725000D01*
X141247691Y-106726053D01*
G37*
G36*
X141247691Y-108301053D02*
G01*
X141268926Y-108304203D01*
X141289750Y-108309419D01*
X141309962Y-108316651D01*
X141329368Y-108325830D01*
X141347781Y-108336866D01*
X141365024Y-108349654D01*
X141380930Y-108364070D01*
X141395346Y-108379976D01*
X141408134Y-108397219D01*
X141419170Y-108415632D01*
X141428349Y-108435038D01*
X141435581Y-108455250D01*
X141440797Y-108476074D01*
X141443947Y-108497309D01*
X141445000Y-108518750D01*
X141445000Y-108956250D01*
X141443947Y-108977691D01*
X141440797Y-108998926D01*
X141435581Y-109019750D01*
X141428349Y-109039962D01*
X141419170Y-109059368D01*
X141408134Y-109077781D01*
X141395346Y-109095024D01*
X141380930Y-109110930D01*
X141365024Y-109125346D01*
X141347781Y-109138134D01*
X141329368Y-109149170D01*
X141309962Y-109158349D01*
X141289750Y-109165581D01*
X141268926Y-109170797D01*
X141247691Y-109173947D01*
X141226250Y-109175000D01*
X140713750Y-109175000D01*
X140692309Y-109173947D01*
X140671074Y-109170797D01*
X140650250Y-109165581D01*
X140630038Y-109158349D01*
X140610632Y-109149170D01*
X140592219Y-109138134D01*
X140574976Y-109125346D01*
X140559070Y-109110930D01*
X140544654Y-109095024D01*
X140531866Y-109077781D01*
X140520830Y-109059368D01*
X140511651Y-109039962D01*
X140504419Y-109019750D01*
X140499203Y-108998926D01*
X140496053Y-108977691D01*
X140495000Y-108956250D01*
X140495000Y-108518750D01*
X140496053Y-108497309D01*
X140499203Y-108476074D01*
X140504419Y-108455250D01*
X140511651Y-108435038D01*
X140520830Y-108415632D01*
X140531866Y-108397219D01*
X140544654Y-108379976D01*
X140559070Y-108364070D01*
X140574976Y-108349654D01*
X140592219Y-108336866D01*
X140610632Y-108325830D01*
X140630038Y-108316651D01*
X140650250Y-108309419D01*
X140671074Y-108304203D01*
X140692309Y-108301053D01*
X140713750Y-108300000D01*
X141226250Y-108300000D01*
X141247691Y-108301053D01*
G37*
G36*
X150582691Y-89696053D02*
G01*
X150603926Y-89699203D01*
X150624750Y-89704419D01*
X150644962Y-89711651D01*
X150664368Y-89720830D01*
X150682781Y-89731866D01*
X150700024Y-89744654D01*
X150715930Y-89759070D01*
X150730346Y-89774976D01*
X150743134Y-89792219D01*
X150754170Y-89810632D01*
X150763349Y-89830038D01*
X150770581Y-89850250D01*
X150775797Y-89871074D01*
X150778947Y-89892309D01*
X150780000Y-89913750D01*
X150780000Y-90426250D01*
X150778947Y-90447691D01*
X150775797Y-90468926D01*
X150770581Y-90489750D01*
X150763349Y-90509962D01*
X150754170Y-90529368D01*
X150743134Y-90547781D01*
X150730346Y-90565024D01*
X150715930Y-90580930D01*
X150700024Y-90595346D01*
X150682781Y-90608134D01*
X150664368Y-90619170D01*
X150644962Y-90628349D01*
X150624750Y-90635581D01*
X150603926Y-90640797D01*
X150582691Y-90643947D01*
X150561250Y-90645000D01*
X150123750Y-90645000D01*
X150102309Y-90643947D01*
X150081074Y-90640797D01*
X150060250Y-90635581D01*
X150040038Y-90628349D01*
X150020632Y-90619170D01*
X150002219Y-90608134D01*
X149984976Y-90595346D01*
X149969070Y-90580930D01*
X149954654Y-90565024D01*
X149941866Y-90547781D01*
X149930830Y-90529368D01*
X149921651Y-90509962D01*
X149914419Y-90489750D01*
X149909203Y-90468926D01*
X149906053Y-90447691D01*
X149905000Y-90426250D01*
X149905000Y-89913750D01*
X149906053Y-89892309D01*
X149909203Y-89871074D01*
X149914419Y-89850250D01*
X149921651Y-89830038D01*
X149930830Y-89810632D01*
X149941866Y-89792219D01*
X149954654Y-89774976D01*
X149969070Y-89759070D01*
X149984976Y-89744654D01*
X150002219Y-89731866D01*
X150020632Y-89720830D01*
X150040038Y-89711651D01*
X150060250Y-89704419D01*
X150081074Y-89699203D01*
X150102309Y-89696053D01*
X150123750Y-89695000D01*
X150561250Y-89695000D01*
X150582691Y-89696053D01*
G37*
G36*
X152157691Y-89696053D02*
G01*
X152178926Y-89699203D01*
X152199750Y-89704419D01*
X152219962Y-89711651D01*
X152239368Y-89720830D01*
X152257781Y-89731866D01*
X152275024Y-89744654D01*
X152290930Y-89759070D01*
X152305346Y-89774976D01*
X152318134Y-89792219D01*
X152329170Y-89810632D01*
X152338349Y-89830038D01*
X152345581Y-89850250D01*
X152350797Y-89871074D01*
X152353947Y-89892309D01*
X152355000Y-89913750D01*
X152355000Y-90426250D01*
X152353947Y-90447691D01*
X152350797Y-90468926D01*
X152345581Y-90489750D01*
X152338349Y-90509962D01*
X152329170Y-90529368D01*
X152318134Y-90547781D01*
X152305346Y-90565024D01*
X152290930Y-90580930D01*
X152275024Y-90595346D01*
X152257781Y-90608134D01*
X152239368Y-90619170D01*
X152219962Y-90628349D01*
X152199750Y-90635581D01*
X152178926Y-90640797D01*
X152157691Y-90643947D01*
X152136250Y-90645000D01*
X151698750Y-90645000D01*
X151677309Y-90643947D01*
X151656074Y-90640797D01*
X151635250Y-90635581D01*
X151615038Y-90628349D01*
X151595632Y-90619170D01*
X151577219Y-90608134D01*
X151559976Y-90595346D01*
X151544070Y-90580930D01*
X151529654Y-90565024D01*
X151516866Y-90547781D01*
X151505830Y-90529368D01*
X151496651Y-90509962D01*
X151489419Y-90489750D01*
X151484203Y-90468926D01*
X151481053Y-90447691D01*
X151480000Y-90426250D01*
X151480000Y-89913750D01*
X151481053Y-89892309D01*
X151484203Y-89871074D01*
X151489419Y-89850250D01*
X151496651Y-89830038D01*
X151505830Y-89810632D01*
X151516866Y-89792219D01*
X151529654Y-89774976D01*
X151544070Y-89759070D01*
X151559976Y-89744654D01*
X151577219Y-89731866D01*
X151595632Y-89720830D01*
X151615038Y-89711651D01*
X151635250Y-89704419D01*
X151656074Y-89699203D01*
X151677309Y-89696053D01*
X151698750Y-89695000D01*
X152136250Y-89695000D01*
X152157691Y-89696053D01*
G37*
D11*
X154095000Y-108840000D03*
X157445000Y-105790000D03*
X154095000Y-105790000D03*
X157445000Y-108840000D03*
D12*
X149470000Y-109595000D03*
X149470000Y-105035000D03*
D11*
X154095000Y-96775000D03*
X157445000Y-93725000D03*
X154095000Y-93725000D03*
X157445000Y-96775000D03*
D12*
X149470000Y-97530000D03*
X149470000Y-92970000D03*
D13*
X154175000Y-102235000D03*
X156975000Y-102235000D03*
D14*
X144780000Y-89790000D03*
X144780000Y-93090000D03*
X144780000Y-94870000D03*
X144780000Y-98170000D03*
D13*
X154175000Y-90170000D03*
X156975000Y-90170000D03*
D10*
G36*
X145057691Y-81326053D02*
G01*
X145078926Y-81329203D01*
X145099750Y-81334419D01*
X145119962Y-81341651D01*
X145139368Y-81350830D01*
X145157781Y-81361866D01*
X145175024Y-81374654D01*
X145190930Y-81389070D01*
X145205346Y-81404976D01*
X145218134Y-81422219D01*
X145229170Y-81440632D01*
X145238349Y-81460038D01*
X145245581Y-81480250D01*
X145250797Y-81501074D01*
X145253947Y-81522309D01*
X145255000Y-81543750D01*
X145255000Y-81981250D01*
X145253947Y-82002691D01*
X145250797Y-82023926D01*
X145245581Y-82044750D01*
X145238349Y-82064962D01*
X145229170Y-82084368D01*
X145218134Y-82102781D01*
X145205346Y-82120024D01*
X145190930Y-82135930D01*
X145175024Y-82150346D01*
X145157781Y-82163134D01*
X145139368Y-82174170D01*
X145119962Y-82183349D01*
X145099750Y-82190581D01*
X145078926Y-82195797D01*
X145057691Y-82198947D01*
X145036250Y-82200000D01*
X144523750Y-82200000D01*
X144502309Y-82198947D01*
X144481074Y-82195797D01*
X144460250Y-82190581D01*
X144440038Y-82183349D01*
X144420632Y-82174170D01*
X144402219Y-82163134D01*
X144384976Y-82150346D01*
X144369070Y-82135930D01*
X144354654Y-82120024D01*
X144341866Y-82102781D01*
X144330830Y-82084368D01*
X144321651Y-82064962D01*
X144314419Y-82044750D01*
X144309203Y-82023926D01*
X144306053Y-82002691D01*
X144305000Y-81981250D01*
X144305000Y-81543750D01*
X144306053Y-81522309D01*
X144309203Y-81501074D01*
X144314419Y-81480250D01*
X144321651Y-81460038D01*
X144330830Y-81440632D01*
X144341866Y-81422219D01*
X144354654Y-81404976D01*
X144369070Y-81389070D01*
X144384976Y-81374654D01*
X144402219Y-81361866D01*
X144420632Y-81350830D01*
X144440038Y-81341651D01*
X144460250Y-81334419D01*
X144481074Y-81329203D01*
X144502309Y-81326053D01*
X144523750Y-81325000D01*
X145036250Y-81325000D01*
X145057691Y-81326053D01*
G37*
G36*
X145057691Y-82901053D02*
G01*
X145078926Y-82904203D01*
X145099750Y-82909419D01*
X145119962Y-82916651D01*
X145139368Y-82925830D01*
X145157781Y-82936866D01*
X145175024Y-82949654D01*
X145190930Y-82964070D01*
X145205346Y-82979976D01*
X145218134Y-82997219D01*
X145229170Y-83015632D01*
X145238349Y-83035038D01*
X145245581Y-83055250D01*
X145250797Y-83076074D01*
X145253947Y-83097309D01*
X145255000Y-83118750D01*
X145255000Y-83556250D01*
X145253947Y-83577691D01*
X145250797Y-83598926D01*
X145245581Y-83619750D01*
X145238349Y-83639962D01*
X145229170Y-83659368D01*
X145218134Y-83677781D01*
X145205346Y-83695024D01*
X145190930Y-83710930D01*
X145175024Y-83725346D01*
X145157781Y-83738134D01*
X145139368Y-83749170D01*
X145119962Y-83758349D01*
X145099750Y-83765581D01*
X145078926Y-83770797D01*
X145057691Y-83773947D01*
X145036250Y-83775000D01*
X144523750Y-83775000D01*
X144502309Y-83773947D01*
X144481074Y-83770797D01*
X144460250Y-83765581D01*
X144440038Y-83758349D01*
X144420632Y-83749170D01*
X144402219Y-83738134D01*
X144384976Y-83725346D01*
X144369070Y-83710930D01*
X144354654Y-83695024D01*
X144341866Y-83677781D01*
X144330830Y-83659368D01*
X144321651Y-83639962D01*
X144314419Y-83619750D01*
X144309203Y-83598926D01*
X144306053Y-83577691D01*
X144305000Y-83556250D01*
X144305000Y-83118750D01*
X144306053Y-83097309D01*
X144309203Y-83076074D01*
X144314419Y-83055250D01*
X144321651Y-83035038D01*
X144330830Y-83015632D01*
X144341866Y-82997219D01*
X144354654Y-82979976D01*
X144369070Y-82964070D01*
X144384976Y-82949654D01*
X144402219Y-82936866D01*
X144420632Y-82925830D01*
X144440038Y-82916651D01*
X144460250Y-82909419D01*
X144481074Y-82904203D01*
X144502309Y-82901053D01*
X144523750Y-82900000D01*
X145036250Y-82900000D01*
X145057691Y-82901053D01*
G37*
G36*
X142517691Y-81326053D02*
G01*
X142538926Y-81329203D01*
X142559750Y-81334419D01*
X142579962Y-81341651D01*
X142599368Y-81350830D01*
X142617781Y-81361866D01*
X142635024Y-81374654D01*
X142650930Y-81389070D01*
X142665346Y-81404976D01*
X142678134Y-81422219D01*
X142689170Y-81440632D01*
X142698349Y-81460038D01*
X142705581Y-81480250D01*
X142710797Y-81501074D01*
X142713947Y-81522309D01*
X142715000Y-81543750D01*
X142715000Y-81981250D01*
X142713947Y-82002691D01*
X142710797Y-82023926D01*
X142705581Y-82044750D01*
X142698349Y-82064962D01*
X142689170Y-82084368D01*
X142678134Y-82102781D01*
X142665346Y-82120024D01*
X142650930Y-82135930D01*
X142635024Y-82150346D01*
X142617781Y-82163134D01*
X142599368Y-82174170D01*
X142579962Y-82183349D01*
X142559750Y-82190581D01*
X142538926Y-82195797D01*
X142517691Y-82198947D01*
X142496250Y-82200000D01*
X141983750Y-82200000D01*
X141962309Y-82198947D01*
X141941074Y-82195797D01*
X141920250Y-82190581D01*
X141900038Y-82183349D01*
X141880632Y-82174170D01*
X141862219Y-82163134D01*
X141844976Y-82150346D01*
X141829070Y-82135930D01*
X141814654Y-82120024D01*
X141801866Y-82102781D01*
X141790830Y-82084368D01*
X141781651Y-82064962D01*
X141774419Y-82044750D01*
X141769203Y-82023926D01*
X141766053Y-82002691D01*
X141765000Y-81981250D01*
X141765000Y-81543750D01*
X141766053Y-81522309D01*
X141769203Y-81501074D01*
X141774419Y-81480250D01*
X141781651Y-81460038D01*
X141790830Y-81440632D01*
X141801866Y-81422219D01*
X141814654Y-81404976D01*
X141829070Y-81389070D01*
X141844976Y-81374654D01*
X141862219Y-81361866D01*
X141880632Y-81350830D01*
X141900038Y-81341651D01*
X141920250Y-81334419D01*
X141941074Y-81329203D01*
X141962309Y-81326053D01*
X141983750Y-81325000D01*
X142496250Y-81325000D01*
X142517691Y-81326053D01*
G37*
G36*
X142517691Y-82901053D02*
G01*
X142538926Y-82904203D01*
X142559750Y-82909419D01*
X142579962Y-82916651D01*
X142599368Y-82925830D01*
X142617781Y-82936866D01*
X142635024Y-82949654D01*
X142650930Y-82964070D01*
X142665346Y-82979976D01*
X142678134Y-82997219D01*
X142689170Y-83015632D01*
X142698349Y-83035038D01*
X142705581Y-83055250D01*
X142710797Y-83076074D01*
X142713947Y-83097309D01*
X142715000Y-83118750D01*
X142715000Y-83556250D01*
X142713947Y-83577691D01*
X142710797Y-83598926D01*
X142705581Y-83619750D01*
X142698349Y-83639962D01*
X142689170Y-83659368D01*
X142678134Y-83677781D01*
X142665346Y-83695024D01*
X142650930Y-83710930D01*
X142635024Y-83725346D01*
X142617781Y-83738134D01*
X142599368Y-83749170D01*
X142579962Y-83758349D01*
X142559750Y-83765581D01*
X142538926Y-83770797D01*
X142517691Y-83773947D01*
X142496250Y-83775000D01*
X141983750Y-83775000D01*
X141962309Y-83773947D01*
X141941074Y-83770797D01*
X141920250Y-83765581D01*
X141900038Y-83758349D01*
X141880632Y-83749170D01*
X141862219Y-83738134D01*
X141844976Y-83725346D01*
X141829070Y-83710930D01*
X141814654Y-83695024D01*
X141801866Y-83677781D01*
X141790830Y-83659368D01*
X141781651Y-83639962D01*
X141774419Y-83619750D01*
X141769203Y-83598926D01*
X141766053Y-83577691D01*
X141765000Y-83556250D01*
X141765000Y-83118750D01*
X141766053Y-83097309D01*
X141769203Y-83076074D01*
X141774419Y-83055250D01*
X141781651Y-83035038D01*
X141790830Y-83015632D01*
X141801866Y-82997219D01*
X141814654Y-82979976D01*
X141829070Y-82964070D01*
X141844976Y-82949654D01*
X141862219Y-82936866D01*
X141880632Y-82925830D01*
X141900038Y-82916651D01*
X141920250Y-82909419D01*
X141941074Y-82904203D01*
X141962309Y-82901053D01*
X141983750Y-82900000D01*
X142496250Y-82900000D01*
X142517691Y-82901053D01*
G37*
G36*
X141064504Y-118581204D02*
G01*
X141088773Y-118584804D01*
X141112571Y-118590765D01*
X141135671Y-118599030D01*
X141157849Y-118609520D01*
X141178893Y-118622133D01*
X141198598Y-118636747D01*
X141216777Y-118653223D01*
X141233253Y-118671402D01*
X141247867Y-118691107D01*
X141260480Y-118712151D01*
X141270970Y-118734329D01*
X141279235Y-118757429D01*
X141285196Y-118781227D01*
X141288796Y-118805496D01*
X141290000Y-118830000D01*
X141290000Y-119930000D01*
X141288796Y-119954504D01*
X141285196Y-119978773D01*
X141279235Y-120002571D01*
X141270970Y-120025671D01*
X141260480Y-120047849D01*
X141247867Y-120068893D01*
X141233253Y-120088598D01*
X141216777Y-120106777D01*
X141198598Y-120123253D01*
X141178893Y-120137867D01*
X141157849Y-120150480D01*
X141135671Y-120160970D01*
X141112571Y-120169235D01*
X141088773Y-120175196D01*
X141064504Y-120178796D01*
X141040000Y-120180000D01*
X138040000Y-120180000D01*
X138015496Y-120178796D01*
X137991227Y-120175196D01*
X137967429Y-120169235D01*
X137944329Y-120160970D01*
X137922151Y-120150480D01*
X137901107Y-120137867D01*
X137881402Y-120123253D01*
X137863223Y-120106777D01*
X137846747Y-120088598D01*
X137832133Y-120068893D01*
X137819520Y-120047849D01*
X137809030Y-120025671D01*
X137800765Y-120002571D01*
X137794804Y-119978773D01*
X137791204Y-119954504D01*
X137790000Y-119930000D01*
X137790000Y-118830000D01*
X137791204Y-118805496D01*
X137794804Y-118781227D01*
X137800765Y-118757429D01*
X137809030Y-118734329D01*
X137819520Y-118712151D01*
X137832133Y-118691107D01*
X137846747Y-118671402D01*
X137863223Y-118653223D01*
X137881402Y-118636747D01*
X137901107Y-118622133D01*
X137922151Y-118609520D01*
X137944329Y-118599030D01*
X137967429Y-118590765D01*
X137991227Y-118584804D01*
X138015496Y-118581204D01*
X138040000Y-118580000D01*
X141040000Y-118580000D01*
X141064504Y-118581204D01*
G37*
G36*
X146464504Y-118581204D02*
G01*
X146488773Y-118584804D01*
X146512571Y-118590765D01*
X146535671Y-118599030D01*
X146557849Y-118609520D01*
X146578893Y-118622133D01*
X146598598Y-118636747D01*
X146616777Y-118653223D01*
X146633253Y-118671402D01*
X146647867Y-118691107D01*
X146660480Y-118712151D01*
X146670970Y-118734329D01*
X146679235Y-118757429D01*
X146685196Y-118781227D01*
X146688796Y-118805496D01*
X146690000Y-118830000D01*
X146690000Y-119930000D01*
X146688796Y-119954504D01*
X146685196Y-119978773D01*
X146679235Y-120002571D01*
X146670970Y-120025671D01*
X146660480Y-120047849D01*
X146647867Y-120068893D01*
X146633253Y-120088598D01*
X146616777Y-120106777D01*
X146598598Y-120123253D01*
X146578893Y-120137867D01*
X146557849Y-120150480D01*
X146535671Y-120160970D01*
X146512571Y-120169235D01*
X146488773Y-120175196D01*
X146464504Y-120178796D01*
X146440000Y-120180000D01*
X143440000Y-120180000D01*
X143415496Y-120178796D01*
X143391227Y-120175196D01*
X143367429Y-120169235D01*
X143344329Y-120160970D01*
X143322151Y-120150480D01*
X143301107Y-120137867D01*
X143281402Y-120123253D01*
X143263223Y-120106777D01*
X143246747Y-120088598D01*
X143232133Y-120068893D01*
X143219520Y-120047849D01*
X143209030Y-120025671D01*
X143200765Y-120002571D01*
X143194804Y-119978773D01*
X143191204Y-119954504D01*
X143190000Y-119930000D01*
X143190000Y-118830000D01*
X143191204Y-118805496D01*
X143194804Y-118781227D01*
X143200765Y-118757429D01*
X143209030Y-118734329D01*
X143219520Y-118712151D01*
X143232133Y-118691107D01*
X143246747Y-118671402D01*
X143263223Y-118653223D01*
X143281402Y-118636747D01*
X143301107Y-118622133D01*
X143322151Y-118609520D01*
X143344329Y-118599030D01*
X143367429Y-118590765D01*
X143391227Y-118584804D01*
X143415496Y-118581204D01*
X143440000Y-118580000D01*
X146440000Y-118580000D01*
X146464504Y-118581204D01*
G37*
M02*
