G04 #@! TF.GenerationSoftware,KiCad,Pcbnew,(5.1.5)-3*
G04 #@! TF.CreationDate,2020-06-25T10:52:07+02:00*
G04 #@! TF.ProjectId,VacTool,56616354-6f6f-46c2-9e6b-696361645f70,v0.0*
G04 #@! TF.SameCoordinates,Original*
G04 #@! TF.FileFunction,Copper,L2,Bot*
G04 #@! TF.FilePolarity,Positive*
%FSLAX46Y46*%
G04 Gerber Fmt 4.6, Leading zero omitted, Abs format (unit mm)*
G04 Created by KiCad (PCBNEW (5.1.5)-3) date 2020-06-25 10:52:07*
%MOMM*%
%LPD*%
G04 APERTURE LIST*
%ADD10C,2.600000*%
%ADD11R,2.600000X2.600000*%
%ADD12C,0.800000*%
%ADD13C,6.400000*%
%ADD14O,1.700000X1.700000*%
%ADD15R,1.700000X1.700000*%
%ADD16C,0.500000*%
%ADD17C,0.254000*%
G04 APERTURE END LIST*
D10*
X129540000Y-74455000D03*
X129540000Y-79455000D03*
D11*
X129540000Y-84455000D03*
D10*
X169545000Y-108585000D03*
D11*
X169545000Y-103585000D03*
D10*
X129540000Y-91520000D03*
D11*
X129540000Y-96520000D03*
D10*
X129540000Y-103585000D03*
D11*
X129540000Y-108585000D03*
D10*
X169545000Y-96520000D03*
D11*
X169545000Y-91520000D03*
D10*
X169545000Y-120650000D03*
D11*
X169545000Y-115650000D03*
D12*
X172512056Y-74502944D03*
X170815000Y-73800000D03*
X169117944Y-74502944D03*
X168415000Y-76200000D03*
X169117944Y-77897056D03*
X170815000Y-78600000D03*
X172512056Y-77897056D03*
X173215000Y-76200000D03*
D13*
X170815000Y-76200000D03*
D12*
X129967056Y-117682944D03*
X128270000Y-116980000D03*
X126572944Y-117682944D03*
X125870000Y-119380000D03*
X126572944Y-121077056D03*
X128270000Y-121780000D03*
X129967056Y-121077056D03*
X130670000Y-119380000D03*
D13*
X128270000Y-119380000D03*
D14*
X161925000Y-74295000D03*
X159385000Y-74295000D03*
X156845000Y-74295000D03*
X154305000Y-74295000D03*
X151765000Y-74295000D03*
D15*
X149225000Y-74295000D03*
D12*
X142240000Y-89535000D03*
X150495000Y-83185000D03*
X140182500Y-83337500D03*
X150495000Y-114300000D03*
X151765000Y-114300000D03*
X153035000Y-114300000D03*
X150495000Y-114300000D03*
X149225000Y-81915000D03*
X138430000Y-86995000D03*
X158115000Y-77470000D03*
X161925000Y-99060000D03*
X153670000Y-80010000D03*
D16*
X150495000Y-83185000D02*
X140335000Y-83185000D01*
X140335000Y-83185000D02*
X140182500Y-83337500D01*
X153035000Y-114300000D02*
X150495000Y-114300000D01*
X168195000Y-114300000D02*
X169545000Y-115650000D01*
X150495000Y-114300000D02*
X168195000Y-114300000D01*
X149225000Y-81915000D02*
X139700000Y-81915000D01*
X138430000Y-83185000D02*
X138430000Y-86995000D01*
X139700000Y-81915000D02*
X138430000Y-83185000D01*
X158115000Y-77470000D02*
X150495000Y-77470000D01*
X149225000Y-76200000D02*
X149225000Y-74295000D01*
X150495000Y-77470000D02*
X149225000Y-76200000D01*
X161925000Y-99060000D02*
X161290000Y-98425000D01*
X161290000Y-98425000D02*
X161290000Y-85090000D01*
X161290000Y-85090000D02*
X156210000Y-80010000D01*
X156210000Y-80010000D02*
X153670000Y-80010000D01*
D17*
G36*
X175235001Y-83152572D02*
G01*
X175235000Y-83152582D01*
X175235001Y-123800000D01*
X123850000Y-123800000D01*
X123850000Y-119002285D01*
X124435000Y-119002285D01*
X124435000Y-119757715D01*
X124582377Y-120498628D01*
X124871467Y-121196554D01*
X125291161Y-121824670D01*
X125825330Y-122358839D01*
X126453446Y-122778533D01*
X127151372Y-123067623D01*
X127892285Y-123215000D01*
X128647715Y-123215000D01*
X129388628Y-123067623D01*
X130086554Y-122778533D01*
X130714670Y-122358839D01*
X131074285Y-121999224D01*
X168375381Y-121999224D01*
X168507317Y-122294312D01*
X168848045Y-122465159D01*
X169215557Y-122566250D01*
X169595729Y-122593701D01*
X169973951Y-122546457D01*
X170335690Y-122426333D01*
X170582683Y-122294312D01*
X170714619Y-121999224D01*
X169545000Y-120829605D01*
X168375381Y-121999224D01*
X131074285Y-121999224D01*
X131248839Y-121824670D01*
X131668533Y-121196554D01*
X131873910Y-120700729D01*
X167601299Y-120700729D01*
X167648543Y-121078951D01*
X167768667Y-121440690D01*
X167900688Y-121687683D01*
X168195776Y-121819619D01*
X169365395Y-120650000D01*
X169724605Y-120650000D01*
X170894224Y-121819619D01*
X171189312Y-121687683D01*
X171360159Y-121346955D01*
X171461250Y-120979443D01*
X171488701Y-120599271D01*
X171441457Y-120221049D01*
X171321333Y-119859310D01*
X171189312Y-119612317D01*
X170894224Y-119480381D01*
X169724605Y-120650000D01*
X169365395Y-120650000D01*
X168195776Y-119480381D01*
X167900688Y-119612317D01*
X167729841Y-119953045D01*
X167628750Y-120320557D01*
X167601299Y-120700729D01*
X131873910Y-120700729D01*
X131957623Y-120498628D01*
X132105000Y-119757715D01*
X132105000Y-119300776D01*
X168375381Y-119300776D01*
X169545000Y-120470395D01*
X170714619Y-119300776D01*
X170582683Y-119005688D01*
X170241955Y-118834841D01*
X169874443Y-118733750D01*
X169494271Y-118706299D01*
X169116049Y-118753543D01*
X168754310Y-118873667D01*
X168507317Y-119005688D01*
X168375381Y-119300776D01*
X132105000Y-119300776D01*
X132105000Y-119002285D01*
X131957623Y-118261372D01*
X131668533Y-117563446D01*
X131248839Y-116935330D01*
X130714670Y-116401161D01*
X130086554Y-115981467D01*
X129388628Y-115692377D01*
X128647715Y-115545000D01*
X127892285Y-115545000D01*
X127151372Y-115692377D01*
X126453446Y-115981467D01*
X125825330Y-116401161D01*
X125291161Y-116935330D01*
X124871467Y-117563446D01*
X124582377Y-118261372D01*
X124435000Y-119002285D01*
X123850000Y-119002285D01*
X123850000Y-114198061D01*
X149460000Y-114198061D01*
X149460000Y-114401939D01*
X149499774Y-114601898D01*
X149577795Y-114790256D01*
X149691063Y-114959774D01*
X149835226Y-115103937D01*
X150004744Y-115217205D01*
X150193102Y-115295226D01*
X150393061Y-115335000D01*
X150596939Y-115335000D01*
X150796898Y-115295226D01*
X150985256Y-115217205D01*
X151033454Y-115185000D01*
X151226546Y-115185000D01*
X151274744Y-115217205D01*
X151463102Y-115295226D01*
X151663061Y-115335000D01*
X151866939Y-115335000D01*
X152066898Y-115295226D01*
X152255256Y-115217205D01*
X152303454Y-115185000D01*
X152496546Y-115185000D01*
X152544744Y-115217205D01*
X152733102Y-115295226D01*
X152933061Y-115335000D01*
X153136939Y-115335000D01*
X153336898Y-115295226D01*
X153525256Y-115217205D01*
X153573454Y-115185000D01*
X167606928Y-115185000D01*
X167606928Y-116950000D01*
X167619188Y-117074482D01*
X167655498Y-117194180D01*
X167714463Y-117304494D01*
X167793815Y-117401185D01*
X167890506Y-117480537D01*
X168000820Y-117539502D01*
X168120518Y-117575812D01*
X168245000Y-117588072D01*
X170845000Y-117588072D01*
X170969482Y-117575812D01*
X171089180Y-117539502D01*
X171199494Y-117480537D01*
X171296185Y-117401185D01*
X171375537Y-117304494D01*
X171434502Y-117194180D01*
X171470812Y-117074482D01*
X171483072Y-116950000D01*
X171483072Y-114350000D01*
X171470812Y-114225518D01*
X171434502Y-114105820D01*
X171375537Y-113995506D01*
X171296185Y-113898815D01*
X171199494Y-113819463D01*
X171089180Y-113760498D01*
X170969482Y-113724188D01*
X170845000Y-113711928D01*
X168858506Y-113711928D01*
X168851534Y-113704956D01*
X168823817Y-113671183D01*
X168689059Y-113560589D01*
X168535313Y-113478411D01*
X168368490Y-113427805D01*
X168238477Y-113415000D01*
X168238469Y-113415000D01*
X168195000Y-113410719D01*
X168151531Y-113415000D01*
X153573454Y-113415000D01*
X153525256Y-113382795D01*
X153336898Y-113304774D01*
X153136939Y-113265000D01*
X152933061Y-113265000D01*
X152733102Y-113304774D01*
X152544744Y-113382795D01*
X152496546Y-113415000D01*
X152303454Y-113415000D01*
X152255256Y-113382795D01*
X152066898Y-113304774D01*
X151866939Y-113265000D01*
X151663061Y-113265000D01*
X151463102Y-113304774D01*
X151274744Y-113382795D01*
X151226546Y-113415000D01*
X151033454Y-113415000D01*
X150985256Y-113382795D01*
X150796898Y-113304774D01*
X150596939Y-113265000D01*
X150393061Y-113265000D01*
X150193102Y-113304774D01*
X150004744Y-113382795D01*
X149835226Y-113496063D01*
X149691063Y-113640226D01*
X149577795Y-113809744D01*
X149499774Y-113998102D01*
X149460000Y-114198061D01*
X123850000Y-114198061D01*
X123850000Y-107285000D01*
X127601928Y-107285000D01*
X127601928Y-109885000D01*
X127614188Y-110009482D01*
X127650498Y-110129180D01*
X127709463Y-110239494D01*
X127788815Y-110336185D01*
X127885506Y-110415537D01*
X127995820Y-110474502D01*
X128115518Y-110510812D01*
X128240000Y-110523072D01*
X130840000Y-110523072D01*
X130964482Y-110510812D01*
X131084180Y-110474502D01*
X131194494Y-110415537D01*
X131291185Y-110336185D01*
X131370537Y-110239494D01*
X131429502Y-110129180D01*
X131465812Y-110009482D01*
X131478072Y-109885000D01*
X131478072Y-108394419D01*
X167610000Y-108394419D01*
X167610000Y-108775581D01*
X167684361Y-109149419D01*
X167830225Y-109501566D01*
X168041987Y-109818491D01*
X168311509Y-110088013D01*
X168628434Y-110299775D01*
X168980581Y-110445639D01*
X169354419Y-110520000D01*
X169735581Y-110520000D01*
X170109419Y-110445639D01*
X170461566Y-110299775D01*
X170778491Y-110088013D01*
X171048013Y-109818491D01*
X171259775Y-109501566D01*
X171405639Y-109149419D01*
X171480000Y-108775581D01*
X171480000Y-108394419D01*
X171405639Y-108020581D01*
X171259775Y-107668434D01*
X171048013Y-107351509D01*
X170778491Y-107081987D01*
X170461566Y-106870225D01*
X170109419Y-106724361D01*
X169735581Y-106650000D01*
X169354419Y-106650000D01*
X168980581Y-106724361D01*
X168628434Y-106870225D01*
X168311509Y-107081987D01*
X168041987Y-107351509D01*
X167830225Y-107668434D01*
X167684361Y-108020581D01*
X167610000Y-108394419D01*
X131478072Y-108394419D01*
X131478072Y-107285000D01*
X131465812Y-107160518D01*
X131429502Y-107040820D01*
X131370537Y-106930506D01*
X131291185Y-106833815D01*
X131194494Y-106754463D01*
X131084180Y-106695498D01*
X130964482Y-106659188D01*
X130840000Y-106646928D01*
X128240000Y-106646928D01*
X128115518Y-106659188D01*
X127995820Y-106695498D01*
X127885506Y-106754463D01*
X127788815Y-106833815D01*
X127709463Y-106930506D01*
X127650498Y-107040820D01*
X127614188Y-107160518D01*
X127601928Y-107285000D01*
X123850000Y-107285000D01*
X123850000Y-103394419D01*
X127605000Y-103394419D01*
X127605000Y-103775581D01*
X127679361Y-104149419D01*
X127825225Y-104501566D01*
X128036987Y-104818491D01*
X128306509Y-105088013D01*
X128623434Y-105299775D01*
X128975581Y-105445639D01*
X129349419Y-105520000D01*
X129730581Y-105520000D01*
X130104419Y-105445639D01*
X130456566Y-105299775D01*
X130773491Y-105088013D01*
X131043013Y-104818491D01*
X131254775Y-104501566D01*
X131400639Y-104149419D01*
X131475000Y-103775581D01*
X131475000Y-103394419D01*
X131400639Y-103020581D01*
X131254775Y-102668434D01*
X131043013Y-102351509D01*
X130976504Y-102285000D01*
X167606928Y-102285000D01*
X167606928Y-104885000D01*
X167619188Y-105009482D01*
X167655498Y-105129180D01*
X167714463Y-105239494D01*
X167793815Y-105336185D01*
X167890506Y-105415537D01*
X168000820Y-105474502D01*
X168120518Y-105510812D01*
X168245000Y-105523072D01*
X170845000Y-105523072D01*
X170969482Y-105510812D01*
X171089180Y-105474502D01*
X171199494Y-105415537D01*
X171296185Y-105336185D01*
X171375537Y-105239494D01*
X171434502Y-105129180D01*
X171470812Y-105009482D01*
X171483072Y-104885000D01*
X171483072Y-102285000D01*
X171470812Y-102160518D01*
X171434502Y-102040820D01*
X171375537Y-101930506D01*
X171296185Y-101833815D01*
X171199494Y-101754463D01*
X171089180Y-101695498D01*
X170969482Y-101659188D01*
X170845000Y-101646928D01*
X168245000Y-101646928D01*
X168120518Y-101659188D01*
X168000820Y-101695498D01*
X167890506Y-101754463D01*
X167793815Y-101833815D01*
X167714463Y-101930506D01*
X167655498Y-102040820D01*
X167619188Y-102160518D01*
X167606928Y-102285000D01*
X130976504Y-102285000D01*
X130773491Y-102081987D01*
X130456566Y-101870225D01*
X130104419Y-101724361D01*
X129730581Y-101650000D01*
X129349419Y-101650000D01*
X128975581Y-101724361D01*
X128623434Y-101870225D01*
X128306509Y-102081987D01*
X128036987Y-102351509D01*
X127825225Y-102668434D01*
X127679361Y-103020581D01*
X127605000Y-103394419D01*
X123850000Y-103394419D01*
X123850000Y-95220000D01*
X127601928Y-95220000D01*
X127601928Y-97820000D01*
X127614188Y-97944482D01*
X127650498Y-98064180D01*
X127709463Y-98174494D01*
X127788815Y-98271185D01*
X127885506Y-98350537D01*
X127995820Y-98409502D01*
X128115518Y-98445812D01*
X128240000Y-98458072D01*
X130840000Y-98458072D01*
X130964482Y-98445812D01*
X131084180Y-98409502D01*
X131194494Y-98350537D01*
X131291185Y-98271185D01*
X131370537Y-98174494D01*
X131429502Y-98064180D01*
X131465812Y-97944482D01*
X131478072Y-97820000D01*
X131478072Y-95220000D01*
X131465812Y-95095518D01*
X131429502Y-94975820D01*
X131370537Y-94865506D01*
X131291185Y-94768815D01*
X131194494Y-94689463D01*
X131084180Y-94630498D01*
X130964482Y-94594188D01*
X130840000Y-94581928D01*
X128240000Y-94581928D01*
X128115518Y-94594188D01*
X127995820Y-94630498D01*
X127885506Y-94689463D01*
X127788815Y-94768815D01*
X127709463Y-94865506D01*
X127650498Y-94975820D01*
X127614188Y-95095518D01*
X127601928Y-95220000D01*
X123850000Y-95220000D01*
X123850000Y-91329419D01*
X127605000Y-91329419D01*
X127605000Y-91710581D01*
X127679361Y-92084419D01*
X127825225Y-92436566D01*
X128036987Y-92753491D01*
X128306509Y-93023013D01*
X128623434Y-93234775D01*
X128975581Y-93380639D01*
X129349419Y-93455000D01*
X129730581Y-93455000D01*
X130104419Y-93380639D01*
X130456566Y-93234775D01*
X130773491Y-93023013D01*
X131043013Y-92753491D01*
X131254775Y-92436566D01*
X131400639Y-92084419D01*
X131475000Y-91710581D01*
X131475000Y-91329419D01*
X131400639Y-90955581D01*
X131254775Y-90603434D01*
X131043013Y-90286509D01*
X130773491Y-90016987D01*
X130456566Y-89805225D01*
X130104419Y-89659361D01*
X129730581Y-89585000D01*
X129349419Y-89585000D01*
X128975581Y-89659361D01*
X128623434Y-89805225D01*
X128306509Y-90016987D01*
X128036987Y-90286509D01*
X127825225Y-90603434D01*
X127679361Y-90955581D01*
X127605000Y-91329419D01*
X123850000Y-91329419D01*
X123850000Y-86893061D01*
X137395000Y-86893061D01*
X137395000Y-87096939D01*
X137434774Y-87296898D01*
X137512795Y-87485256D01*
X137626063Y-87654774D01*
X137770226Y-87798937D01*
X137939744Y-87912205D01*
X138128102Y-87990226D01*
X138328061Y-88030000D01*
X138531939Y-88030000D01*
X138731898Y-87990226D01*
X138920256Y-87912205D01*
X139089774Y-87798937D01*
X139233937Y-87654774D01*
X139347205Y-87485256D01*
X139425226Y-87296898D01*
X139465000Y-87096939D01*
X139465000Y-86893061D01*
X139425226Y-86693102D01*
X139347205Y-86504744D01*
X139315000Y-86456546D01*
X139315000Y-83902145D01*
X139378563Y-83997274D01*
X139522726Y-84141437D01*
X139692244Y-84254705D01*
X139880602Y-84332726D01*
X140080561Y-84372500D01*
X140284439Y-84372500D01*
X140484398Y-84332726D01*
X140672756Y-84254705D01*
X140842274Y-84141437D01*
X140913711Y-84070000D01*
X149956546Y-84070000D01*
X150004744Y-84102205D01*
X150193102Y-84180226D01*
X150393061Y-84220000D01*
X150596939Y-84220000D01*
X150796898Y-84180226D01*
X150985256Y-84102205D01*
X151154774Y-83988937D01*
X151298937Y-83844774D01*
X151412205Y-83675256D01*
X151490226Y-83486898D01*
X151530000Y-83286939D01*
X151530000Y-83083061D01*
X151490226Y-82883102D01*
X151412205Y-82694744D01*
X151298937Y-82525226D01*
X151154774Y-82381063D01*
X150985256Y-82267795D01*
X150796898Y-82189774D01*
X150596939Y-82150000D01*
X150393061Y-82150000D01*
X150226961Y-82183039D01*
X150260000Y-82016939D01*
X150260000Y-81813061D01*
X150220226Y-81613102D01*
X150142205Y-81424744D01*
X150028937Y-81255226D01*
X149884774Y-81111063D01*
X149715256Y-80997795D01*
X149526898Y-80919774D01*
X149326939Y-80880000D01*
X149123061Y-80880000D01*
X148923102Y-80919774D01*
X148734744Y-80997795D01*
X148686546Y-81030000D01*
X139743465Y-81030000D01*
X139699999Y-81025719D01*
X139656533Y-81030000D01*
X139656523Y-81030000D01*
X139526510Y-81042805D01*
X139359687Y-81093411D01*
X139205941Y-81175589D01*
X139205939Y-81175590D01*
X139205940Y-81175590D01*
X139104953Y-81258468D01*
X139104951Y-81258470D01*
X139071183Y-81286183D01*
X139043470Y-81319951D01*
X137834956Y-82528466D01*
X137801183Y-82556183D01*
X137690589Y-82690942D01*
X137608411Y-82844688D01*
X137557805Y-83011511D01*
X137545000Y-83141524D01*
X137545000Y-83141531D01*
X137540719Y-83185000D01*
X137545000Y-83228469D01*
X137545001Y-86456544D01*
X137512795Y-86504744D01*
X137434774Y-86693102D01*
X137395000Y-86893061D01*
X123850000Y-86893061D01*
X123850000Y-85755000D01*
X127601928Y-85755000D01*
X127614188Y-85879482D01*
X127650498Y-85999180D01*
X127709463Y-86109494D01*
X127788815Y-86206185D01*
X127885506Y-86285537D01*
X127995820Y-86344502D01*
X128115518Y-86380812D01*
X128240000Y-86393072D01*
X129254250Y-86390000D01*
X129413000Y-86231250D01*
X129413000Y-84582000D01*
X129667000Y-84582000D01*
X129667000Y-86231250D01*
X129825750Y-86390000D01*
X130840000Y-86393072D01*
X130964482Y-86380812D01*
X131084180Y-86344502D01*
X131194494Y-86285537D01*
X131291185Y-86206185D01*
X131370537Y-86109494D01*
X131429502Y-85999180D01*
X131465812Y-85879482D01*
X131478072Y-85755000D01*
X131475000Y-84740750D01*
X131316250Y-84582000D01*
X129667000Y-84582000D01*
X129413000Y-84582000D01*
X127763750Y-84582000D01*
X127605000Y-84740750D01*
X127601928Y-85755000D01*
X123850000Y-85755000D01*
X123850000Y-83155000D01*
X127601928Y-83155000D01*
X127605000Y-84169250D01*
X127763750Y-84328000D01*
X129413000Y-84328000D01*
X129413000Y-82678750D01*
X129667000Y-82678750D01*
X129667000Y-84328000D01*
X131316250Y-84328000D01*
X131475000Y-84169250D01*
X131478072Y-83155000D01*
X131465812Y-83030518D01*
X131429502Y-82910820D01*
X131370537Y-82800506D01*
X131291185Y-82703815D01*
X131194494Y-82624463D01*
X131084180Y-82565498D01*
X130964482Y-82529188D01*
X130840000Y-82516928D01*
X129825750Y-82520000D01*
X129667000Y-82678750D01*
X129413000Y-82678750D01*
X129254250Y-82520000D01*
X128240000Y-82516928D01*
X128115518Y-82529188D01*
X127995820Y-82565498D01*
X127885506Y-82624463D01*
X127788815Y-82703815D01*
X127709463Y-82800506D01*
X127650498Y-82910820D01*
X127614188Y-83030518D01*
X127601928Y-83155000D01*
X123850000Y-83155000D01*
X123850000Y-79264419D01*
X127605000Y-79264419D01*
X127605000Y-79645581D01*
X127679361Y-80019419D01*
X127825225Y-80371566D01*
X128036987Y-80688491D01*
X128306509Y-80958013D01*
X128623434Y-81169775D01*
X128975581Y-81315639D01*
X129349419Y-81390000D01*
X129730581Y-81390000D01*
X130104419Y-81315639D01*
X130456566Y-81169775D01*
X130773491Y-80958013D01*
X131043013Y-80688491D01*
X131254775Y-80371566D01*
X131400639Y-80019419D01*
X131422789Y-79908061D01*
X152635000Y-79908061D01*
X152635000Y-80111939D01*
X152674774Y-80311898D01*
X152752795Y-80500256D01*
X152866063Y-80669774D01*
X153010226Y-80813937D01*
X153179744Y-80927205D01*
X153368102Y-81005226D01*
X153568061Y-81045000D01*
X153771939Y-81045000D01*
X153971898Y-81005226D01*
X154160256Y-80927205D01*
X154208454Y-80895000D01*
X155843422Y-80895000D01*
X160405001Y-85456580D01*
X160405000Y-98381531D01*
X160400719Y-98425000D01*
X160405000Y-98468469D01*
X160405000Y-98468476D01*
X160417805Y-98598489D01*
X160468411Y-98765312D01*
X160550589Y-98919058D01*
X160661183Y-99053817D01*
X160694956Y-99081534D01*
X160918465Y-99305043D01*
X160929774Y-99361898D01*
X161007795Y-99550256D01*
X161121063Y-99719774D01*
X161265226Y-99863937D01*
X161434744Y-99977205D01*
X161623102Y-100055226D01*
X161823061Y-100095000D01*
X162026939Y-100095000D01*
X162226898Y-100055226D01*
X162415256Y-99977205D01*
X162584774Y-99863937D01*
X162728937Y-99719774D01*
X162842205Y-99550256D01*
X162920226Y-99361898D01*
X162960000Y-99161939D01*
X162960000Y-98958061D01*
X162920226Y-98758102D01*
X162842205Y-98569744D01*
X162728937Y-98400226D01*
X162584774Y-98256063D01*
X162415256Y-98142795D01*
X162226898Y-98064774D01*
X162175000Y-98054451D01*
X162175000Y-96329419D01*
X167610000Y-96329419D01*
X167610000Y-96710581D01*
X167684361Y-97084419D01*
X167830225Y-97436566D01*
X168041987Y-97753491D01*
X168311509Y-98023013D01*
X168628434Y-98234775D01*
X168980581Y-98380639D01*
X169354419Y-98455000D01*
X169735581Y-98455000D01*
X170109419Y-98380639D01*
X170461566Y-98234775D01*
X170778491Y-98023013D01*
X171048013Y-97753491D01*
X171259775Y-97436566D01*
X171405639Y-97084419D01*
X171480000Y-96710581D01*
X171480000Y-96329419D01*
X171405639Y-95955581D01*
X171259775Y-95603434D01*
X171048013Y-95286509D01*
X170778491Y-95016987D01*
X170461566Y-94805225D01*
X170109419Y-94659361D01*
X169735581Y-94585000D01*
X169354419Y-94585000D01*
X168980581Y-94659361D01*
X168628434Y-94805225D01*
X168311509Y-95016987D01*
X168041987Y-95286509D01*
X167830225Y-95603434D01*
X167684361Y-95955581D01*
X167610000Y-96329419D01*
X162175000Y-96329419D01*
X162175000Y-90220000D01*
X167606928Y-90220000D01*
X167606928Y-92820000D01*
X167619188Y-92944482D01*
X167655498Y-93064180D01*
X167714463Y-93174494D01*
X167793815Y-93271185D01*
X167890506Y-93350537D01*
X168000820Y-93409502D01*
X168120518Y-93445812D01*
X168245000Y-93458072D01*
X170845000Y-93458072D01*
X170969482Y-93445812D01*
X171089180Y-93409502D01*
X171199494Y-93350537D01*
X171296185Y-93271185D01*
X171375537Y-93174494D01*
X171434502Y-93064180D01*
X171470812Y-92944482D01*
X171483072Y-92820000D01*
X171483072Y-90220000D01*
X171470812Y-90095518D01*
X171434502Y-89975820D01*
X171375537Y-89865506D01*
X171296185Y-89768815D01*
X171199494Y-89689463D01*
X171089180Y-89630498D01*
X170969482Y-89594188D01*
X170845000Y-89581928D01*
X168245000Y-89581928D01*
X168120518Y-89594188D01*
X168000820Y-89630498D01*
X167890506Y-89689463D01*
X167793815Y-89768815D01*
X167714463Y-89865506D01*
X167655498Y-89975820D01*
X167619188Y-90095518D01*
X167606928Y-90220000D01*
X162175000Y-90220000D01*
X162175000Y-85133469D01*
X162179281Y-85090000D01*
X162175000Y-85046531D01*
X162175000Y-85046523D01*
X162162195Y-84916510D01*
X162111589Y-84749687D01*
X162029411Y-84595941D01*
X161918817Y-84461183D01*
X161885049Y-84433470D01*
X156866534Y-79414956D01*
X156838817Y-79381183D01*
X156704059Y-79270589D01*
X156550313Y-79188411D01*
X156383490Y-79137805D01*
X156253477Y-79125000D01*
X156253469Y-79125000D01*
X156210000Y-79120719D01*
X156166531Y-79125000D01*
X154208454Y-79125000D01*
X154160256Y-79092795D01*
X153971898Y-79014774D01*
X153771939Y-78975000D01*
X153568061Y-78975000D01*
X153368102Y-79014774D01*
X153179744Y-79092795D01*
X153010226Y-79206063D01*
X152866063Y-79350226D01*
X152752795Y-79519744D01*
X152674774Y-79708102D01*
X152635000Y-79908061D01*
X131422789Y-79908061D01*
X131475000Y-79645581D01*
X131475000Y-79264419D01*
X131400639Y-78890581D01*
X131254775Y-78538434D01*
X131043013Y-78221509D01*
X130773491Y-77951987D01*
X130456566Y-77740225D01*
X130104419Y-77594361D01*
X129730581Y-77520000D01*
X129349419Y-77520000D01*
X128975581Y-77594361D01*
X128623434Y-77740225D01*
X128306509Y-77951987D01*
X128036987Y-78221509D01*
X127825225Y-78538434D01*
X127679361Y-78890581D01*
X127605000Y-79264419D01*
X123850000Y-79264419D01*
X123850000Y-74264419D01*
X127605000Y-74264419D01*
X127605000Y-74645581D01*
X127679361Y-75019419D01*
X127825225Y-75371566D01*
X128036987Y-75688491D01*
X128306509Y-75958013D01*
X128623434Y-76169775D01*
X128975581Y-76315639D01*
X129349419Y-76390000D01*
X129730581Y-76390000D01*
X130104419Y-76315639D01*
X130456566Y-76169775D01*
X130773491Y-75958013D01*
X131043013Y-75688491D01*
X131254775Y-75371566D01*
X131400639Y-75019419D01*
X131475000Y-74645581D01*
X131475000Y-74264419D01*
X131400639Y-73890581D01*
X131254775Y-73538434D01*
X131192345Y-73445000D01*
X147736928Y-73445000D01*
X147736928Y-75145000D01*
X147749188Y-75269482D01*
X147785498Y-75389180D01*
X147844463Y-75499494D01*
X147923815Y-75596185D01*
X148020506Y-75675537D01*
X148130820Y-75734502D01*
X148250518Y-75770812D01*
X148340000Y-75779625D01*
X148340000Y-76156531D01*
X148335719Y-76200000D01*
X148340000Y-76243469D01*
X148340000Y-76243476D01*
X148351212Y-76357314D01*
X148352805Y-76373490D01*
X148368157Y-76424096D01*
X148403411Y-76540312D01*
X148485589Y-76694058D01*
X148596183Y-76828817D01*
X148629956Y-76856534D01*
X149838470Y-78065049D01*
X149866183Y-78098817D01*
X149899951Y-78126530D01*
X149899953Y-78126532D01*
X149971452Y-78185210D01*
X150000941Y-78209411D01*
X150154687Y-78291589D01*
X150321510Y-78342195D01*
X150451523Y-78355000D01*
X150451533Y-78355000D01*
X150494999Y-78359281D01*
X150538465Y-78355000D01*
X157576546Y-78355000D01*
X157624744Y-78387205D01*
X157813102Y-78465226D01*
X158013061Y-78505000D01*
X158216939Y-78505000D01*
X158416898Y-78465226D01*
X158605256Y-78387205D01*
X158774774Y-78273937D01*
X158918937Y-78129774D01*
X159032205Y-77960256D01*
X159110226Y-77771898D01*
X159150000Y-77571939D01*
X159150000Y-77368061D01*
X159110226Y-77168102D01*
X159032205Y-76979744D01*
X158918937Y-76810226D01*
X158774774Y-76666063D01*
X158605256Y-76552795D01*
X158416898Y-76474774D01*
X158216939Y-76435000D01*
X158013061Y-76435000D01*
X157813102Y-76474774D01*
X157624744Y-76552795D01*
X157576546Y-76585000D01*
X150861579Y-76585000D01*
X150110000Y-75833422D01*
X150110000Y-75822285D01*
X166980000Y-75822285D01*
X166980000Y-76577715D01*
X167127377Y-77318628D01*
X167416467Y-78016554D01*
X167836161Y-78644670D01*
X168370330Y-79178839D01*
X168998446Y-79598533D01*
X169696372Y-79887623D01*
X170437285Y-80035000D01*
X171192715Y-80035000D01*
X171933628Y-79887623D01*
X172631554Y-79598533D01*
X173259670Y-79178839D01*
X173793839Y-78644670D01*
X174213533Y-78016554D01*
X174502623Y-77318628D01*
X174650000Y-76577715D01*
X174650000Y-75822285D01*
X174502623Y-75081372D01*
X174213533Y-74383446D01*
X173793839Y-73755330D01*
X173259670Y-73221161D01*
X172631554Y-72801467D01*
X171933628Y-72512377D01*
X171192715Y-72365000D01*
X170437285Y-72365000D01*
X169696372Y-72512377D01*
X168998446Y-72801467D01*
X168370330Y-73221161D01*
X167836161Y-73755330D01*
X167416467Y-74383446D01*
X167127377Y-75081372D01*
X166980000Y-75822285D01*
X150110000Y-75822285D01*
X150110000Y-75779625D01*
X150199482Y-75770812D01*
X150319180Y-75734502D01*
X150429494Y-75675537D01*
X150526185Y-75596185D01*
X150605537Y-75499494D01*
X150664502Y-75389180D01*
X150686513Y-75316620D01*
X150818368Y-75448475D01*
X151061589Y-75610990D01*
X151331842Y-75722932D01*
X151618740Y-75780000D01*
X151911260Y-75780000D01*
X152198158Y-75722932D01*
X152468411Y-75610990D01*
X152711632Y-75448475D01*
X152918475Y-75241632D01*
X153040195Y-75059466D01*
X153109822Y-75176355D01*
X153304731Y-75392588D01*
X153538080Y-75566641D01*
X153800901Y-75691825D01*
X153948110Y-75736476D01*
X154178000Y-75615155D01*
X154178000Y-74422000D01*
X154158000Y-74422000D01*
X154158000Y-74168000D01*
X154178000Y-74168000D01*
X154178000Y-72974845D01*
X154432000Y-72974845D01*
X154432000Y-74168000D01*
X154452000Y-74168000D01*
X154452000Y-74422000D01*
X154432000Y-74422000D01*
X154432000Y-75615155D01*
X154661890Y-75736476D01*
X154809099Y-75691825D01*
X155071920Y-75566641D01*
X155305269Y-75392588D01*
X155500178Y-75176355D01*
X155569805Y-75059466D01*
X155691525Y-75241632D01*
X155898368Y-75448475D01*
X156141589Y-75610990D01*
X156411842Y-75722932D01*
X156698740Y-75780000D01*
X156991260Y-75780000D01*
X157278158Y-75722932D01*
X157548411Y-75610990D01*
X157791632Y-75448475D01*
X157998475Y-75241632D01*
X158115000Y-75067240D01*
X158231525Y-75241632D01*
X158438368Y-75448475D01*
X158681589Y-75610990D01*
X158951842Y-75722932D01*
X159238740Y-75780000D01*
X159531260Y-75780000D01*
X159818158Y-75722932D01*
X160088411Y-75610990D01*
X160331632Y-75448475D01*
X160538475Y-75241632D01*
X160655000Y-75067240D01*
X160771525Y-75241632D01*
X160978368Y-75448475D01*
X161221589Y-75610990D01*
X161491842Y-75722932D01*
X161778740Y-75780000D01*
X162071260Y-75780000D01*
X162358158Y-75722932D01*
X162628411Y-75610990D01*
X162871632Y-75448475D01*
X163078475Y-75241632D01*
X163240990Y-74998411D01*
X163352932Y-74728158D01*
X163410000Y-74441260D01*
X163410000Y-74148740D01*
X163352932Y-73861842D01*
X163240990Y-73591589D01*
X163078475Y-73348368D01*
X162871632Y-73141525D01*
X162628411Y-72979010D01*
X162358158Y-72867068D01*
X162071260Y-72810000D01*
X161778740Y-72810000D01*
X161491842Y-72867068D01*
X161221589Y-72979010D01*
X160978368Y-73141525D01*
X160771525Y-73348368D01*
X160655000Y-73522760D01*
X160538475Y-73348368D01*
X160331632Y-73141525D01*
X160088411Y-72979010D01*
X159818158Y-72867068D01*
X159531260Y-72810000D01*
X159238740Y-72810000D01*
X158951842Y-72867068D01*
X158681589Y-72979010D01*
X158438368Y-73141525D01*
X158231525Y-73348368D01*
X158115000Y-73522760D01*
X157998475Y-73348368D01*
X157791632Y-73141525D01*
X157548411Y-72979010D01*
X157278158Y-72867068D01*
X156991260Y-72810000D01*
X156698740Y-72810000D01*
X156411842Y-72867068D01*
X156141589Y-72979010D01*
X155898368Y-73141525D01*
X155691525Y-73348368D01*
X155569805Y-73530534D01*
X155500178Y-73413645D01*
X155305269Y-73197412D01*
X155071920Y-73023359D01*
X154809099Y-72898175D01*
X154661890Y-72853524D01*
X154432000Y-72974845D01*
X154178000Y-72974845D01*
X153948110Y-72853524D01*
X153800901Y-72898175D01*
X153538080Y-73023359D01*
X153304731Y-73197412D01*
X153109822Y-73413645D01*
X153040195Y-73530534D01*
X152918475Y-73348368D01*
X152711632Y-73141525D01*
X152468411Y-72979010D01*
X152198158Y-72867068D01*
X151911260Y-72810000D01*
X151618740Y-72810000D01*
X151331842Y-72867068D01*
X151061589Y-72979010D01*
X150818368Y-73141525D01*
X150686513Y-73273380D01*
X150664502Y-73200820D01*
X150605537Y-73090506D01*
X150526185Y-72993815D01*
X150429494Y-72914463D01*
X150319180Y-72855498D01*
X150199482Y-72819188D01*
X150075000Y-72806928D01*
X148375000Y-72806928D01*
X148250518Y-72819188D01*
X148130820Y-72855498D01*
X148020506Y-72914463D01*
X147923815Y-72993815D01*
X147844463Y-73090506D01*
X147785498Y-73200820D01*
X147749188Y-73320518D01*
X147736928Y-73445000D01*
X131192345Y-73445000D01*
X131043013Y-73221509D01*
X130773491Y-72951987D01*
X130456566Y-72740225D01*
X130104419Y-72594361D01*
X129730581Y-72520000D01*
X129349419Y-72520000D01*
X128975581Y-72594361D01*
X128623434Y-72740225D01*
X128306509Y-72951987D01*
X128036987Y-73221509D01*
X127825225Y-73538434D01*
X127679361Y-73890581D01*
X127605000Y-74264419D01*
X123850000Y-74264419D01*
X123850000Y-71780000D01*
X175235000Y-71780000D01*
X175235001Y-83152572D01*
G37*
X175235001Y-83152572D02*
X175235000Y-83152582D01*
X175235001Y-123800000D01*
X123850000Y-123800000D01*
X123850000Y-119002285D01*
X124435000Y-119002285D01*
X124435000Y-119757715D01*
X124582377Y-120498628D01*
X124871467Y-121196554D01*
X125291161Y-121824670D01*
X125825330Y-122358839D01*
X126453446Y-122778533D01*
X127151372Y-123067623D01*
X127892285Y-123215000D01*
X128647715Y-123215000D01*
X129388628Y-123067623D01*
X130086554Y-122778533D01*
X130714670Y-122358839D01*
X131074285Y-121999224D01*
X168375381Y-121999224D01*
X168507317Y-122294312D01*
X168848045Y-122465159D01*
X169215557Y-122566250D01*
X169595729Y-122593701D01*
X169973951Y-122546457D01*
X170335690Y-122426333D01*
X170582683Y-122294312D01*
X170714619Y-121999224D01*
X169545000Y-120829605D01*
X168375381Y-121999224D01*
X131074285Y-121999224D01*
X131248839Y-121824670D01*
X131668533Y-121196554D01*
X131873910Y-120700729D01*
X167601299Y-120700729D01*
X167648543Y-121078951D01*
X167768667Y-121440690D01*
X167900688Y-121687683D01*
X168195776Y-121819619D01*
X169365395Y-120650000D01*
X169724605Y-120650000D01*
X170894224Y-121819619D01*
X171189312Y-121687683D01*
X171360159Y-121346955D01*
X171461250Y-120979443D01*
X171488701Y-120599271D01*
X171441457Y-120221049D01*
X171321333Y-119859310D01*
X171189312Y-119612317D01*
X170894224Y-119480381D01*
X169724605Y-120650000D01*
X169365395Y-120650000D01*
X168195776Y-119480381D01*
X167900688Y-119612317D01*
X167729841Y-119953045D01*
X167628750Y-120320557D01*
X167601299Y-120700729D01*
X131873910Y-120700729D01*
X131957623Y-120498628D01*
X132105000Y-119757715D01*
X132105000Y-119300776D01*
X168375381Y-119300776D01*
X169545000Y-120470395D01*
X170714619Y-119300776D01*
X170582683Y-119005688D01*
X170241955Y-118834841D01*
X169874443Y-118733750D01*
X169494271Y-118706299D01*
X169116049Y-118753543D01*
X168754310Y-118873667D01*
X168507317Y-119005688D01*
X168375381Y-119300776D01*
X132105000Y-119300776D01*
X132105000Y-119002285D01*
X131957623Y-118261372D01*
X131668533Y-117563446D01*
X131248839Y-116935330D01*
X130714670Y-116401161D01*
X130086554Y-115981467D01*
X129388628Y-115692377D01*
X128647715Y-115545000D01*
X127892285Y-115545000D01*
X127151372Y-115692377D01*
X126453446Y-115981467D01*
X125825330Y-116401161D01*
X125291161Y-116935330D01*
X124871467Y-117563446D01*
X124582377Y-118261372D01*
X124435000Y-119002285D01*
X123850000Y-119002285D01*
X123850000Y-114198061D01*
X149460000Y-114198061D01*
X149460000Y-114401939D01*
X149499774Y-114601898D01*
X149577795Y-114790256D01*
X149691063Y-114959774D01*
X149835226Y-115103937D01*
X150004744Y-115217205D01*
X150193102Y-115295226D01*
X150393061Y-115335000D01*
X150596939Y-115335000D01*
X150796898Y-115295226D01*
X150985256Y-115217205D01*
X151033454Y-115185000D01*
X151226546Y-115185000D01*
X151274744Y-115217205D01*
X151463102Y-115295226D01*
X151663061Y-115335000D01*
X151866939Y-115335000D01*
X152066898Y-115295226D01*
X152255256Y-115217205D01*
X152303454Y-115185000D01*
X152496546Y-115185000D01*
X152544744Y-115217205D01*
X152733102Y-115295226D01*
X152933061Y-115335000D01*
X153136939Y-115335000D01*
X153336898Y-115295226D01*
X153525256Y-115217205D01*
X153573454Y-115185000D01*
X167606928Y-115185000D01*
X167606928Y-116950000D01*
X167619188Y-117074482D01*
X167655498Y-117194180D01*
X167714463Y-117304494D01*
X167793815Y-117401185D01*
X167890506Y-117480537D01*
X168000820Y-117539502D01*
X168120518Y-117575812D01*
X168245000Y-117588072D01*
X170845000Y-117588072D01*
X170969482Y-117575812D01*
X171089180Y-117539502D01*
X171199494Y-117480537D01*
X171296185Y-117401185D01*
X171375537Y-117304494D01*
X171434502Y-117194180D01*
X171470812Y-117074482D01*
X171483072Y-116950000D01*
X171483072Y-114350000D01*
X171470812Y-114225518D01*
X171434502Y-114105820D01*
X171375537Y-113995506D01*
X171296185Y-113898815D01*
X171199494Y-113819463D01*
X171089180Y-113760498D01*
X170969482Y-113724188D01*
X170845000Y-113711928D01*
X168858506Y-113711928D01*
X168851534Y-113704956D01*
X168823817Y-113671183D01*
X168689059Y-113560589D01*
X168535313Y-113478411D01*
X168368490Y-113427805D01*
X168238477Y-113415000D01*
X168238469Y-113415000D01*
X168195000Y-113410719D01*
X168151531Y-113415000D01*
X153573454Y-113415000D01*
X153525256Y-113382795D01*
X153336898Y-113304774D01*
X153136939Y-113265000D01*
X152933061Y-113265000D01*
X152733102Y-113304774D01*
X152544744Y-113382795D01*
X152496546Y-113415000D01*
X152303454Y-113415000D01*
X152255256Y-113382795D01*
X152066898Y-113304774D01*
X151866939Y-113265000D01*
X151663061Y-113265000D01*
X151463102Y-113304774D01*
X151274744Y-113382795D01*
X151226546Y-113415000D01*
X151033454Y-113415000D01*
X150985256Y-113382795D01*
X150796898Y-113304774D01*
X150596939Y-113265000D01*
X150393061Y-113265000D01*
X150193102Y-113304774D01*
X150004744Y-113382795D01*
X149835226Y-113496063D01*
X149691063Y-113640226D01*
X149577795Y-113809744D01*
X149499774Y-113998102D01*
X149460000Y-114198061D01*
X123850000Y-114198061D01*
X123850000Y-107285000D01*
X127601928Y-107285000D01*
X127601928Y-109885000D01*
X127614188Y-110009482D01*
X127650498Y-110129180D01*
X127709463Y-110239494D01*
X127788815Y-110336185D01*
X127885506Y-110415537D01*
X127995820Y-110474502D01*
X128115518Y-110510812D01*
X128240000Y-110523072D01*
X130840000Y-110523072D01*
X130964482Y-110510812D01*
X131084180Y-110474502D01*
X131194494Y-110415537D01*
X131291185Y-110336185D01*
X131370537Y-110239494D01*
X131429502Y-110129180D01*
X131465812Y-110009482D01*
X131478072Y-109885000D01*
X131478072Y-108394419D01*
X167610000Y-108394419D01*
X167610000Y-108775581D01*
X167684361Y-109149419D01*
X167830225Y-109501566D01*
X168041987Y-109818491D01*
X168311509Y-110088013D01*
X168628434Y-110299775D01*
X168980581Y-110445639D01*
X169354419Y-110520000D01*
X169735581Y-110520000D01*
X170109419Y-110445639D01*
X170461566Y-110299775D01*
X170778491Y-110088013D01*
X171048013Y-109818491D01*
X171259775Y-109501566D01*
X171405639Y-109149419D01*
X171480000Y-108775581D01*
X171480000Y-108394419D01*
X171405639Y-108020581D01*
X171259775Y-107668434D01*
X171048013Y-107351509D01*
X170778491Y-107081987D01*
X170461566Y-106870225D01*
X170109419Y-106724361D01*
X169735581Y-106650000D01*
X169354419Y-106650000D01*
X168980581Y-106724361D01*
X168628434Y-106870225D01*
X168311509Y-107081987D01*
X168041987Y-107351509D01*
X167830225Y-107668434D01*
X167684361Y-108020581D01*
X167610000Y-108394419D01*
X131478072Y-108394419D01*
X131478072Y-107285000D01*
X131465812Y-107160518D01*
X131429502Y-107040820D01*
X131370537Y-106930506D01*
X131291185Y-106833815D01*
X131194494Y-106754463D01*
X131084180Y-106695498D01*
X130964482Y-106659188D01*
X130840000Y-106646928D01*
X128240000Y-106646928D01*
X128115518Y-106659188D01*
X127995820Y-106695498D01*
X127885506Y-106754463D01*
X127788815Y-106833815D01*
X127709463Y-106930506D01*
X127650498Y-107040820D01*
X127614188Y-107160518D01*
X127601928Y-107285000D01*
X123850000Y-107285000D01*
X123850000Y-103394419D01*
X127605000Y-103394419D01*
X127605000Y-103775581D01*
X127679361Y-104149419D01*
X127825225Y-104501566D01*
X128036987Y-104818491D01*
X128306509Y-105088013D01*
X128623434Y-105299775D01*
X128975581Y-105445639D01*
X129349419Y-105520000D01*
X129730581Y-105520000D01*
X130104419Y-105445639D01*
X130456566Y-105299775D01*
X130773491Y-105088013D01*
X131043013Y-104818491D01*
X131254775Y-104501566D01*
X131400639Y-104149419D01*
X131475000Y-103775581D01*
X131475000Y-103394419D01*
X131400639Y-103020581D01*
X131254775Y-102668434D01*
X131043013Y-102351509D01*
X130976504Y-102285000D01*
X167606928Y-102285000D01*
X167606928Y-104885000D01*
X167619188Y-105009482D01*
X167655498Y-105129180D01*
X167714463Y-105239494D01*
X167793815Y-105336185D01*
X167890506Y-105415537D01*
X168000820Y-105474502D01*
X168120518Y-105510812D01*
X168245000Y-105523072D01*
X170845000Y-105523072D01*
X170969482Y-105510812D01*
X171089180Y-105474502D01*
X171199494Y-105415537D01*
X171296185Y-105336185D01*
X171375537Y-105239494D01*
X171434502Y-105129180D01*
X171470812Y-105009482D01*
X171483072Y-104885000D01*
X171483072Y-102285000D01*
X171470812Y-102160518D01*
X171434502Y-102040820D01*
X171375537Y-101930506D01*
X171296185Y-101833815D01*
X171199494Y-101754463D01*
X171089180Y-101695498D01*
X170969482Y-101659188D01*
X170845000Y-101646928D01*
X168245000Y-101646928D01*
X168120518Y-101659188D01*
X168000820Y-101695498D01*
X167890506Y-101754463D01*
X167793815Y-101833815D01*
X167714463Y-101930506D01*
X167655498Y-102040820D01*
X167619188Y-102160518D01*
X167606928Y-102285000D01*
X130976504Y-102285000D01*
X130773491Y-102081987D01*
X130456566Y-101870225D01*
X130104419Y-101724361D01*
X129730581Y-101650000D01*
X129349419Y-101650000D01*
X128975581Y-101724361D01*
X128623434Y-101870225D01*
X128306509Y-102081987D01*
X128036987Y-102351509D01*
X127825225Y-102668434D01*
X127679361Y-103020581D01*
X127605000Y-103394419D01*
X123850000Y-103394419D01*
X123850000Y-95220000D01*
X127601928Y-95220000D01*
X127601928Y-97820000D01*
X127614188Y-97944482D01*
X127650498Y-98064180D01*
X127709463Y-98174494D01*
X127788815Y-98271185D01*
X127885506Y-98350537D01*
X127995820Y-98409502D01*
X128115518Y-98445812D01*
X128240000Y-98458072D01*
X130840000Y-98458072D01*
X130964482Y-98445812D01*
X131084180Y-98409502D01*
X131194494Y-98350537D01*
X131291185Y-98271185D01*
X131370537Y-98174494D01*
X131429502Y-98064180D01*
X131465812Y-97944482D01*
X131478072Y-97820000D01*
X131478072Y-95220000D01*
X131465812Y-95095518D01*
X131429502Y-94975820D01*
X131370537Y-94865506D01*
X131291185Y-94768815D01*
X131194494Y-94689463D01*
X131084180Y-94630498D01*
X130964482Y-94594188D01*
X130840000Y-94581928D01*
X128240000Y-94581928D01*
X128115518Y-94594188D01*
X127995820Y-94630498D01*
X127885506Y-94689463D01*
X127788815Y-94768815D01*
X127709463Y-94865506D01*
X127650498Y-94975820D01*
X127614188Y-95095518D01*
X127601928Y-95220000D01*
X123850000Y-95220000D01*
X123850000Y-91329419D01*
X127605000Y-91329419D01*
X127605000Y-91710581D01*
X127679361Y-92084419D01*
X127825225Y-92436566D01*
X128036987Y-92753491D01*
X128306509Y-93023013D01*
X128623434Y-93234775D01*
X128975581Y-93380639D01*
X129349419Y-93455000D01*
X129730581Y-93455000D01*
X130104419Y-93380639D01*
X130456566Y-93234775D01*
X130773491Y-93023013D01*
X131043013Y-92753491D01*
X131254775Y-92436566D01*
X131400639Y-92084419D01*
X131475000Y-91710581D01*
X131475000Y-91329419D01*
X131400639Y-90955581D01*
X131254775Y-90603434D01*
X131043013Y-90286509D01*
X130773491Y-90016987D01*
X130456566Y-89805225D01*
X130104419Y-89659361D01*
X129730581Y-89585000D01*
X129349419Y-89585000D01*
X128975581Y-89659361D01*
X128623434Y-89805225D01*
X128306509Y-90016987D01*
X128036987Y-90286509D01*
X127825225Y-90603434D01*
X127679361Y-90955581D01*
X127605000Y-91329419D01*
X123850000Y-91329419D01*
X123850000Y-86893061D01*
X137395000Y-86893061D01*
X137395000Y-87096939D01*
X137434774Y-87296898D01*
X137512795Y-87485256D01*
X137626063Y-87654774D01*
X137770226Y-87798937D01*
X137939744Y-87912205D01*
X138128102Y-87990226D01*
X138328061Y-88030000D01*
X138531939Y-88030000D01*
X138731898Y-87990226D01*
X138920256Y-87912205D01*
X139089774Y-87798937D01*
X139233937Y-87654774D01*
X139347205Y-87485256D01*
X139425226Y-87296898D01*
X139465000Y-87096939D01*
X139465000Y-86893061D01*
X139425226Y-86693102D01*
X139347205Y-86504744D01*
X139315000Y-86456546D01*
X139315000Y-83902145D01*
X139378563Y-83997274D01*
X139522726Y-84141437D01*
X139692244Y-84254705D01*
X139880602Y-84332726D01*
X140080561Y-84372500D01*
X140284439Y-84372500D01*
X140484398Y-84332726D01*
X140672756Y-84254705D01*
X140842274Y-84141437D01*
X140913711Y-84070000D01*
X149956546Y-84070000D01*
X150004744Y-84102205D01*
X150193102Y-84180226D01*
X150393061Y-84220000D01*
X150596939Y-84220000D01*
X150796898Y-84180226D01*
X150985256Y-84102205D01*
X151154774Y-83988937D01*
X151298937Y-83844774D01*
X151412205Y-83675256D01*
X151490226Y-83486898D01*
X151530000Y-83286939D01*
X151530000Y-83083061D01*
X151490226Y-82883102D01*
X151412205Y-82694744D01*
X151298937Y-82525226D01*
X151154774Y-82381063D01*
X150985256Y-82267795D01*
X150796898Y-82189774D01*
X150596939Y-82150000D01*
X150393061Y-82150000D01*
X150226961Y-82183039D01*
X150260000Y-82016939D01*
X150260000Y-81813061D01*
X150220226Y-81613102D01*
X150142205Y-81424744D01*
X150028937Y-81255226D01*
X149884774Y-81111063D01*
X149715256Y-80997795D01*
X149526898Y-80919774D01*
X149326939Y-80880000D01*
X149123061Y-80880000D01*
X148923102Y-80919774D01*
X148734744Y-80997795D01*
X148686546Y-81030000D01*
X139743465Y-81030000D01*
X139699999Y-81025719D01*
X139656533Y-81030000D01*
X139656523Y-81030000D01*
X139526510Y-81042805D01*
X139359687Y-81093411D01*
X139205941Y-81175589D01*
X139205939Y-81175590D01*
X139205940Y-81175590D01*
X139104953Y-81258468D01*
X139104951Y-81258470D01*
X139071183Y-81286183D01*
X139043470Y-81319951D01*
X137834956Y-82528466D01*
X137801183Y-82556183D01*
X137690589Y-82690942D01*
X137608411Y-82844688D01*
X137557805Y-83011511D01*
X137545000Y-83141524D01*
X137545000Y-83141531D01*
X137540719Y-83185000D01*
X137545000Y-83228469D01*
X137545001Y-86456544D01*
X137512795Y-86504744D01*
X137434774Y-86693102D01*
X137395000Y-86893061D01*
X123850000Y-86893061D01*
X123850000Y-85755000D01*
X127601928Y-85755000D01*
X127614188Y-85879482D01*
X127650498Y-85999180D01*
X127709463Y-86109494D01*
X127788815Y-86206185D01*
X127885506Y-86285537D01*
X127995820Y-86344502D01*
X128115518Y-86380812D01*
X128240000Y-86393072D01*
X129254250Y-86390000D01*
X129413000Y-86231250D01*
X129413000Y-84582000D01*
X129667000Y-84582000D01*
X129667000Y-86231250D01*
X129825750Y-86390000D01*
X130840000Y-86393072D01*
X130964482Y-86380812D01*
X131084180Y-86344502D01*
X131194494Y-86285537D01*
X131291185Y-86206185D01*
X131370537Y-86109494D01*
X131429502Y-85999180D01*
X131465812Y-85879482D01*
X131478072Y-85755000D01*
X131475000Y-84740750D01*
X131316250Y-84582000D01*
X129667000Y-84582000D01*
X129413000Y-84582000D01*
X127763750Y-84582000D01*
X127605000Y-84740750D01*
X127601928Y-85755000D01*
X123850000Y-85755000D01*
X123850000Y-83155000D01*
X127601928Y-83155000D01*
X127605000Y-84169250D01*
X127763750Y-84328000D01*
X129413000Y-84328000D01*
X129413000Y-82678750D01*
X129667000Y-82678750D01*
X129667000Y-84328000D01*
X131316250Y-84328000D01*
X131475000Y-84169250D01*
X131478072Y-83155000D01*
X131465812Y-83030518D01*
X131429502Y-82910820D01*
X131370537Y-82800506D01*
X131291185Y-82703815D01*
X131194494Y-82624463D01*
X131084180Y-82565498D01*
X130964482Y-82529188D01*
X130840000Y-82516928D01*
X129825750Y-82520000D01*
X129667000Y-82678750D01*
X129413000Y-82678750D01*
X129254250Y-82520000D01*
X128240000Y-82516928D01*
X128115518Y-82529188D01*
X127995820Y-82565498D01*
X127885506Y-82624463D01*
X127788815Y-82703815D01*
X127709463Y-82800506D01*
X127650498Y-82910820D01*
X127614188Y-83030518D01*
X127601928Y-83155000D01*
X123850000Y-83155000D01*
X123850000Y-79264419D01*
X127605000Y-79264419D01*
X127605000Y-79645581D01*
X127679361Y-80019419D01*
X127825225Y-80371566D01*
X128036987Y-80688491D01*
X128306509Y-80958013D01*
X128623434Y-81169775D01*
X128975581Y-81315639D01*
X129349419Y-81390000D01*
X129730581Y-81390000D01*
X130104419Y-81315639D01*
X130456566Y-81169775D01*
X130773491Y-80958013D01*
X131043013Y-80688491D01*
X131254775Y-80371566D01*
X131400639Y-80019419D01*
X131422789Y-79908061D01*
X152635000Y-79908061D01*
X152635000Y-80111939D01*
X152674774Y-80311898D01*
X152752795Y-80500256D01*
X152866063Y-80669774D01*
X153010226Y-80813937D01*
X153179744Y-80927205D01*
X153368102Y-81005226D01*
X153568061Y-81045000D01*
X153771939Y-81045000D01*
X153971898Y-81005226D01*
X154160256Y-80927205D01*
X154208454Y-80895000D01*
X155843422Y-80895000D01*
X160405001Y-85456580D01*
X160405000Y-98381531D01*
X160400719Y-98425000D01*
X160405000Y-98468469D01*
X160405000Y-98468476D01*
X160417805Y-98598489D01*
X160468411Y-98765312D01*
X160550589Y-98919058D01*
X160661183Y-99053817D01*
X160694956Y-99081534D01*
X160918465Y-99305043D01*
X160929774Y-99361898D01*
X161007795Y-99550256D01*
X161121063Y-99719774D01*
X161265226Y-99863937D01*
X161434744Y-99977205D01*
X161623102Y-100055226D01*
X161823061Y-100095000D01*
X162026939Y-100095000D01*
X162226898Y-100055226D01*
X162415256Y-99977205D01*
X162584774Y-99863937D01*
X162728937Y-99719774D01*
X162842205Y-99550256D01*
X162920226Y-99361898D01*
X162960000Y-99161939D01*
X162960000Y-98958061D01*
X162920226Y-98758102D01*
X162842205Y-98569744D01*
X162728937Y-98400226D01*
X162584774Y-98256063D01*
X162415256Y-98142795D01*
X162226898Y-98064774D01*
X162175000Y-98054451D01*
X162175000Y-96329419D01*
X167610000Y-96329419D01*
X167610000Y-96710581D01*
X167684361Y-97084419D01*
X167830225Y-97436566D01*
X168041987Y-97753491D01*
X168311509Y-98023013D01*
X168628434Y-98234775D01*
X168980581Y-98380639D01*
X169354419Y-98455000D01*
X169735581Y-98455000D01*
X170109419Y-98380639D01*
X170461566Y-98234775D01*
X170778491Y-98023013D01*
X171048013Y-97753491D01*
X171259775Y-97436566D01*
X171405639Y-97084419D01*
X171480000Y-96710581D01*
X171480000Y-96329419D01*
X171405639Y-95955581D01*
X171259775Y-95603434D01*
X171048013Y-95286509D01*
X170778491Y-95016987D01*
X170461566Y-94805225D01*
X170109419Y-94659361D01*
X169735581Y-94585000D01*
X169354419Y-94585000D01*
X168980581Y-94659361D01*
X168628434Y-94805225D01*
X168311509Y-95016987D01*
X168041987Y-95286509D01*
X167830225Y-95603434D01*
X167684361Y-95955581D01*
X167610000Y-96329419D01*
X162175000Y-96329419D01*
X162175000Y-90220000D01*
X167606928Y-90220000D01*
X167606928Y-92820000D01*
X167619188Y-92944482D01*
X167655498Y-93064180D01*
X167714463Y-93174494D01*
X167793815Y-93271185D01*
X167890506Y-93350537D01*
X168000820Y-93409502D01*
X168120518Y-93445812D01*
X168245000Y-93458072D01*
X170845000Y-93458072D01*
X170969482Y-93445812D01*
X171089180Y-93409502D01*
X171199494Y-93350537D01*
X171296185Y-93271185D01*
X171375537Y-93174494D01*
X171434502Y-93064180D01*
X171470812Y-92944482D01*
X171483072Y-92820000D01*
X171483072Y-90220000D01*
X171470812Y-90095518D01*
X171434502Y-89975820D01*
X171375537Y-89865506D01*
X171296185Y-89768815D01*
X171199494Y-89689463D01*
X171089180Y-89630498D01*
X170969482Y-89594188D01*
X170845000Y-89581928D01*
X168245000Y-89581928D01*
X168120518Y-89594188D01*
X168000820Y-89630498D01*
X167890506Y-89689463D01*
X167793815Y-89768815D01*
X167714463Y-89865506D01*
X167655498Y-89975820D01*
X167619188Y-90095518D01*
X167606928Y-90220000D01*
X162175000Y-90220000D01*
X162175000Y-85133469D01*
X162179281Y-85090000D01*
X162175000Y-85046531D01*
X162175000Y-85046523D01*
X162162195Y-84916510D01*
X162111589Y-84749687D01*
X162029411Y-84595941D01*
X161918817Y-84461183D01*
X161885049Y-84433470D01*
X156866534Y-79414956D01*
X156838817Y-79381183D01*
X156704059Y-79270589D01*
X156550313Y-79188411D01*
X156383490Y-79137805D01*
X156253477Y-79125000D01*
X156253469Y-79125000D01*
X156210000Y-79120719D01*
X156166531Y-79125000D01*
X154208454Y-79125000D01*
X154160256Y-79092795D01*
X153971898Y-79014774D01*
X153771939Y-78975000D01*
X153568061Y-78975000D01*
X153368102Y-79014774D01*
X153179744Y-79092795D01*
X153010226Y-79206063D01*
X152866063Y-79350226D01*
X152752795Y-79519744D01*
X152674774Y-79708102D01*
X152635000Y-79908061D01*
X131422789Y-79908061D01*
X131475000Y-79645581D01*
X131475000Y-79264419D01*
X131400639Y-78890581D01*
X131254775Y-78538434D01*
X131043013Y-78221509D01*
X130773491Y-77951987D01*
X130456566Y-77740225D01*
X130104419Y-77594361D01*
X129730581Y-77520000D01*
X129349419Y-77520000D01*
X128975581Y-77594361D01*
X128623434Y-77740225D01*
X128306509Y-77951987D01*
X128036987Y-78221509D01*
X127825225Y-78538434D01*
X127679361Y-78890581D01*
X127605000Y-79264419D01*
X123850000Y-79264419D01*
X123850000Y-74264419D01*
X127605000Y-74264419D01*
X127605000Y-74645581D01*
X127679361Y-75019419D01*
X127825225Y-75371566D01*
X128036987Y-75688491D01*
X128306509Y-75958013D01*
X128623434Y-76169775D01*
X128975581Y-76315639D01*
X129349419Y-76390000D01*
X129730581Y-76390000D01*
X130104419Y-76315639D01*
X130456566Y-76169775D01*
X130773491Y-75958013D01*
X131043013Y-75688491D01*
X131254775Y-75371566D01*
X131400639Y-75019419D01*
X131475000Y-74645581D01*
X131475000Y-74264419D01*
X131400639Y-73890581D01*
X131254775Y-73538434D01*
X131192345Y-73445000D01*
X147736928Y-73445000D01*
X147736928Y-75145000D01*
X147749188Y-75269482D01*
X147785498Y-75389180D01*
X147844463Y-75499494D01*
X147923815Y-75596185D01*
X148020506Y-75675537D01*
X148130820Y-75734502D01*
X148250518Y-75770812D01*
X148340000Y-75779625D01*
X148340000Y-76156531D01*
X148335719Y-76200000D01*
X148340000Y-76243469D01*
X148340000Y-76243476D01*
X148351212Y-76357314D01*
X148352805Y-76373490D01*
X148368157Y-76424096D01*
X148403411Y-76540312D01*
X148485589Y-76694058D01*
X148596183Y-76828817D01*
X148629956Y-76856534D01*
X149838470Y-78065049D01*
X149866183Y-78098817D01*
X149899951Y-78126530D01*
X149899953Y-78126532D01*
X149971452Y-78185210D01*
X150000941Y-78209411D01*
X150154687Y-78291589D01*
X150321510Y-78342195D01*
X150451523Y-78355000D01*
X150451533Y-78355000D01*
X150494999Y-78359281D01*
X150538465Y-78355000D01*
X157576546Y-78355000D01*
X157624744Y-78387205D01*
X157813102Y-78465226D01*
X158013061Y-78505000D01*
X158216939Y-78505000D01*
X158416898Y-78465226D01*
X158605256Y-78387205D01*
X158774774Y-78273937D01*
X158918937Y-78129774D01*
X159032205Y-77960256D01*
X159110226Y-77771898D01*
X159150000Y-77571939D01*
X159150000Y-77368061D01*
X159110226Y-77168102D01*
X159032205Y-76979744D01*
X158918937Y-76810226D01*
X158774774Y-76666063D01*
X158605256Y-76552795D01*
X158416898Y-76474774D01*
X158216939Y-76435000D01*
X158013061Y-76435000D01*
X157813102Y-76474774D01*
X157624744Y-76552795D01*
X157576546Y-76585000D01*
X150861579Y-76585000D01*
X150110000Y-75833422D01*
X150110000Y-75822285D01*
X166980000Y-75822285D01*
X166980000Y-76577715D01*
X167127377Y-77318628D01*
X167416467Y-78016554D01*
X167836161Y-78644670D01*
X168370330Y-79178839D01*
X168998446Y-79598533D01*
X169696372Y-79887623D01*
X170437285Y-80035000D01*
X171192715Y-80035000D01*
X171933628Y-79887623D01*
X172631554Y-79598533D01*
X173259670Y-79178839D01*
X173793839Y-78644670D01*
X174213533Y-78016554D01*
X174502623Y-77318628D01*
X174650000Y-76577715D01*
X174650000Y-75822285D01*
X174502623Y-75081372D01*
X174213533Y-74383446D01*
X173793839Y-73755330D01*
X173259670Y-73221161D01*
X172631554Y-72801467D01*
X171933628Y-72512377D01*
X171192715Y-72365000D01*
X170437285Y-72365000D01*
X169696372Y-72512377D01*
X168998446Y-72801467D01*
X168370330Y-73221161D01*
X167836161Y-73755330D01*
X167416467Y-74383446D01*
X167127377Y-75081372D01*
X166980000Y-75822285D01*
X150110000Y-75822285D01*
X150110000Y-75779625D01*
X150199482Y-75770812D01*
X150319180Y-75734502D01*
X150429494Y-75675537D01*
X150526185Y-75596185D01*
X150605537Y-75499494D01*
X150664502Y-75389180D01*
X150686513Y-75316620D01*
X150818368Y-75448475D01*
X151061589Y-75610990D01*
X151331842Y-75722932D01*
X151618740Y-75780000D01*
X151911260Y-75780000D01*
X152198158Y-75722932D01*
X152468411Y-75610990D01*
X152711632Y-75448475D01*
X152918475Y-75241632D01*
X153040195Y-75059466D01*
X153109822Y-75176355D01*
X153304731Y-75392588D01*
X153538080Y-75566641D01*
X153800901Y-75691825D01*
X153948110Y-75736476D01*
X154178000Y-75615155D01*
X154178000Y-74422000D01*
X154158000Y-74422000D01*
X154158000Y-74168000D01*
X154178000Y-74168000D01*
X154178000Y-72974845D01*
X154432000Y-72974845D01*
X154432000Y-74168000D01*
X154452000Y-74168000D01*
X154452000Y-74422000D01*
X154432000Y-74422000D01*
X154432000Y-75615155D01*
X154661890Y-75736476D01*
X154809099Y-75691825D01*
X155071920Y-75566641D01*
X155305269Y-75392588D01*
X155500178Y-75176355D01*
X155569805Y-75059466D01*
X155691525Y-75241632D01*
X155898368Y-75448475D01*
X156141589Y-75610990D01*
X156411842Y-75722932D01*
X156698740Y-75780000D01*
X156991260Y-75780000D01*
X157278158Y-75722932D01*
X157548411Y-75610990D01*
X157791632Y-75448475D01*
X157998475Y-75241632D01*
X158115000Y-75067240D01*
X158231525Y-75241632D01*
X158438368Y-75448475D01*
X158681589Y-75610990D01*
X158951842Y-75722932D01*
X159238740Y-75780000D01*
X159531260Y-75780000D01*
X159818158Y-75722932D01*
X160088411Y-75610990D01*
X160331632Y-75448475D01*
X160538475Y-75241632D01*
X160655000Y-75067240D01*
X160771525Y-75241632D01*
X160978368Y-75448475D01*
X161221589Y-75610990D01*
X161491842Y-75722932D01*
X161778740Y-75780000D01*
X162071260Y-75780000D01*
X162358158Y-75722932D01*
X162628411Y-75610990D01*
X162871632Y-75448475D01*
X163078475Y-75241632D01*
X163240990Y-74998411D01*
X163352932Y-74728158D01*
X163410000Y-74441260D01*
X163410000Y-74148740D01*
X163352932Y-73861842D01*
X163240990Y-73591589D01*
X163078475Y-73348368D01*
X162871632Y-73141525D01*
X162628411Y-72979010D01*
X162358158Y-72867068D01*
X162071260Y-72810000D01*
X161778740Y-72810000D01*
X161491842Y-72867068D01*
X161221589Y-72979010D01*
X160978368Y-73141525D01*
X160771525Y-73348368D01*
X160655000Y-73522760D01*
X160538475Y-73348368D01*
X160331632Y-73141525D01*
X160088411Y-72979010D01*
X159818158Y-72867068D01*
X159531260Y-72810000D01*
X159238740Y-72810000D01*
X158951842Y-72867068D01*
X158681589Y-72979010D01*
X158438368Y-73141525D01*
X158231525Y-73348368D01*
X158115000Y-73522760D01*
X157998475Y-73348368D01*
X157791632Y-73141525D01*
X157548411Y-72979010D01*
X157278158Y-72867068D01*
X156991260Y-72810000D01*
X156698740Y-72810000D01*
X156411842Y-72867068D01*
X156141589Y-72979010D01*
X155898368Y-73141525D01*
X155691525Y-73348368D01*
X155569805Y-73530534D01*
X155500178Y-73413645D01*
X155305269Y-73197412D01*
X155071920Y-73023359D01*
X154809099Y-72898175D01*
X154661890Y-72853524D01*
X154432000Y-72974845D01*
X154178000Y-72974845D01*
X153948110Y-72853524D01*
X153800901Y-72898175D01*
X153538080Y-73023359D01*
X153304731Y-73197412D01*
X153109822Y-73413645D01*
X153040195Y-73530534D01*
X152918475Y-73348368D01*
X152711632Y-73141525D01*
X152468411Y-72979010D01*
X152198158Y-72867068D01*
X151911260Y-72810000D01*
X151618740Y-72810000D01*
X151331842Y-72867068D01*
X151061589Y-72979010D01*
X150818368Y-73141525D01*
X150686513Y-73273380D01*
X150664502Y-73200820D01*
X150605537Y-73090506D01*
X150526185Y-72993815D01*
X150429494Y-72914463D01*
X150319180Y-72855498D01*
X150199482Y-72819188D01*
X150075000Y-72806928D01*
X148375000Y-72806928D01*
X148250518Y-72819188D01*
X148130820Y-72855498D01*
X148020506Y-72914463D01*
X147923815Y-72993815D01*
X147844463Y-73090506D01*
X147785498Y-73200820D01*
X147749188Y-73320518D01*
X147736928Y-73445000D01*
X131192345Y-73445000D01*
X131043013Y-73221509D01*
X130773491Y-72951987D01*
X130456566Y-72740225D01*
X130104419Y-72594361D01*
X129730581Y-72520000D01*
X129349419Y-72520000D01*
X128975581Y-72594361D01*
X128623434Y-72740225D01*
X128306509Y-72951987D01*
X128036987Y-73221509D01*
X127825225Y-73538434D01*
X127679361Y-73890581D01*
X127605000Y-74264419D01*
X123850000Y-74264419D01*
X123850000Y-71780000D01*
X175235000Y-71780000D01*
X175235001Y-83152572D01*
M02*
