G04 #@! TF.GenerationSoftware,KiCad,Pcbnew,(5.1.5)-3*
G04 #@! TF.CreationDate,2020-06-25T10:52:07+02:00*
G04 #@! TF.ProjectId,VacTool,56616354-6f6f-46c2-9e6b-696361645f70,v0.0*
G04 #@! TF.SameCoordinates,Original*
G04 #@! TF.FileFunction,Soldermask,Bot*
G04 #@! TF.FilePolarity,Negative*
%FSLAX46Y46*%
G04 Gerber Fmt 4.6, Leading zero omitted, Abs format (unit mm)*
G04 Created by KiCad (PCBNEW (5.1.5)-3) date 2020-06-25 10:52:07*
%MOMM*%
%LPD*%
G04 APERTURE LIST*
%ADD10C,0.100000*%
G04 APERTURE END LIST*
D10*
G36*
X128904239Y-116191467D02*
G01*
X129218282Y-116253934D01*
X129809926Y-116499001D01*
X130342392Y-116854784D01*
X130795216Y-117307608D01*
X131150999Y-117840074D01*
X131396066Y-118431718D01*
X131396066Y-118431719D01*
X131521000Y-119059803D01*
X131521000Y-119700197D01*
X131459364Y-120010061D01*
X131396066Y-120328282D01*
X131150999Y-120919926D01*
X130795216Y-121452392D01*
X130342392Y-121905216D01*
X129809926Y-122260999D01*
X129218282Y-122506066D01*
X128904239Y-122568533D01*
X128590197Y-122631000D01*
X127949803Y-122631000D01*
X127635761Y-122568533D01*
X127321718Y-122506066D01*
X126730074Y-122260999D01*
X126197608Y-121905216D01*
X125744784Y-121452392D01*
X125389001Y-120919926D01*
X125143934Y-120328282D01*
X125080636Y-120010061D01*
X125019000Y-119700197D01*
X125019000Y-119059803D01*
X125143934Y-118431719D01*
X125143934Y-118431718D01*
X125389001Y-117840074D01*
X125744784Y-117307608D01*
X126197608Y-116854784D01*
X126730074Y-116499001D01*
X127321718Y-116253934D01*
X127635761Y-116191467D01*
X127949803Y-116129000D01*
X128590197Y-116129000D01*
X128904239Y-116191467D01*
G37*
G36*
X169939072Y-119350918D02*
G01*
X170116523Y-119424420D01*
X170184939Y-119452759D01*
X170272928Y-119511552D01*
X170406211Y-119600609D01*
X170594391Y-119788789D01*
X170742242Y-120010063D01*
X170844082Y-120255928D01*
X170896000Y-120516937D01*
X170896000Y-120783063D01*
X170868777Y-120919924D01*
X170844082Y-121044072D01*
X170742241Y-121289939D01*
X170716141Y-121329000D01*
X170606891Y-121492504D01*
X170594390Y-121511212D01*
X170406212Y-121699390D01*
X170184939Y-121847241D01*
X170184938Y-121847242D01*
X170184937Y-121847242D01*
X169939072Y-121949082D01*
X169678063Y-122001000D01*
X169411937Y-122001000D01*
X169150928Y-121949082D01*
X168905063Y-121847242D01*
X168905062Y-121847242D01*
X168905061Y-121847241D01*
X168683788Y-121699390D01*
X168495610Y-121511212D01*
X168483110Y-121492504D01*
X168373859Y-121329000D01*
X168347759Y-121289939D01*
X168245918Y-121044072D01*
X168221223Y-120919924D01*
X168194000Y-120783063D01*
X168194000Y-120516937D01*
X168245918Y-120255928D01*
X168347758Y-120010063D01*
X168495609Y-119788789D01*
X168683789Y-119600609D01*
X168817072Y-119511552D01*
X168905061Y-119452759D01*
X168973478Y-119424420D01*
X169150928Y-119350918D01*
X169411937Y-119299000D01*
X169678063Y-119299000D01*
X169939072Y-119350918D01*
G37*
G36*
X170896000Y-117001000D02*
G01*
X168194000Y-117001000D01*
X168194000Y-114299000D01*
X170896000Y-114299000D01*
X170896000Y-117001000D01*
G37*
G36*
X130891000Y-109936000D02*
G01*
X128189000Y-109936000D01*
X128189000Y-107234000D01*
X130891000Y-107234000D01*
X130891000Y-109936000D01*
G37*
G36*
X169939072Y-107285918D02*
G01*
X170184939Y-107387759D01*
X170406212Y-107535610D01*
X170594390Y-107723788D01*
X170742241Y-107945061D01*
X170844082Y-108190928D01*
X170896000Y-108451938D01*
X170896000Y-108718062D01*
X170844082Y-108979072D01*
X170742241Y-109224939D01*
X170594390Y-109446212D01*
X170406212Y-109634390D01*
X170184939Y-109782241D01*
X170184938Y-109782242D01*
X170184937Y-109782242D01*
X169939072Y-109884082D01*
X169678063Y-109936000D01*
X169411937Y-109936000D01*
X169150928Y-109884082D01*
X168905063Y-109782242D01*
X168905062Y-109782242D01*
X168905061Y-109782241D01*
X168683788Y-109634390D01*
X168495610Y-109446212D01*
X168347759Y-109224939D01*
X168245918Y-108979072D01*
X168194000Y-108718062D01*
X168194000Y-108451938D01*
X168245918Y-108190928D01*
X168347759Y-107945061D01*
X168495610Y-107723788D01*
X168683788Y-107535610D01*
X168905061Y-107387759D01*
X169150928Y-107285918D01*
X169411937Y-107234000D01*
X169678063Y-107234000D01*
X169939072Y-107285918D01*
G37*
G36*
X170896000Y-104936000D02*
G01*
X168194000Y-104936000D01*
X168194000Y-102234000D01*
X170896000Y-102234000D01*
X170896000Y-104936000D01*
G37*
G36*
X129934072Y-102285918D02*
G01*
X130179939Y-102387759D01*
X130401212Y-102535610D01*
X130589390Y-102723788D01*
X130737241Y-102945061D01*
X130839082Y-103190928D01*
X130891000Y-103451938D01*
X130891000Y-103718062D01*
X130839082Y-103979072D01*
X130737241Y-104224939D01*
X130589390Y-104446212D01*
X130401212Y-104634390D01*
X130179939Y-104782241D01*
X130179938Y-104782242D01*
X130179937Y-104782242D01*
X129934072Y-104884082D01*
X129673063Y-104936000D01*
X129406937Y-104936000D01*
X129145928Y-104884082D01*
X128900063Y-104782242D01*
X128900062Y-104782242D01*
X128900061Y-104782241D01*
X128678788Y-104634390D01*
X128490610Y-104446212D01*
X128342759Y-104224939D01*
X128240918Y-103979072D01*
X128189000Y-103718062D01*
X128189000Y-103451938D01*
X128240918Y-103190928D01*
X128342759Y-102945061D01*
X128490610Y-102723788D01*
X128678788Y-102535610D01*
X128900061Y-102387759D01*
X129145928Y-102285918D01*
X129406937Y-102234000D01*
X129673063Y-102234000D01*
X129934072Y-102285918D01*
G37*
G36*
X130891000Y-97871000D02*
G01*
X128189000Y-97871000D01*
X128189000Y-95169000D01*
X130891000Y-95169000D01*
X130891000Y-97871000D01*
G37*
G36*
X169939072Y-95220918D02*
G01*
X170184939Y-95322759D01*
X170406212Y-95470610D01*
X170594390Y-95658788D01*
X170742241Y-95880061D01*
X170844082Y-96125928D01*
X170896000Y-96386938D01*
X170896000Y-96653062D01*
X170844082Y-96914072D01*
X170742241Y-97159939D01*
X170594390Y-97381212D01*
X170406212Y-97569390D01*
X170184939Y-97717241D01*
X170184938Y-97717242D01*
X170184937Y-97717242D01*
X169939072Y-97819082D01*
X169678063Y-97871000D01*
X169411937Y-97871000D01*
X169150928Y-97819082D01*
X168905063Y-97717242D01*
X168905062Y-97717242D01*
X168905061Y-97717241D01*
X168683788Y-97569390D01*
X168495610Y-97381212D01*
X168347759Y-97159939D01*
X168245918Y-96914072D01*
X168194000Y-96653062D01*
X168194000Y-96386938D01*
X168245918Y-96125928D01*
X168347759Y-95880061D01*
X168495610Y-95658788D01*
X168683788Y-95470610D01*
X168905061Y-95322759D01*
X169150928Y-95220918D01*
X169411937Y-95169000D01*
X169678063Y-95169000D01*
X169939072Y-95220918D01*
G37*
G36*
X129934072Y-90220918D02*
G01*
X130179939Y-90322759D01*
X130401212Y-90470610D01*
X130589390Y-90658788D01*
X130737241Y-90880061D01*
X130839082Y-91125928D01*
X130891000Y-91386938D01*
X130891000Y-91653062D01*
X130839082Y-91914072D01*
X130737241Y-92159939D01*
X130589390Y-92381212D01*
X130401212Y-92569390D01*
X130179939Y-92717241D01*
X130179938Y-92717242D01*
X130179937Y-92717242D01*
X129934072Y-92819082D01*
X129673063Y-92871000D01*
X129406937Y-92871000D01*
X129145928Y-92819082D01*
X128900063Y-92717242D01*
X128900062Y-92717242D01*
X128900061Y-92717241D01*
X128678788Y-92569390D01*
X128490610Y-92381212D01*
X128342759Y-92159939D01*
X128240918Y-91914072D01*
X128189000Y-91653062D01*
X128189000Y-91386938D01*
X128240918Y-91125928D01*
X128342759Y-90880061D01*
X128490610Y-90658788D01*
X128678788Y-90470610D01*
X128900061Y-90322759D01*
X129145928Y-90220918D01*
X129406937Y-90169000D01*
X129673063Y-90169000D01*
X129934072Y-90220918D01*
G37*
G36*
X170896000Y-92871000D02*
G01*
X168194000Y-92871000D01*
X168194000Y-90169000D01*
X170896000Y-90169000D01*
X170896000Y-92871000D01*
G37*
G36*
X130891000Y-85806000D02*
G01*
X128189000Y-85806000D01*
X128189000Y-83104000D01*
X130891000Y-83104000D01*
X130891000Y-85806000D01*
G37*
G36*
X129899293Y-78149000D02*
G01*
X129934072Y-78155918D01*
X130179939Y-78257759D01*
X130238258Y-78296727D01*
X130401211Y-78405609D01*
X130589391Y-78593789D01*
X130737242Y-78815063D01*
X130793264Y-78950314D01*
X130839082Y-79060928D01*
X130891000Y-79321938D01*
X130891000Y-79588062D01*
X130839082Y-79849072D01*
X130737241Y-80094939D01*
X130589390Y-80316212D01*
X130401212Y-80504390D01*
X130179939Y-80652241D01*
X130179938Y-80652242D01*
X130179937Y-80652242D01*
X129934072Y-80754082D01*
X129673063Y-80806000D01*
X129406937Y-80806000D01*
X129145928Y-80754082D01*
X128900063Y-80652242D01*
X128900062Y-80652242D01*
X128900061Y-80652241D01*
X128678788Y-80504390D01*
X128490610Y-80316212D01*
X128342759Y-80094939D01*
X128240918Y-79849072D01*
X128189000Y-79588062D01*
X128189000Y-79321938D01*
X128240918Y-79060928D01*
X128286736Y-78950314D01*
X128342758Y-78815063D01*
X128490609Y-78593789D01*
X128678789Y-78405609D01*
X128841742Y-78296727D01*
X128900061Y-78257759D01*
X129145928Y-78155918D01*
X129180707Y-78149000D01*
X129406937Y-78104000D01*
X129673063Y-78104000D01*
X129899293Y-78149000D01*
G37*
G36*
X171449239Y-73011467D02*
G01*
X171763282Y-73073934D01*
X172354926Y-73319001D01*
X172887392Y-73674784D01*
X173340216Y-74127608D01*
X173695999Y-74660074D01*
X173941066Y-75251718D01*
X173991326Y-75504390D01*
X174066000Y-75879803D01*
X174066000Y-76520197D01*
X174003533Y-76834239D01*
X173941066Y-77148282D01*
X173695999Y-77739926D01*
X173452732Y-78104000D01*
X173349994Y-78257759D01*
X173340216Y-78272392D01*
X172887392Y-78725216D01*
X172354926Y-79080999D01*
X171763282Y-79326066D01*
X171449239Y-79388533D01*
X171135197Y-79451000D01*
X170494803Y-79451000D01*
X170180761Y-79388533D01*
X169866718Y-79326066D01*
X169275074Y-79080999D01*
X168742608Y-78725216D01*
X168289784Y-78272392D01*
X168280007Y-78257759D01*
X168177268Y-78104000D01*
X167934001Y-77739926D01*
X167688934Y-77148282D01*
X167626467Y-76834239D01*
X167564000Y-76520197D01*
X167564000Y-75879803D01*
X167638674Y-75504390D01*
X167688934Y-75251718D01*
X167934001Y-74660074D01*
X168289784Y-74127608D01*
X168742608Y-73674784D01*
X169275074Y-73319001D01*
X169866718Y-73073934D01*
X170180761Y-73011467D01*
X170494803Y-72949000D01*
X171135197Y-72949000D01*
X171449239Y-73011467D01*
G37*
G36*
X129934072Y-73155918D02*
G01*
X130179939Y-73257759D01*
X130271593Y-73319001D01*
X130401211Y-73405609D01*
X130589391Y-73593789D01*
X130737242Y-73815063D01*
X130839082Y-74060928D01*
X130891000Y-74321937D01*
X130891000Y-74588063D01*
X130864401Y-74721784D01*
X130839082Y-74849072D01*
X130737241Y-75094939D01*
X130589390Y-75316212D01*
X130401212Y-75504390D01*
X130179939Y-75652241D01*
X130179938Y-75652242D01*
X130179937Y-75652242D01*
X129934072Y-75754082D01*
X129673063Y-75806000D01*
X129406937Y-75806000D01*
X129145928Y-75754082D01*
X128900063Y-75652242D01*
X128900062Y-75652242D01*
X128900061Y-75652241D01*
X128678788Y-75504390D01*
X128490610Y-75316212D01*
X128342759Y-75094939D01*
X128240918Y-74849072D01*
X128215599Y-74721784D01*
X128189000Y-74588063D01*
X128189000Y-74321937D01*
X128240918Y-74060928D01*
X128342758Y-73815063D01*
X128490609Y-73593789D01*
X128678789Y-73405609D01*
X128808407Y-73319001D01*
X128900061Y-73257759D01*
X129145928Y-73155918D01*
X129406937Y-73104000D01*
X129673063Y-73104000D01*
X129934072Y-73155918D01*
G37*
G36*
X159498512Y-73398927D02*
G01*
X159647812Y-73428624D01*
X159811784Y-73496544D01*
X159959354Y-73595147D01*
X160084853Y-73720646D01*
X160183456Y-73868216D01*
X160251376Y-74032188D01*
X160286000Y-74206259D01*
X160286000Y-74383741D01*
X160251376Y-74557812D01*
X160183456Y-74721784D01*
X160084853Y-74869354D01*
X159959354Y-74994853D01*
X159811784Y-75093456D01*
X159647812Y-75161376D01*
X159498512Y-75191073D01*
X159473742Y-75196000D01*
X159296258Y-75196000D01*
X159271488Y-75191073D01*
X159122188Y-75161376D01*
X158958216Y-75093456D01*
X158810646Y-74994853D01*
X158685147Y-74869354D01*
X158586544Y-74721784D01*
X158518624Y-74557812D01*
X158484000Y-74383741D01*
X158484000Y-74206259D01*
X158518624Y-74032188D01*
X158586544Y-73868216D01*
X158685147Y-73720646D01*
X158810646Y-73595147D01*
X158958216Y-73496544D01*
X159122188Y-73428624D01*
X159271488Y-73398927D01*
X159296258Y-73394000D01*
X159473742Y-73394000D01*
X159498512Y-73398927D01*
G37*
G36*
X150126000Y-75196000D02*
G01*
X148324000Y-75196000D01*
X148324000Y-73394000D01*
X150126000Y-73394000D01*
X150126000Y-75196000D01*
G37*
G36*
X151878512Y-73398927D02*
G01*
X152027812Y-73428624D01*
X152191784Y-73496544D01*
X152339354Y-73595147D01*
X152464853Y-73720646D01*
X152563456Y-73868216D01*
X152631376Y-74032188D01*
X152666000Y-74206259D01*
X152666000Y-74383741D01*
X152631376Y-74557812D01*
X152563456Y-74721784D01*
X152464853Y-74869354D01*
X152339354Y-74994853D01*
X152191784Y-75093456D01*
X152027812Y-75161376D01*
X151878512Y-75191073D01*
X151853742Y-75196000D01*
X151676258Y-75196000D01*
X151651488Y-75191073D01*
X151502188Y-75161376D01*
X151338216Y-75093456D01*
X151190646Y-74994853D01*
X151065147Y-74869354D01*
X150966544Y-74721784D01*
X150898624Y-74557812D01*
X150864000Y-74383741D01*
X150864000Y-74206259D01*
X150898624Y-74032188D01*
X150966544Y-73868216D01*
X151065147Y-73720646D01*
X151190646Y-73595147D01*
X151338216Y-73496544D01*
X151502188Y-73428624D01*
X151651488Y-73398927D01*
X151676258Y-73394000D01*
X151853742Y-73394000D01*
X151878512Y-73398927D01*
G37*
G36*
X154418512Y-73398927D02*
G01*
X154567812Y-73428624D01*
X154731784Y-73496544D01*
X154879354Y-73595147D01*
X155004853Y-73720646D01*
X155103456Y-73868216D01*
X155171376Y-74032188D01*
X155206000Y-74206259D01*
X155206000Y-74383741D01*
X155171376Y-74557812D01*
X155103456Y-74721784D01*
X155004853Y-74869354D01*
X154879354Y-74994853D01*
X154731784Y-75093456D01*
X154567812Y-75161376D01*
X154418512Y-75191073D01*
X154393742Y-75196000D01*
X154216258Y-75196000D01*
X154191488Y-75191073D01*
X154042188Y-75161376D01*
X153878216Y-75093456D01*
X153730646Y-74994853D01*
X153605147Y-74869354D01*
X153506544Y-74721784D01*
X153438624Y-74557812D01*
X153404000Y-74383741D01*
X153404000Y-74206259D01*
X153438624Y-74032188D01*
X153506544Y-73868216D01*
X153605147Y-73720646D01*
X153730646Y-73595147D01*
X153878216Y-73496544D01*
X154042188Y-73428624D01*
X154191488Y-73398927D01*
X154216258Y-73394000D01*
X154393742Y-73394000D01*
X154418512Y-73398927D01*
G37*
G36*
X156958512Y-73398927D02*
G01*
X157107812Y-73428624D01*
X157271784Y-73496544D01*
X157419354Y-73595147D01*
X157544853Y-73720646D01*
X157643456Y-73868216D01*
X157711376Y-74032188D01*
X157746000Y-74206259D01*
X157746000Y-74383741D01*
X157711376Y-74557812D01*
X157643456Y-74721784D01*
X157544853Y-74869354D01*
X157419354Y-74994853D01*
X157271784Y-75093456D01*
X157107812Y-75161376D01*
X156958512Y-75191073D01*
X156933742Y-75196000D01*
X156756258Y-75196000D01*
X156731488Y-75191073D01*
X156582188Y-75161376D01*
X156418216Y-75093456D01*
X156270646Y-74994853D01*
X156145147Y-74869354D01*
X156046544Y-74721784D01*
X155978624Y-74557812D01*
X155944000Y-74383741D01*
X155944000Y-74206259D01*
X155978624Y-74032188D01*
X156046544Y-73868216D01*
X156145147Y-73720646D01*
X156270646Y-73595147D01*
X156418216Y-73496544D01*
X156582188Y-73428624D01*
X156731488Y-73398927D01*
X156756258Y-73394000D01*
X156933742Y-73394000D01*
X156958512Y-73398927D01*
G37*
G36*
X162038512Y-73398927D02*
G01*
X162187812Y-73428624D01*
X162351784Y-73496544D01*
X162499354Y-73595147D01*
X162624853Y-73720646D01*
X162723456Y-73868216D01*
X162791376Y-74032188D01*
X162826000Y-74206259D01*
X162826000Y-74383741D01*
X162791376Y-74557812D01*
X162723456Y-74721784D01*
X162624853Y-74869354D01*
X162499354Y-74994853D01*
X162351784Y-75093456D01*
X162187812Y-75161376D01*
X162038512Y-75191073D01*
X162013742Y-75196000D01*
X161836258Y-75196000D01*
X161811488Y-75191073D01*
X161662188Y-75161376D01*
X161498216Y-75093456D01*
X161350646Y-74994853D01*
X161225147Y-74869354D01*
X161126544Y-74721784D01*
X161058624Y-74557812D01*
X161024000Y-74383741D01*
X161024000Y-74206259D01*
X161058624Y-74032188D01*
X161126544Y-73868216D01*
X161225147Y-73720646D01*
X161350646Y-73595147D01*
X161498216Y-73496544D01*
X161662188Y-73428624D01*
X161811488Y-73398927D01*
X161836258Y-73394000D01*
X162013742Y-73394000D01*
X162038512Y-73398927D01*
G37*
M02*
